<svg width="259" height="212" viewBox="0 0 259 212" fill="none" xmlns="http://www.w3.org/2000/svg">
<path d="M54.209 85.1142C60.2866 88.4482 68.0224 84.8219 68.9945 77.957C69.0244 77.7423 69.0482 77.5276 69.0661 77.3129C69.5075 72.1418 67.074 67.0721 63.6863 63.1417C60.2986 59.2112 55.9923 56.2052 51.8651 53.056C42.7755 46.1136 33.9065 37.525 31.5149 26.3419C29.1232 15.1529 36.2803 1.42902 47.7079 0.910129C58.3661 0.42702 66.4001 11.0017 69.0184 21.3438C71.6367 31.6859 70.9329 42.7557 74.4757 52.8175C78.0185 62.8792 88.4262 72.0523 98.5536 68.7123C100.027 68.2292 101.434 67.4837 102.544 66.3982C104.071 64.9071 104.947 62.8375 105.293 60.7261C106.558 52.9487 101.124 45.875 96.4244 39.5469C91.7245 33.2188 87.287 24.9999 90.5853 17.8428C94.4084 9.54644 107.124 8.83669 114.019 14.8308C120.908 20.8249 122.846 30.8151 122.333 39.9346C122.005 45.7736 120.902 51.899 123.18 57.2907C125.459 62.6824 133.015 66.267 137.268 62.253C140.733 58.9845 139.725 53.3841 140.405 48.6663C141.276 42.6364 148.057 36.7556 153.103 40.1731C156.747 42.6364 156.688 47.9864 155.757 52.2866C154.827 56.5869 153.592 61.0064 155.501 64.7162C157.266 68.1457 161.227 69.6964 164.99 68.8674C170.083 67.7461 173.227 62.6586 173.328 57.6485C173.412 53.3781 171.581 49.3343 169.881 45.4098C166.773 38.2467 163.934 30.5527 164.99 22.817C166.046 15.0813 172.29 7.51261 180.092 7.66172C189.181 7.83468 195.163 18.0754 194.913 27.159C194.662 36.2427 190.237 44.6046 187.386 53.235C185.788 58.066 184.678 63.416 187.064 68.1099C188.293 70.5374 190.505 72.3744 193.171 72.9112C197.627 73.8058 199.941 70.5911 202.845 68.4738C207.867 64.8117 215.663 64.5612 219.617 70.1855C221.042 72.2193 221.591 74.7899 221.025 77.2055C219.969 81.7264 216.032 83.1638 212.537 84.8875C208.506 86.8736 204.599 89.6291 203.233 94.162C202.535 96.4881 202.798 99.0587 204.205 101.039C207.778 106.091 215.359 103.878 219.361 99.6611C223.124 95.7008 225.313 90.3747 229.41 86.7603C236.585 80.4322 249.087 81.7026 254.842 89.3488C260.598 96.995 258.361 109.359 250.297 114.506C236.442 123.345 214.643 110.802 203.293 123.494C202.535 124.341 202.088 125.463 202.171 126.596C202.41 129.846 206.4 130.491 209.406 131.218C219.086 133.568 225.241 145.33 221.645 154.622C221.233 155.69 220.673 156.769 219.718 157.402C218.496 158.213 216.891 158.135 215.442 157.891C209.197 156.841 203.418 153.238 199.72 148.091C195.456 142.151 192.217 133.234 184.911 133.318C182.233 133.347 179.746 134.683 178.022 136.735C174.76 140.612 174.211 145.568 173.793 150.37C173.579 152.839 173.394 155.38 174.127 157.741C176.292 164.696 185.131 167.159 189.032 173.308C192.825 179.29 190.613 188.004 184.845 192.12C179.078 196.235 170.74 195.806 164.889 191.81C159.038 187.813 155.674 180.746 155.322 173.672C155.053 168.316 156.354 162.954 155.877 157.61C155.537 153.769 154.266 150.018 152.203 146.767C150.33 143.809 147.115 141.035 143.697 141.805C142.373 142.103 141.204 142.92 140.28 143.91C136.952 147.465 136.666 153.006 138.025 157.676C139.385 162.346 142.129 166.473 144.33 170.809C145.409 172.933 146.399 175.312 144.628 177.734C143.721 178.974 142.344 179.809 140.841 180.143C137.715 180.841 134.644 179.69 131.763 178.473C127.045 176.481 121.779 173.404 121.284 168.31C120.884 164.183 123.884 160.437 124.117 156.298C124.337 152.362 121.725 148.437 118.009 147.125C114.293 145.813 109.79 147.232 107.5 150.441C105.556 153.161 105.24 156.698 105.269 160.038C105.347 168.602 107.267 177.173 106.277 185.684C105.287 194.195 100.295 203.154 91.9332 205.026C85.8795 206.38 79.0981 203.291 76.1517 197.828C73.2053 192.364 74.3445 185.004 78.8058 180.692C80.7084 178.855 83.0762 177.573 85.116 175.891C89.631 172.157 92.3627 166.366 92.3746 160.509C92.3806 156.268 90.9074 151.831 87.1081 149.487C85.8497 148.712 84.3944 148.282 82.9152 148.276C78.2511 148.27 76.3485 152.087 73.7481 154.92C69.3822 159.68 61.5272 161.684 56.3085 157.879C51.0897 154.073 51.8114 144.113 58.05 142.455C62.1415 141.369 67.9508 143.248 69.7162 139.371C70.7421 137.123 69.746 134.451 67.587 133.252C60.5312 129.345 51.4058 129.912 44.7616 134.361C40.6939 137.087 37.6163 141.083 33.5785 143.857C26.9343 148.419 17.6777 149.087 10.6756 145.097C3.67349 141.107 -0.477671 132.453 1.21023 124.568C2.89812 116.683 10.6159 110.409 18.6618 110.802C23.8626 111.053 28.7414 113.767 33.9483 113.779C39.7337 113.791 46.2944 107.498 41.4633 102.548C39.9782 101.027 37.9145 100.234 35.7972 100.114C28.6937 99.7028 21.7513 97.0905 16.115 92.7544C9.91811 87.989 5.05124 80.122 8.42107 72.3446C10.2342 68.1517 14.6657 65.5751 19.121 66.5652C23.5764 67.5553 25.3 71.6587 27.1013 75.2611C28.6758 78.4103 30.9661 81.6907 34.8131 81.7026C36.9603 81.7085 38.8748 80.128 38.9464 77.9809C39.0179 75.8337 37.3837 74.9092 36.1491 73.6627C32.4453 69.9112 34.0199 61.6625 39.2923 61.6744C43.9206 61.6864 46.1095 67.3704 46.5986 71.9748C47.0876 76.5792 47.7795 82.2095 52.0678 83.9511L54.2031 85.1201L54.209 85.1142Z" fill="white"/>
<path d="M53.7557 85.8895C58.7359 88.5198 65.0819 87.1539 68.2549 82.3944C72.1914 76.4838 69.072 68.4976 65.1237 63.4876C60.2628 57.3205 53.207 53.3304 47.3381 48.2369C41.8331 43.4595 36.6561 37.847 33.8886 31C31.4671 24.9999 31.2941 18.4929 33.9423 12.5226C36.2803 7.25017 40.8012 2.58609 46.7596 1.87633C53.5112 1.07712 59.4218 5.34159 63.1495 10.614C67.6048 16.9183 69.0482 24.326 69.9309 31.8589C70.8136 39.3918 71.249 48.0281 74.5652 55.3523C77.2789 61.3524 82.2114 66.7858 88.4381 69.1895C94.6649 71.5931 102.711 70.2153 105.413 63.6605C108.335 56.5511 104.369 49.1077 100.337 43.364C96.0665 37.2745 90.1916 30.8092 90.3646 22.8707C90.5078 16.3696 95.7384 12.1767 101.929 11.8129C108.234 11.4431 113.78 14.5385 117.156 19.817C120.973 25.7872 121.856 33.2187 121.451 40.1612C121.045 47.1036 119.381 55.8891 124.958 61.3643C128.9 65.2351 135.997 66.6367 139.284 61.1854C140.96 58.412 140.912 54.9706 141.061 51.8393C141.234 48.3144 141.968 45.1891 144.556 42.6185C146.662 40.531 149.966 39.0578 152.68 40.9366C155.393 42.8153 155.632 46.543 155.334 49.5371C154.964 53.2409 153.539 56.7837 153.652 60.5531C153.753 63.917 155.268 67.096 158.286 68.772C164.101 71.9986 170.823 68.3962 173.197 62.6645C176.34 55.0779 171.557 47.5331 168.891 40.5966C166.046 33.1949 163.946 24.487 167.787 17.0436C170.793 11.2164 177.205 6.78496 183.861 9.284C189.76 11.5027 193.183 18.1648 193.911 24.1053C194.883 32.0557 191.424 39.9524 188.656 47.205C186.086 53.9387 182.406 62.748 186.885 69.5175C188.615 72.1299 191.549 73.9788 194.74 73.9549C197.931 73.9311 200.096 71.8794 202.356 70.0185C207.062 66.1357 214.935 65.0145 218.883 70.6328C221.048 73.7164 220.87 78.0107 218.084 80.6409C215.818 82.7821 212.615 83.7066 209.967 85.2633C207.175 86.9034 204.551 89.1102 203.126 92.0805C201.7 95.0507 201.533 98.9155 203.674 101.755C207.378 106.675 214.422 104.916 218.579 101.611C224.156 97.174 226.076 89.3548 232.428 85.7225C237.701 82.7105 244.631 82.961 249.82 86.0327C255.009 89.1043 257.741 95.2833 257.103 101.415C256.465 107.546 252.689 112.932 246.928 115.258C241.166 117.584 234.826 117.148 228.826 116.82C222.933 116.492 216.748 115.938 211.011 117.667C208.362 118.467 205.905 119.797 203.871 121.669C201.837 123.542 200.179 126.638 202.344 129.161C204.134 131.242 207.199 131.51 209.68 132.202C212.627 133.025 215.209 134.779 217.231 137.057C221.204 141.53 223.023 148.181 220.989 153.918C220.237 156.036 219.068 157.3 216.689 157.139C214.875 157.02 213.026 156.477 211.333 155.845C207.832 154.539 204.653 152.368 202.136 149.606C198.038 145.109 196.13 138.805 191.382 134.862C189.283 133.121 186.7 132.155 183.956 132.489C180.42 132.924 177.61 135.286 175.869 138.298C174.127 141.31 173.489 144.888 173.125 148.354C172.738 152.022 172.266 155.922 173.853 159.382C176.37 164.881 182.501 167.338 186.515 171.513C191.132 176.32 191.066 183.728 186.974 188.893C182.424 194.643 173.847 195.394 167.555 192.293C161.262 189.191 157.04 181.939 156.342 174.817C155.912 170.451 156.706 166.091 156.884 161.732C157.046 157.682 156.497 153.704 154.916 149.952C153.544 146.696 151.451 143.272 148.195 141.614C144.938 139.956 141.711 140.934 139.445 143.54C134.685 149.016 136.314 156.889 139.147 162.829C140.006 164.63 140.978 166.372 141.938 168.119C142.898 169.867 143.984 171.555 144.52 173.428C145.165 175.658 144.109 177.746 142.057 178.778C140.006 179.809 137.679 179.523 135.592 178.915C129.55 177.161 120.586 172.909 122.512 165.209C123.359 161.827 125.375 158.636 125.041 155.034C124.755 151.92 123.025 149.028 120.419 147.298C117.812 145.568 114.437 145.306 111.526 146.391C108.353 147.572 106.146 150.125 105.18 153.346C104.041 157.139 104.375 161.326 104.661 165.215C104.995 169.742 105.574 174.245 105.693 178.784C105.884 185.917 104.691 193.402 99.9075 199.003C95.4641 204.203 88.3964 206.058 82.2651 202.635C76.1338 199.211 73.76 191.356 76.8793 184.945C78.6447 181.318 81.937 179.487 85.0206 177.125C87.8357 174.966 90.0783 172.139 91.5098 168.889C94.0684 163.074 94.3845 155.01 89.5535 150.22C87.126 147.817 83.446 146.636 80.1537 147.853C77.4042 148.867 75.7282 151.27 73.9151 153.429C69.9548 158.135 61.9328 161.38 56.5649 156.9C52.9207 153.859 52.5748 146.481 56.9645 143.892C61.0858 141.459 69.579 145.169 70.9568 138.62C72.4777 131.379 61.4437 129.584 56.4754 129.757C53.04 129.876 49.6403 130.741 46.5747 132.298C43.1452 134.039 40.4136 136.747 37.6402 139.348C34.8668 141.948 31.8727 144.334 28.1867 145.61C24.7275 146.809 20.9461 147.167 17.3317 146.517C10.3177 145.252 4.61582 140.165 2.55217 133.33C0.488519 126.494 2.68338 119.707 8.08704 115.341C10.7233 113.212 14.0454 111.828 17.451 111.703C21.4769 111.554 25.2821 113.164 29.141 114.053C32.4691 114.816 35.7733 115.025 38.8867 113.433C41.2486 112.228 43.4971 110.057 43.9802 107.349C44.517 104.331 42.507 101.605 39.8947 100.293C38.3201 99.5 36.7097 99.3152 34.9861 99.172C33.0119 99.011 31.0556 98.6591 29.1351 98.1521C21.8646 96.2316 14.5046 91.8956 10.5682 85.311C8.67154 82.138 7.6934 78.3864 8.59997 74.7303C9.4469 71.3068 11.8088 68.3604 15.3277 67.4896C18.8466 66.6188 21.9958 68.1875 23.9044 71.0682C25.6042 73.6329 26.5346 76.621 28.4313 79.0663C30.2206 81.3686 33.1013 83.1936 36.1372 82.4481C39.173 81.7026 40.8549 78.458 39.3102 75.7442C38.5945 74.4917 37.3479 73.7402 36.4592 72.6368C35.666 71.6468 35.2306 70.3764 35.1053 69.1239C34.8787 66.8932 35.5646 63.8991 37.8191 62.8912C40.509 61.6864 42.9126 63.8932 44.0756 66.1238C45.4594 68.772 45.6502 71.6885 46.0498 74.5872C46.4494 77.4858 47.0459 80.3845 48.8829 82.633C50.1533 84.1897 52.0678 84.9591 53.7915 85.9014C54.7995 86.4561 55.706 84.9114 54.6921 84.3567C52.7656 83.301 50.7378 82.5018 49.5807 80.5157C47.9823 77.7602 47.857 74.4261 47.4514 71.3545C46.8371 66.6844 43.7178 58.9965 37.5746 61.072C32.8329 62.6764 32.2067 69.6368 34.7236 73.2929C35.5527 74.4977 36.9185 75.2671 37.6819 76.5136C38.7078 78.1955 37.5984 80.1638 35.8211 80.6827C32.1709 81.7443 29.481 77.8794 28.0675 75.1418C26.6539 72.4042 25.5565 69.5414 23.1827 67.5791C20.8089 65.6168 17.4749 65.0085 14.5046 65.8673C7.72322 67.8296 5.21821 75.6846 7.1089 81.959C9.20833 88.9313 15.3277 94.1381 21.6558 97.2634C25.1032 98.9692 28.807 100.15 32.6182 100.705C36.0358 101.2 40.8788 101.075 42.1134 105.22C43.014 108.238 40.1452 110.898 37.676 112.049C34.1093 113.713 30.1609 112.55 26.5764 111.542C22.9918 110.534 19.3596 109.544 15.6021 110.099C12.4231 110.57 9.45883 111.977 6.95382 113.975C1.77084 118.115 -0.787841 124.61 0.214162 131.159C1.2102 137.666 5.52836 143.66 11.4748 146.511C17.7731 149.529 25.3477 149.23 31.5566 146.123C38.5169 142.634 42.5905 135.292 50.1413 132.727C53.6424 131.534 57.4655 131.212 61.1097 131.886C64.0978 132.441 69.5253 133.777 69.2629 137.725C69.0303 141.256 64.9865 141.101 62.3801 141.149C59.7737 141.196 57.0182 141.346 54.9307 143.171C51.2388 146.391 51.1255 152.761 53.8631 156.596C57.5252 161.726 64.9269 161.577 70.0204 158.916C72.8952 157.413 74.768 155.117 76.8197 152.696C79.1637 149.928 82.283 148.127 85.9272 149.839C93.0366 153.179 92.3984 163.408 89.3566 169.264C87.466 172.903 84.615 175.271 81.3287 177.597C78.4539 179.624 76.1159 181.951 74.7978 185.273C72.3584 191.422 74.0045 198.639 79.2412 202.784C84.4778 206.929 91.3368 207.382 96.8657 204.007C102.395 200.631 105.544 194.476 106.79 188.392C108.544 179.857 106.665 171.102 106.277 162.525C106.098 158.565 105.896 153.757 108.615 150.531C110.792 147.942 114.621 146.869 117.812 148.008C121.164 149.207 123.466 152.785 123.264 156.316C123.055 160.026 120.675 163.229 120.419 166.944C119.93 173.899 127.188 177.62 132.652 179.803C136.135 181.193 140.429 182.195 143.757 179.857C145.117 178.903 146.185 177.448 146.441 175.783C146.697 174.119 146.131 172.438 145.397 170.905C142.141 164.123 136.618 157.163 138.556 149.153C139.391 145.706 142.379 141.501 146.441 142.837C150.246 144.083 152.548 148.491 153.777 152.01C156.664 160.282 153.336 168.781 154.863 177.191C156.085 183.931 160.099 190.468 166.29 193.688C172.481 196.909 180.169 196.82 185.692 192.639C190.541 188.971 192.957 182.225 191.346 176.326C189.64 170.1 183.658 167.201 179.155 163.247C176.65 161.046 174.819 158.451 174.569 155.04C174.414 152.964 174.664 150.853 174.867 148.783C175.058 146.863 175.32 144.942 175.839 143.075C176.859 139.389 179.119 135.596 183.026 134.51C186.092 133.658 188.949 134.898 191.108 137.069C195.587 141.572 197.561 147.936 202.255 152.302C204.837 154.7 207.897 156.549 211.219 157.73C214.082 158.743 218.49 160.074 220.959 157.574C222.993 155.517 223.583 151.867 223.607 149.093C223.631 146.165 222.915 143.26 221.675 140.618C220.434 137.976 218.561 135.536 216.259 133.693C213.957 131.85 211.356 130.783 208.476 130.097C207.08 129.763 205.541 129.447 204.348 128.606C202.887 127.58 202.756 125.773 203.806 124.359C205.553 122.003 208.446 120.381 211.189 119.51C217.005 117.661 223.357 118.335 229.345 118.663C235.333 118.991 241.715 119.278 247.405 117.011C253.095 114.745 256.924 110.2 258.379 104.397C259.834 98.5935 258.755 92.4502 254.896 87.971C251.037 83.4919 244.637 81.3387 238.768 81.9471C235.858 82.2513 232.995 83.1698 230.556 84.81C227.651 86.7663 225.575 89.6172 223.643 92.4801C221.71 95.3429 219.706 98.7664 216.689 100.83C214.267 102.482 211.011 103.681 208.082 102.798C204.366 101.677 203.084 97.4781 204.259 94.0487C205.434 90.6192 208.416 88.1917 211.529 86.468C214.16 85.0127 217.136 84.0346 219.355 81.9411C221.734 79.6986 222.653 76.3108 221.931 73.1438C220.47 66.7083 213.51 63.9349 207.551 65.3783C204.557 66.1059 202.279 67.8117 199.959 69.7441C198.754 70.7461 197.448 71.7481 195.879 72.0821C194.132 72.4519 192.295 71.9569 190.809 71.0086C187.35 68.7898 186.378 64.4001 186.688 60.5412C187.022 56.408 188.609 52.4119 190.064 48.5709C192.855 41.199 196.32 33.3977 195.813 25.3339C195.432 19.316 192.706 13.0713 187.762 9.43907C182.817 5.80681 175.964 6.1766 171.115 10.1071C165.527 14.634 163.386 21.8985 164.042 28.8708C164.441 33.0875 165.658 37.1671 167.173 41.1095C168.688 45.0519 170.746 48.881 171.843 52.9904C172.815 56.6346 172.714 60.4518 170.686 63.7202C168.873 66.6487 165.622 68.5692 162.121 68.1875C158.125 67.7461 155.566 64.5134 155.453 60.6009C155.34 56.6883 156.771 53.2886 157.135 49.5848C157.421 46.6623 157.159 43.3879 155.28 41.0022C153.509 38.7477 150.616 37.8292 147.866 38.6045C145.117 39.3799 142.612 41.6761 141.139 44.205C139.433 47.1215 139.373 50.3124 139.212 53.5988C139.051 56.8851 138.711 60.8096 135.496 62.4975C132.842 63.8932 129.544 62.754 127.308 61.0661C120.681 56.0441 123.019 46.3044 123.311 39.2129C123.604 32.1213 122.554 25.155 118.922 19.2682C115.713 14.0674 110.685 10.6379 104.554 10.1011C99.2395 9.63589 93.4183 11.5385 90.5018 16.2443C86.5057 22.6858 89.5177 30.5408 93.1738 36.3679C97.2057 42.7855 103.403 48.6186 104.494 56.4616C105.037 60.3384 104.041 64.8176 100.462 66.9409C97.4204 68.7481 93.6271 68.9449 90.2811 67.9668C83.5474 65.9926 78.2273 59.8613 75.7163 53.4974C72.6089 45.6364 72.4836 36.9464 71.3385 28.668C70.3424 21.4512 68.416 14.4849 63.895 8.63389C60.0182 3.6358 54.37 -0.217136 47.8868 0.00950734C35.5706 0.432973 28.7235 14.4908 30.4413 25.4592C31.5506 32.5269 35.6183 38.855 40.3837 44.032C45.6264 49.7339 51.9962 53.9507 57.9248 58.8593C63.4537 63.4339 69.5373 70.4062 68.0402 78.2075C66.8772 84.2613 59.9586 87.136 54.6504 84.3388C53.6305 83.802 52.7299 85.3468 53.7498 85.8835L53.7557 85.8895Z" fill="white"/>
<path d="M138.807 35.8136C137.405 33.8334 135.425 32.3543 133.802 30.5471C132.18 28.7399 130.892 26.3602 131.345 23.9804C131.798 21.6007 134.733 19.7338 136.767 21.046C138.276 22.0241 138.568 24.0818 138.663 25.8771C138.842 29.1455 138.872 32.4199 138.759 35.6883C138.783 35.241 138.616 34.7877 138.306 34.4657" fill="white"/>
<path d="M139.582 35.3605C138.198 33.4519 136.385 31.9847 134.781 30.2849C133.302 28.7103 131.793 26.4975 132.216 24.2192C132.496 22.7221 134.113 21.1953 135.717 21.5591C137.697 22.0005 137.733 24.8931 137.805 26.4618C137.954 29.5393 137.972 32.6169 137.87 35.6945H139.66C139.648 34.9668 139.403 34.3943 138.944 33.8396C138.21 32.9509 136.952 34.2213 137.679 35.104C137.828 35.2889 137.864 35.4619 137.87 35.6945C137.894 36.8456 139.624 36.8456 139.66 35.6945C139.767 32.4738 139.743 29.2471 139.57 26.0264C139.451 23.7957 139.057 21.0342 136.737 20.0263C134.679 19.1316 132.365 20.3245 131.19 22.072C129.717 24.2609 130.403 27.1357 131.697 29.2352C133.379 31.9608 136.164 33.6965 138.031 36.2671C138.699 37.1915 140.256 36.2969 139.576 35.3665L139.582 35.3605Z" fill="white"/>
<path d="M147.7 30.7978C147.598 29.1219 146.906 27.5234 146.841 25.8475C146.775 24.1715 147.682 22.2212 149.346 22.0243C151.308 21.7917 152.668 24.3027 152.119 26.1994C151.571 28.096 149.877 29.4022 148.284 30.5772" fill="white"/>
<path d="M148.594 30.7974C148.481 29.1691 147.837 27.6244 147.741 26.0021C147.682 25.0061 147.962 23.7655 148.779 23.175C149.596 22.5845 150.396 22.9722 150.873 23.7178C151.451 24.6243 151.493 25.6442 151.004 26.6104C150.312 27.9643 149.036 28.9186 147.837 29.8014C147.449 30.0876 147.252 30.5767 147.515 31.024C147.741 31.4058 148.35 31.6324 148.737 31.3461C150.133 30.3202 151.594 29.2288 152.453 27.69C153.258 26.2526 153.348 24.6243 152.602 23.1452C151.904 21.7555 150.449 20.8549 148.887 21.2008C147.324 21.5468 146.34 23.0915 146.059 24.5647C145.654 26.7118 146.656 28.692 146.811 30.7974C146.847 31.2805 147.199 31.692 147.706 31.692C148.165 31.692 148.636 31.2805 148.6 30.7974H148.594Z" fill="white"/>
<path d="M23.1828 50.169C22.8488 52.0537 24.9005 53.8788 26.6183 54.7198C27.5845 55.191 29.1233 55.0061 29.2605 53.9385C29.338 53.3122 28.8608 52.7635 28.3837 52.3579C26.9224 51.1293 25.0854 50.3539 23.1828 50.169Z" fill="white"/>
<path d="M22.3238 49.9305C22.0972 51.35 22.6996 52.6085 23.6539 53.6403C24.125 54.1473 24.6797 54.5886 25.2583 54.9703C25.7533 55.2984 26.302 55.6204 26.8805 55.7576C28.0376 56.032 29.5168 55.7576 30.0178 54.5409C30.6798 52.9365 29.0694 51.6542 27.8885 50.8908C26.475 49.9723 24.8527 49.4534 23.1827 49.2804C22.6996 49.2327 22.288 49.7277 22.288 50.175C22.288 50.6999 22.6996 51.022 23.1827 51.0697C23.4034 51.0935 23.5704 51.1174 23.8566 51.1711C24.1549 51.2307 24.4531 51.3023 24.7513 51.3918C25.3239 51.5647 25.7235 51.7258 26.2364 51.9942C26.6837 52.2268 27.2205 52.5667 27.5545 52.8292C27.7752 53.0021 27.9839 53.187 28.1688 53.3958C28.2523 53.4852 28.2166 53.4494 28.312 53.6045C28.3239 53.6224 28.3836 53.7596 28.3358 53.6403C28.3418 53.6582 28.4014 53.8789 28.3776 53.7894C28.3478 53.682 28.3716 53.9504 28.3776 53.8133C28.3836 53.6999 28.3776 53.861 28.3597 53.8729C28.2822 53.9087 28.4432 53.7536 28.3836 53.8371C28.3597 53.8669 28.3358 53.9087 28.3239 53.9445C28.2762 54.0518 28.4014 53.8013 28.3478 53.9027C28.3358 53.9266 28.2225 54.016 28.3239 53.9325C28.4253 53.849 28.3179 53.9325 28.2881 53.9504C28.2404 53.9743 28.1927 54.0041 28.145 54.028C28.3537 53.9206 28.0674 54.0399 28.0138 54.0518C27.9839 54.0578 27.8348 54.0876 27.9601 54.0697C28.0853 54.0518 27.9362 54.0697 27.9064 54.0697C27.811 54.0697 27.7155 54.0757 27.6201 54.0697C27.5724 54.0697 27.5247 54.0578 27.477 54.0578C27.3696 54.0578 27.632 54.0936 27.465 54.0578C27.3696 54.0339 27.2802 54.016 27.1847 53.9862C27.143 53.9743 27.0953 53.9504 27.0535 53.9385C27.2145 53.9862 27.1251 53.9743 27.0774 53.9445C26.8448 53.8252 26.6181 53.7059 26.3915 53.5687C26.1827 53.4435 25.9799 53.3003 25.7831 53.1572C25.64 53.0498 25.7115 53.1035 25.7414 53.1274C25.6937 53.0916 25.6459 53.0498 25.5982 53.0081C25.4789 52.9067 25.3597 52.8053 25.2463 52.6979C24.799 52.2804 24.5664 52.012 24.298 51.5051C24.2622 51.4395 24.2324 51.3798 24.2026 51.3142C24.2563 51.4275 24.2026 51.3142 24.1787 51.2546C24.137 51.1353 24.1012 51.022 24.0714 50.8967C24.0594 50.843 24.0475 50.7894 24.0415 50.7357C24.0714 50.9325 24.0415 50.676 24.0415 50.6522C24.0415 50.5985 24.0415 50.5448 24.0415 50.4911C24.0415 50.4494 24.0714 50.2108 24.0415 50.4017C24.1191 49.9245 23.9223 49.4414 23.4153 49.2983C22.9918 49.179 22.3894 49.4414 22.3119 49.9245L22.3238 49.9305Z" fill="white"/>
<path d="M3.34533 53.2588C3.79861 56.0621 5.18233 58.7102 7.22809 60.6784C8.15255 61.5671 9.28577 62.3484 10.5681 62.4319C11.8504 62.5154 13.252 61.6625 13.3892 60.3862C13.4906 59.4438 12.924 58.5611 12.2799 57.8633C10.3116 55.7221 6.24994 53.1932 3.34533 53.2648" fill="white"/>
<path d="M2.48064 53.4973C2.86236 55.7697 3.81665 57.9288 5.21826 59.7539C6.53637 61.4657 8.49862 63.41 10.8366 63.3265C13.0076 63.2549 14.8983 61.2927 14.1051 59.0799C13.4251 57.1773 11.4331 55.734 9.80481 54.6723C7.92009 53.4437 5.64172 52.3403 3.34547 52.3641C2.19436 52.3761 2.19436 54.1653 3.34547 54.1534C4.93197 54.1355 6.48865 54.8155 7.84852 55.5789C9.20838 56.3423 10.616 57.3443 11.7015 58.5491C12.1488 59.0501 12.7273 59.8374 12.441 60.5531C12.2144 61.1197 11.5523 61.4657 10.9678 61.5313C9.22031 61.734 7.60994 59.9448 6.65565 58.7101C5.37333 57.0461 4.55622 55.0898 4.21029 53.0202C4.13275 52.5431 3.54229 52.2747 3.10689 52.3939C2.59993 52.5311 2.40311 53.0142 2.48064 53.4973Z" fill="white"/>
<path d="M61.1214 173.792C61.4852 175.224 61.2705 177.126 60.1194 178.057C58.6462 179.25 56.7913 180.156 54.9126 179.93C53.0338 179.703 51.2624 178.015 51.4771 176.13C51.668 174.46 53.2783 173.255 54.9245 172.927C56.5706 172.599 59.4693 173.542 61.1274 173.792" fill="white"/>
<path d="M60.2629 174.03C60.4299 174.716 60.4478 175.45 60.2688 176.135C60.0899 176.821 59.6843 177.304 59.0879 177.728C57.734 178.688 55.8851 179.505 54.2329 178.837C53.0341 178.354 51.9665 177.036 52.4973 175.7C53.0282 174.364 54.5908 173.726 55.8373 173.75C57.5551 173.785 59.2012 174.382 60.8831 174.65C61.3603 174.728 61.8434 174.525 61.9865 174.024C62.1058 173.601 61.8434 172.998 61.3603 172.921C59.4636 172.616 57.5908 171.931 55.6525 171.954C53.7141 171.978 51.555 173.195 50.8094 175.11C50.0221 177.12 51.2389 179.273 53.0401 180.239C55.1276 181.354 57.5849 180.788 59.5114 179.589C60.5909 178.915 61.4736 178.151 61.8971 176.923C62.2669 175.849 62.249 174.638 61.9865 173.547C61.7241 172.455 59.9885 172.903 60.2629 174.024V174.03Z" fill="white"/>
<path d="M73.5095 167.863C71.4458 168.912 69.5671 170.893 67.4497 169.95C66.8712 169.694 66.3106 169.348 65.9766 168.811C64.9924 167.219 66.8533 165.107 68.7261 165.113C70.5989 165.119 72.1854 166.413 73.5989 167.642" fill="white"/>
<path d="M73.056 167.088C71.9526 167.66 70.9625 168.442 69.8412 168.978C69.4237 169.175 68.9465 169.306 68.5231 169.301C68.0758 169.289 67.533 169.056 67.1215 168.746C66.9485 168.615 66.8054 168.46 66.698 168.269C66.6205 168.132 66.5966 168 66.5966 167.827C66.5966 167.678 66.6324 167.529 66.698 167.368C66.7397 167.273 66.9545 166.939 67.0081 166.879C67.1573 166.706 67.3421 166.539 67.4674 166.45C67.6702 166.312 67.9147 166.181 68.0698 166.128C68.3143 166.044 68.4336 166.02 68.6185 166.014C68.9048 166.002 69.1792 166.032 69.4535 166.098C70.8134 166.42 71.9287 167.38 72.9605 168.275C73.3243 168.591 73.8671 168.633 74.225 168.275C74.547 167.953 74.5947 167.326 74.225 167.01C73.0023 165.955 71.6961 164.863 70.1036 164.422C68.5111 163.98 67.038 164.32 65.9107 165.436C64.9087 166.426 64.4196 167.994 65.195 169.265C66.0539 170.666 67.9207 171.328 69.4893 170.988C71.1474 170.631 72.4774 169.402 73.9506 168.638C74.9765 168.108 74.0699 166.563 73.05 167.094L73.056 167.088Z" fill="white"/>
<path d="M141.073 189.782C141.234 191.542 140.811 193.331 141.139 195.067C141.467 196.802 143.023 198.55 144.735 198.126C146.578 197.673 147.013 195.001 145.946 193.426C144.878 191.852 142.868 190.402 141.073 189.782Z" fill="white"/>
<path d="M140.178 189.782C140.339 191.762 139.785 193.838 140.393 195.77C140.906 197.405 142.248 198.943 144.043 199.075C145.606 199.188 146.87 198.019 147.258 196.57C147.646 195.12 147.234 193.581 146.274 192.383C145.009 190.802 143.202 189.585 141.306 188.917C140.852 188.756 140.327 189.102 140.202 189.544C140.065 190.039 140.369 190.48 140.828 190.647C142.147 191.112 143.363 191.929 144.347 192.913C144.741 193.307 145.194 193.82 145.403 194.279C145.612 194.738 145.648 195.144 145.612 195.663C145.606 195.794 145.618 195.687 145.588 195.86C145.564 195.985 145.534 196.11 145.493 196.23C145.421 196.45 145.379 196.558 145.2 196.802C145.278 196.701 145.069 196.939 145.051 196.963C145.009 197.005 144.962 197.047 144.92 197.082C144.938 197.071 145.003 197.023 144.92 197.076C144.735 197.196 144.658 197.249 144.389 197.285C143.298 197.428 142.397 196.206 142.105 195.24C141.58 193.498 142.117 191.571 141.974 189.782C141.932 189.299 141.592 188.888 141.079 188.888C140.626 188.888 140.143 189.299 140.184 189.782H140.178Z" fill="white"/>
<path d="M154.296 197.81C154.415 200.548 156.968 203.267 159.634 203.894C159.992 203.977 160.392 204.025 160.714 203.852C161.262 203.554 161.322 202.778 161.173 202.17C160.481 199.343 157.201 197.989 154.296 197.81Z" fill="white"/>
<path d="M153.401 197.809C153.574 201.018 156.288 204.042 159.395 204.758C160.344 204.978 161.399 204.823 161.882 203.869C162.258 203.118 162.175 202.223 161.888 201.454C161.375 200.058 160.332 198.978 159.055 198.245C157.606 197.422 155.948 197.022 154.296 196.915C153.813 196.885 153.401 197.35 153.401 197.809C153.401 198.322 153.813 198.674 154.296 198.704C154.451 198.716 154.606 198.728 154.755 198.74C154.809 198.74 155.113 198.782 154.982 198.764C155.292 198.811 155.602 198.865 155.912 198.943C156.192 199.008 156.467 199.086 156.735 199.169C156.854 199.211 156.974 199.247 157.093 199.294C157.165 199.324 157.242 199.348 157.314 199.378C157.355 199.396 157.403 199.414 157.445 199.432C157.391 199.408 157.391 199.408 157.445 199.432C157.701 199.545 157.946 199.67 158.19 199.807C158.31 199.879 158.423 199.951 158.542 200.022C158.59 200.058 158.644 200.088 158.691 200.124C158.703 200.129 158.912 200.285 158.799 200.195C159.008 200.356 159.204 200.541 159.389 200.732C159.634 200.988 159.67 201.03 159.843 201.304C159.914 201.418 159.98 201.531 160.039 201.644C160.075 201.71 160.105 201.776 160.135 201.841C160.117 201.805 160.087 201.704 160.147 201.871C160.195 201.996 160.236 202.128 160.272 202.259C160.29 202.33 160.308 202.408 160.326 202.479C160.367 202.646 160.344 202.414 160.344 202.611C160.344 202.67 160.332 202.957 160.35 202.831C160.338 202.891 160.326 202.945 160.308 203.004L160.278 203.088C160.302 203.016 160.302 203.01 160.278 203.064L160.254 203.1C160.272 203.058 160.296 203.034 160.338 203.016C160.356 203.016 160.212 203.058 160.272 203.052C160.356 203.046 160.183 203.058 160.183 203.058C160.063 203.052 160.087 203.058 159.974 203.04C158.781 202.831 157.701 202.098 156.854 201.227C156.377 200.732 156.008 200.225 155.685 199.593C155.53 199.289 155.453 199.086 155.346 198.722C155.238 198.358 155.202 198.102 155.184 197.791C155.161 197.308 154.791 196.897 154.29 196.897C153.825 196.897 153.371 197.308 153.395 197.791L153.401 197.809Z" fill="white"/>
<path d="M146.692 204.913C146.447 206.213 146.208 207.597 146.698 208.819C147.187 210.042 148.713 210.954 149.865 210.304C150.896 209.72 151.046 208.175 150.413 207.179C149.781 206.183 147.914 204.942 146.751 204.704" fill="white"/>
<path d="M145.833 204.674C145.558 206.13 145.29 207.704 145.868 209.13C146.375 210.376 147.544 211.319 148.904 211.414C150.264 211.509 151.391 210.484 151.618 209.207C151.845 207.931 151.397 206.768 150.479 205.879C149.56 204.99 148.272 204.12 146.99 203.845C146.53 203.75 146 203.983 145.886 204.472C145.785 204.919 146.023 205.468 146.513 205.575C146.703 205.617 146.888 205.682 147.073 205.742C147.109 205.754 147.228 205.808 147.061 205.736C147.109 205.754 147.151 205.778 147.198 205.796C147.318 205.849 147.431 205.909 147.55 205.969C147.765 206.082 147.98 206.207 148.189 206.344C148.284 206.404 148.373 206.464 148.463 206.529C148.511 206.559 148.552 206.595 148.6 206.625C148.63 206.649 148.803 206.78 148.684 206.684C148.868 206.828 149.047 206.983 149.214 207.15C149.286 207.215 149.352 207.287 149.417 207.358C149.465 207.412 149.662 207.668 149.536 207.49C149.59 207.567 149.65 207.651 149.697 207.734C149.727 207.788 149.751 207.841 149.781 207.889C149.763 207.859 149.721 207.716 149.775 207.871C149.805 207.961 149.835 208.05 149.859 208.146C149.87 208.193 149.876 208.241 149.888 208.289C149.936 208.492 149.888 208.146 149.888 208.336C149.888 208.444 149.888 208.551 149.888 208.659C149.888 208.712 149.864 208.879 149.894 208.67C149.888 208.718 149.876 208.766 149.87 208.808C149.853 208.897 149.823 208.987 149.799 209.076C149.751 209.231 149.799 209.088 149.811 209.052C149.781 209.112 149.751 209.177 149.715 209.237C149.715 209.237 149.59 209.434 149.668 209.315C149.733 209.213 149.65 209.333 149.632 209.356C149.59 209.398 149.548 209.434 149.513 209.476C149.465 209.523 149.399 209.529 149.53 209.464C149.447 209.505 149.369 209.565 149.28 209.607C149.447 209.529 149.328 209.583 149.292 209.595C149.22 209.607 149.155 209.631 149.083 209.643C149.298 209.595 149.006 209.631 148.934 209.631C148.874 209.631 148.725 209.589 148.922 209.631C148.874 209.619 148.827 209.613 148.779 209.601C148.684 209.577 148.594 209.541 148.499 209.511C148.666 209.565 148.546 209.535 148.511 209.511C148.445 209.476 148.379 209.44 148.314 209.404C148.272 209.38 148.23 209.35 148.189 209.321C147.986 209.201 148.26 209.392 148.159 209.303C148.069 209.225 147.986 209.154 147.908 209.07C147.866 209.028 147.693 208.82 147.801 208.963C147.723 208.861 147.658 208.754 147.598 208.641C147.574 208.599 147.55 208.551 147.532 208.503C147.628 208.694 147.509 208.438 147.497 208.396C147.443 208.241 147.401 208.086 147.371 207.925C147.377 207.955 147.324 207.645 147.342 207.758C147.354 207.83 147.33 207.609 147.33 207.585C147.318 207.424 147.312 207.257 147.318 207.096C147.318 206.911 147.33 206.732 147.348 206.547C147.348 206.482 147.359 206.416 147.365 206.35C147.365 206.303 147.377 206.249 147.383 206.201C147.377 206.255 147.377 206.255 147.383 206.189C147.431 205.843 147.497 205.497 147.562 205.152C147.646 204.692 147.437 204.161 146.936 204.048C146.495 203.947 145.928 204.179 145.833 204.674Z" fill="white"/>
<path d="M231.408 144.644C233.705 147.697 237.218 149.821 240.987 150.429C242.078 150.608 243.617 150.298 243.611 149.188C243.611 148.759 243.343 148.377 243.063 148.043C240.247 144.656 235.369 143.135 231.128 144.328" fill="white"/>
<path d="M230.633 145.097C232.029 146.928 233.753 148.461 235.78 149.564C236.753 150.095 237.796 150.53 238.858 150.852C239.842 151.151 240.94 151.443 241.977 151.347C242.896 151.264 243.886 150.918 244.315 150.035C244.846 148.95 244.172 147.93 243.462 147.131C242.019 145.514 240.105 144.333 238.047 143.659C235.745 142.902 233.234 142.83 230.896 143.463C229.786 143.767 230.258 145.49 231.373 145.186C234.617 144.304 238.226 145.055 240.868 147.137C241.476 147.62 242.258 148.246 242.627 148.944C242.908 149.475 242.138 149.552 241.745 149.57C240.94 149.612 240.099 149.349 239.335 149.123C238.476 148.866 237.653 148.526 236.86 148.103C235.047 147.149 233.425 145.813 232.184 144.184C231.892 143.797 231.415 143.606 230.961 143.862C230.58 144.077 230.347 144.703 230.639 145.085L230.633 145.097Z" fill="white"/>
<path d="M232.005 137.576C235.058 137.915 238.655 138.053 240.623 135.697C240.927 135.333 241.178 134.903 241.208 134.432C241.285 133.269 239.997 132.452 238.834 132.339C235.971 132.059 233.192 134.754 233.394 137.623" fill="white"/>
<path d="M232.005 138.47C235.249 138.828 239.311 138.953 241.488 136.037C242.084 135.238 242.299 134.236 241.87 133.305C241.5 132.506 240.724 131.981 239.919 131.677C238.309 131.074 236.394 131.575 235.052 132.572C233.466 133.752 232.392 135.613 232.506 137.629C232.565 138.774 234.361 138.78 234.295 137.629C234.17 135.279 236.406 132.9 238.846 133.24C239.329 133.305 239.907 133.544 240.194 133.961C240.48 134.379 240.17 134.886 239.824 135.255C238.971 136.174 237.772 136.603 236.549 136.776C235.052 136.985 233.502 136.848 232.005 136.681C231.522 136.627 231.11 137.128 231.11 137.576C231.11 138.106 231.522 138.417 232.005 138.47Z" fill="white"/>
<path d="M213.545 57.5827C213.217 56.0559 212.883 54.4932 213.116 52.9485C213.349 51.4037 214.267 49.8649 215.74 49.346C217.213 48.8271 219.152 49.7576 219.307 51.3083C219.408 52.3103 218.812 53.2288 218.245 54.0578C217.07 55.7815 215.716 57.6304 213.695 58.1434" fill="white"/>
<path d="M214.41 57.3445C214.082 55.8176 213.694 54.1715 214.094 52.6207C214.368 51.5591 215.06 50.4318 216.188 50.1455C216.975 49.9428 218.09 50.3722 218.353 51.1297C218.543 51.6664 218.275 52.3106 217.971 52.8354C217.613 53.4498 217.196 54.0283 216.778 54.6009C215.931 55.758 214.893 56.8971 213.462 57.2848C212.353 57.583 212.824 59.3127 213.939 59.0085C215.704 58.5314 216.999 57.2431 218.078 55.8295C219.158 54.416 220.547 52.7162 220.136 50.8553C219.79 49.2807 218.138 48.2966 216.599 48.3026C214.881 48.3145 213.438 49.5789 212.758 51.0819C211.78 53.247 212.203 55.585 212.687 57.8156C212.931 58.9429 214.655 58.4658 214.41 57.3385V57.3445Z" fill="white"/>
</svg>
