<svg width="77" height="72" viewBox="0 0 77 72" fill="none" xmlns="http://www.w3.org/2000/svg">
<path d="M23.0128 0.933929C23.1096 14.3926 23.3612 27.8448 23.7677 41.297C23.8838 45.1036 24.0129 48.9038 24.1484 52.7104L23.1806 51.7426C36.8457 51.6201 50.5173 51.8265 64.176 52.3814C68.0148 52.5362 71.8537 52.7169 75.6926 52.9298C76.9314 52.9943 76.9378 54.9299 75.6926 54.8654C62.0468 54.1234 48.3817 53.7169 34.7101 53.6524C30.8648 53.6331 27.0195 53.646 23.1806 53.6782C22.6451 53.6782 22.2322 53.233 22.2128 52.7104C21.7225 39.2647 21.3805 25.8125 21.1934 12.3538C21.1418 8.54717 21.1031 4.74055 21.0708 0.933929C21.0644 -0.311287 22.9999 -0.311287 23.0064 0.933929H23.0128Z" fill="white" fill-opacity="0.5"/>
<path d="M30.4002 0.933933C30.0647 6.12126 30.2582 11.3344 29.9356 16.5217C29.7614 19.2831 29.6711 22.0575 29.8453 24.8253C30.0001 27.3803 30.4453 29.8836 31.0389 32.374C31.5357 34.4645 32.1486 36.5549 33.2455 38.4195C34.3423 40.2841 36.0198 41.7293 38.0457 42.6713C42.5426 44.7617 47.8461 44.523 52.685 44.6456C59.2079 44.8004 65.7308 44.9617 72.2536 45.1166C73.4989 45.1488 73.4989 47.0844 72.2536 47.0521C66.2663 46.9102 60.2789 46.7618 54.2916 46.6198C49.0849 46.4973 43.4911 46.7811 38.5296 44.9553C36.3359 44.1488 34.2778 42.9423 32.7809 41.1164C31.3744 39.4002 30.4647 37.3743 29.813 35.2645C28.2259 30.161 27.6839 24.8124 27.8646 19.4896C27.9678 16.3927 28.2001 13.3022 28.2388 10.2053C28.2775 7.10841 28.2775 4.03085 28.471 0.953289C28.5485 -0.285477 30.484 -0.291927 30.4066 0.953289L30.4002 0.933933Z" fill="white" fill-opacity="0.5"/>
<path d="M16.077 4.84377C14.5737 4.67602 13.2059 5.50186 12.5091 6.8374C11.7413 8.31489 12.109 10.1085 12.9478 11.4699C14.6253 14.2055 18.1545 14.9797 20.1094 17.4766C22.3353 20.3219 21.6837 24.0059 20.3739 27.0964C19.7158 28.6513 18.9287 30.2384 17.9351 31.6127C17.0125 32.8902 15.7286 33.9354 14.0769 33.9354C10.9864 33.9354 8.9347 30.3352 10.438 27.6706C11.8187 25.2124 15.2511 24.5543 17.4512 26.2705C20.2836 28.4771 20.0642 32.4385 18.8706 35.4451C17.8319 38.0517 16.4899 40.6067 15.1543 43.0648C12.0187 48.8264 7.66368 53.8395 1.18597 55.7622C0.0891455 56.0848 -0.433459 54.5879 0.437548 53.9943C1.57308 53.2266 3.21187 53.3104 4.5087 53.4395C6.31523 53.6137 8.10886 54.0073 9.83152 54.5686C11.2896 55.046 12.6316 55.6202 13.8188 56.6009C15.4511 57.9494 16.735 59.4333 17.4254 61.4592C18.4642 64.5109 18.9287 67.8079 18.9932 71.0209L17.1867 70.5306C19.3481 65.7949 23.0257 61.8011 27.5033 59.1559C29.7356 57.8397 32.1874 56.8396 34.7165 56.2719C37.0069 55.7622 39.5232 55.6009 41.6975 56.6203C43.8717 57.6397 45.4654 60.0269 44.8653 62.4721C44.2653 64.9174 41.5942 66.3562 39.3425 65.1497C37.2134 64.0077 36.4456 61.3043 37.4392 59.1688C38.5618 56.7558 41.3297 55.5944 43.8717 55.646C48.5171 55.7364 52.8076 58.6655 56.6852 60.8914C57.7691 61.5108 56.7949 63.1819 55.711 62.5625C54.0399 61.6076 52.3753 60.6334 50.672 59.7301C50.2204 59.4914 49.7623 59.2526 49.2978 59.0397C48.9042 58.8591 48.8074 58.8204 48.3494 58.6462C46.1364 57.801 43.433 57.0009 41.1748 58.1236C39.549 58.9301 38.2328 60.7817 39.3296 62.5431C39.7296 63.1883 40.4587 63.7754 41.2652 63.6786C42.1749 63.569 42.8717 62.7238 43.0265 61.8657C43.3814 59.9236 41.562 58.4526 39.8716 58.0203C37.9683 57.5364 35.923 57.9236 34.0713 58.4397C32.0325 59.0075 30.0905 59.8656 28.2775 60.9559C24.1547 63.4464 20.8643 67.1369 18.8642 71.5177C18.4448 72.4339 17.077 71.9177 17.0576 71.0274C16.9867 67.8853 16.5931 64.4658 15.3931 61.5302C14.9672 60.4914 14.2962 59.6333 13.4833 58.872C12.7607 58.201 12.1865 57.6784 11.3671 57.259C9.69603 56.4009 7.77336 55.9235 5.94102 55.588C4.64419 55.3492 2.50861 54.9299 1.41824 55.6718L0.669817 53.904C5.72811 52.4007 9.4444 48.7748 12.1671 44.3746C13.393 42.3938 14.4382 40.3099 15.4576 38.2195C16.7028 35.6709 18.49 32.7031 17.5673 29.7739C17.1996 28.6061 16.3157 27.4254 15.0253 27.2383C14.0511 27.0964 12.9736 27.5416 12.3542 28.2964C11.6251 29.1803 11.7413 30.4256 12.4962 31.2643C13.451 32.3289 14.8834 32.1353 15.8253 31.174C16.8447 30.1288 17.5222 28.6513 18.1545 27.3609C18.8319 25.9802 19.4126 24.4898 19.619 22.9607C19.8062 21.5219 19.5997 20.0509 18.7416 18.8508C17.9416 17.7282 16.7157 16.9862 15.5673 16.2636C14.2253 15.412 12.8704 14.5474 11.8768 13.2829C10.8832 12.0183 10.1735 10.3343 10.1799 8.65039C10.1799 5.54702 12.8575 2.56625 16.1028 2.92755C17.3286 3.06304 17.3415 4.99861 16.1028 4.86312L16.077 4.84377Z" fill="white" fill-opacity="0.5"/>
<path d="M69.7568 59.0333C70.5439 60.814 70.3117 62.8205 69.1761 64.4077C68.0406 65.9949 66.0341 66.9239 64.0146 66.8981C61.8855 66.8723 60.0596 65.9497 58.4208 64.6593C56.8982 63.4593 57 63.5 55.5 62.5C58.2466 63 56.5 60.5 57 61C58.2466 62.0076 57.0014 60.9624 58.2466 62.0076C59.4918 63.0528 60.75 64.2206 62.3565 64.7045C63.963 65.1884 65.8792 65.0593 67.1244 63.8528C68.1051 62.9044 68.6729 61.3172 68.0922 60.0075C67.589 58.8784 69.26 57.8913 69.7633 59.0333H69.7568Z" fill="white" fill-opacity="0.5"/>
</svg>
