<svg width="77" height="72" viewBox="0 0 77 72" fill="none" xmlns="http://www.w3.org/2000/svg">
<path d="M53.6112 0.933929C53.5144 14.3926 53.2628 27.8448 52.8563 41.297C52.7402 45.1036 52.6111 48.9038 52.4757 52.7104L53.4434 51.7426C39.7783 51.6201 26.1067 51.8265 12.4481 52.3814C8.60918 52.5362 4.7703 52.7169 0.931419 52.9298C-0.307346 52.9943 -0.313797 54.9299 0.931419 54.8654C14.5772 54.1234 28.2423 53.7169 41.9139 53.6524C45.7592 53.6331 49.6046 53.646 53.4434 53.6782C53.9789 53.6782 54.3919 53.233 54.4112 52.7104C54.9016 39.2647 55.2435 25.8125 55.4306 12.3538C55.4822 8.54717 55.5209 4.74055 55.5532 0.933929C55.5597 -0.311287 53.6241 -0.311287 53.6176 0.933929H53.6112Z" fill="white" fill-opacity="0.5"/>
<path d="M46.2239 0.933933C46.5594 6.12126 46.3658 11.3344 46.6884 16.5217C46.8626 19.2831 46.9529 22.0575 46.7787 24.8253C46.6239 27.3803 46.1787 29.8836 45.5851 32.374C45.0883 34.4645 44.4754 36.5549 43.3786 38.4195C42.2817 40.2841 40.6043 41.7293 38.5784 42.6713C34.0814 44.7617 28.7779 44.523 23.939 44.6456C17.4161 44.8004 10.8933 44.9617 4.37038 45.1166C3.12516 45.1488 3.12516 47.0844 4.37038 47.0521C10.3577 46.9102 16.3451 46.7618 22.3325 46.6198C27.5392 46.4973 33.133 46.7811 38.0945 44.9553C40.2881 44.1488 42.3463 42.9423 43.8431 41.1164C45.2496 39.4002 46.1593 37.3743 46.811 35.2645C48.3982 30.161 48.9401 24.8124 48.7595 19.4896C48.6562 16.3927 48.424 13.3022 48.3852 10.2053C48.3465 7.10841 48.3465 4.03085 48.153 0.953289C48.0756 -0.285477 46.14 -0.291927 46.2174 0.953289L46.2239 0.933933Z" fill="white" fill-opacity="0.5"/>
<path d="M60.5471 4.84377C62.0504 4.67602 63.4182 5.50186 64.115 6.8374C64.8827 8.31489 64.515 10.1085 63.6762 11.4699C61.9987 14.2055 58.4696 14.9797 56.5146 17.4766C54.2887 20.3219 54.9404 24.0059 56.2501 27.0964C56.9082 28.6513 57.6953 30.2384 58.6889 31.6127C59.6115 32.8902 60.8955 33.9354 62.5472 33.9354C65.6376 33.9354 67.6893 30.3352 66.186 27.6706C64.8053 25.2124 61.3729 24.5543 59.1728 26.2705C56.3404 28.4771 56.5598 32.4385 57.7534 35.4451C58.7922 38.0517 60.1341 40.6067 61.4697 43.0648C64.6053 48.8264 68.9603 53.8395 75.4381 55.7622C76.5349 56.0848 77.0575 54.5879 76.1865 53.9943C75.0509 53.2266 73.4122 53.3104 72.1153 53.4395C70.3088 53.6137 68.5152 54.0073 66.7925 54.5686C65.3344 55.046 63.9924 55.6202 62.8052 56.6009C61.1729 57.9494 59.889 59.4333 59.1986 61.4592C58.1599 64.5109 57.6953 67.8079 57.6308 71.0209L59.4373 70.5306C57.276 65.7949 53.5984 61.8011 49.1208 59.1559C46.8884 57.8397 44.4367 56.8396 41.9075 56.2719C39.6171 55.7622 37.1009 55.6009 34.9266 56.6203C32.7523 57.6397 31.1587 60.0269 31.7587 62.4721C32.3587 64.9174 35.0298 66.3562 37.2815 65.1497C39.4106 64.0077 40.1784 61.3043 39.1848 59.1688C38.0622 56.7558 35.2943 55.5944 32.7523 55.646C28.1069 55.7364 23.8164 58.6655 19.9388 60.8914C18.8549 61.5108 19.8291 63.1819 20.913 62.5625C22.5841 61.6076 24.2487 60.6334 25.952 59.7301C26.4036 59.4914 26.8617 59.2526 27.3262 59.0397C27.7198 58.8591 27.8166 58.8204 28.2747 58.6462C30.4877 57.801 33.191 57.0009 35.4492 58.1236C37.0751 58.9301 38.3912 60.7817 37.2944 62.5431C36.8944 63.1883 36.1653 63.7754 35.3588 63.6786C34.4491 63.569 33.7523 62.7238 33.5975 61.8657C33.2426 59.9236 35.0621 58.4526 36.7525 58.0203C38.6558 57.5364 40.701 57.9236 42.5527 58.4397C44.5915 59.0075 46.5335 59.8656 48.3465 60.9559C52.4693 63.4464 55.7598 67.1369 57.7598 71.5177C58.1792 72.4339 59.547 71.9177 59.5664 71.0274C59.6374 67.8853 60.0309 64.4658 61.231 61.5302C61.6568 60.4914 62.3278 59.6333 63.1407 58.872C63.8633 58.201 64.4376 57.6784 65.257 57.259C66.928 56.4009 68.8507 55.9235 70.683 55.588C71.9798 55.3492 74.1154 54.9299 75.2058 55.6718L75.9542 53.904C70.8959 52.4007 67.1796 48.7748 64.4569 44.3746C63.2311 42.3938 62.1859 40.3099 61.1665 38.2195C59.9212 35.6709 58.1341 32.7031 59.0567 29.7739C59.4244 28.6061 60.3083 27.4254 61.5987 27.2383C62.573 27.0964 63.6504 27.5416 64.2698 28.2964C64.9989 29.1803 64.8827 30.4256 64.1279 31.2643C63.173 32.3289 61.7407 32.1353 60.7987 31.174C59.7793 30.1288 59.1018 28.6513 58.4696 27.3609C57.7921 25.9802 57.2114 24.4898 57.005 22.9607C56.8179 21.5219 57.0243 20.0509 57.8824 18.8508C58.6825 17.7282 59.9083 16.9862 61.0568 16.2636C62.3988 15.412 63.7537 14.5474 64.7473 13.2829C65.7408 12.0183 66.4506 10.3343 66.4441 8.65039C66.4441 5.54702 63.7666 2.56625 60.5213 2.92755C59.2954 3.06304 59.2825 4.99861 60.5213 4.86312L60.5471 4.84377Z" fill="white" fill-opacity="0.5"/>
<path d="M6.86721 59.0333C6.08008 60.814 6.31235 62.8205 7.44788 64.4077C8.58341 65.9949 10.59 66.9239 12.6094 66.8981C14.7385 66.8723 16.5644 65.9497 18.2032 64.6593C19.7258 63.4593 19.624 63.5 21.124 62.5C18.3774 63 20.124 60.5 19.624 61C18.3774 62.0076 19.6226 60.9624 18.3774 62.0076C17.1322 63.0528 15.8741 64.2206 14.2675 64.7045C12.661 65.1884 10.7448 65.0593 9.49958 63.8528C8.5189 62.9044 7.95113 61.3172 8.5318 60.0075C9.03505 58.8784 7.364 57.8913 6.86075 59.0333H6.86721Z" fill="white" fill-opacity="0.5"/>
</svg>
