<svg width="77" height="72" viewBox="0 0 77 72" fill="none" xmlns="http://www.w3.org/2000/svg">
<path d="M53.6112 71.0661C53.5144 57.6074 53.2628 44.1552 52.8563 30.703C52.7402 26.8964 52.6111 23.0962 52.4757 19.2896L53.4434 20.2574C39.7783 20.3799 26.1067 20.1735 12.4481 19.6186C8.60918 19.4638 4.7703 19.2831 0.931419 19.0702C-0.307346 19.0057 -0.313797 17.0701 0.931419 17.1346C14.5772 17.8766 28.2423 18.2831 41.9139 18.3476C45.7592 18.3669 49.6046 18.354 53.4434 18.3218C53.9789 18.3218 54.3919 18.767 54.4112 19.2896C54.9016 32.7353 55.2435 46.1875 55.4306 59.6462C55.4822 63.4528 55.5209 67.2594 55.5532 71.0661C55.5597 72.3113 53.6241 72.3113 53.6176 71.0661H53.6112Z" fill="white" fill-opacity="0.5"/>
<path d="M46.2239 71.0661C46.5594 65.8788 46.3658 60.6656 46.6884 55.4783C46.8626 52.7169 46.9529 49.9426 46.7787 47.1747C46.6239 44.6198 46.1787 42.1164 45.5851 39.626C45.0883 37.5356 44.4754 35.4451 43.3786 33.5805C42.2817 31.716 40.6043 30.2707 38.5784 29.3287C34.0814 27.2383 28.7779 27.4771 23.939 27.3545C17.4161 27.1996 10.8933 27.0383 4.37038 26.8835C3.12516 26.8512 3.12516 24.9156 4.37038 24.9479C10.3577 25.0899 16.3451 25.2382 22.3325 25.3802C27.5392 25.5028 33.133 25.2189 38.0945 27.0448C40.2881 27.8513 42.3463 29.0578 43.8431 30.8837C45.2496 32.5999 46.1593 34.6258 46.811 36.7355C48.3982 41.839 48.9401 47.1876 48.7595 52.5104C48.6562 55.6073 48.424 58.6978 48.3852 61.7947C48.3465 64.8916 48.3465 67.9692 48.153 71.0467C48.0756 72.2855 46.14 72.292 46.2174 71.0467L46.2239 71.0661Z" fill="white" fill-opacity="0.5"/>
<path d="M60.5471 67.1562C62.0504 67.324 63.4182 66.4981 64.115 65.1626C64.8827 63.6851 64.515 61.8915 63.6762 60.5301C61.9987 57.7945 58.4696 57.0203 56.5146 54.5234C54.2887 51.6781 54.9404 47.9941 56.2501 44.9036C56.9082 43.3487 57.6953 41.7616 58.6889 40.3873C59.6115 39.1098 60.8955 38.0646 62.5472 38.0646C65.6376 38.0646 67.6893 41.6648 66.186 44.3294C64.8053 46.7876 61.3729 47.4457 59.1728 45.7295C56.3404 43.5229 56.5598 39.5615 57.7534 36.5549C58.7922 33.9483 60.1341 31.3933 61.4697 28.9352C64.6053 23.1736 68.9603 18.1605 75.4381 16.2378C76.5349 15.9152 77.0575 17.4121 76.1865 18.0057C75.0509 18.7734 73.4122 18.6896 72.1153 18.5605C70.3088 18.3863 68.5152 17.9927 66.7925 17.4314C65.3344 16.954 63.9924 16.3798 62.8052 15.3991C61.1729 14.0506 59.889 12.5667 59.1986 10.5408C58.1599 7.48905 57.6953 4.19213 57.6308 0.979088L59.4373 1.46943C57.276 6.20513 53.5984 10.1989 49.1208 12.8441C46.8884 14.1603 44.4367 15.1604 41.9075 15.7281C39.6171 16.2378 37.1009 16.3991 34.9266 15.3797C32.7523 14.3603 31.1587 11.9731 31.7587 9.52786C32.3587 7.08259 35.0298 5.64381 37.2815 6.85032C39.4106 7.9923 40.1784 10.6957 39.1848 12.8312C38.0622 15.2442 35.2943 16.4056 32.7523 16.354C28.1069 16.2636 23.8164 13.3345 19.9388 11.1086C18.8549 10.4892 19.8291 8.81815 20.913 9.43753C22.5841 10.3924 24.2487 11.3666 25.952 12.2699C26.4036 12.5086 26.8617 12.7474 27.3262 12.9603C27.7198 13.1409 27.8166 13.1796 28.2747 13.3538C30.4877 14.199 33.191 14.9991 35.4492 13.8764C37.0751 13.0699 38.3912 11.2183 37.2944 9.45689C36.8944 8.8117 36.1653 8.22457 35.3588 8.32135C34.4491 8.43103 33.7523 9.27623 33.5975 10.1343C33.2426 12.0764 35.0621 13.5474 36.7525 13.9797C38.6558 14.4636 40.701 14.0764 42.5527 13.5603C44.5915 12.9925 46.5335 12.1344 48.3465 11.0441C52.4693 8.55362 55.7598 4.86313 57.7598 0.482291C58.1792 -0.433878 59.547 0.0822735 59.5664 0.972636C59.6374 4.11471 60.0309 7.53422 61.231 10.4698C61.6568 11.5086 62.3278 12.3667 63.1407 13.128C63.8633 13.799 64.4376 14.3216 65.257 14.741C66.928 15.5991 68.8507 16.0765 70.683 16.412C71.9798 16.6508 74.1154 17.0701 75.2058 16.3282L75.9542 18.096C70.8959 19.5993 67.1796 23.2252 64.4569 27.6254C63.2311 29.6062 62.1859 31.6901 61.1665 33.7805C59.9212 36.3291 58.1341 39.2969 59.0567 42.2261C59.4244 43.3939 60.3083 44.5746 61.5987 44.7617C62.573 44.9036 63.6504 44.4584 64.2698 43.7036C64.9989 42.8197 64.8827 41.5744 64.1279 40.7357C63.173 39.6711 61.7407 39.8647 60.7987 40.826C59.7793 41.8712 59.1018 43.3487 58.4696 44.6391C57.7921 46.0198 57.2114 47.5102 57.005 49.0393C56.8179 50.4781 57.0243 51.9491 57.8824 53.1492C58.6825 54.2718 59.9083 55.0138 61.0568 55.7364C62.3988 56.588 63.7537 57.4526 64.7473 58.7171C65.7408 59.9817 66.4506 61.6657 66.4441 63.3496C66.4441 66.453 63.7666 69.4338 60.5213 69.0724C59.2954 68.937 59.2825 67.0014 60.5213 67.1369L60.5471 67.1562Z" fill="white" fill-opacity="0.5"/>
<path d="M6.86721 12.9667C6.08008 11.186 6.31235 9.17944 7.44788 7.59228C8.58341 6.00511 10.59 5.07603 12.6094 5.10184C14.7385 5.12765 16.5644 6.05027 18.2032 7.34065C19.7258 8.54071 19.624 8.5 21.124 9.5C18.3774 9 20.124 11.5 19.624 11C18.3774 9.99238 19.6226 11.0376 18.3774 9.99238C17.1322 8.94718 15.8741 7.77938 14.2675 7.29549C12.661 6.8116 10.7448 6.94063 9.49958 8.14714C8.5189 9.09557 7.95113 10.6827 8.5318 11.9925C9.03505 13.1216 7.364 14.1087 6.86075 12.9667H6.86721Z" fill="white" fill-opacity="0.5"/>
</svg>
