<svg width="37" height="62" viewBox="0 0 37 62" fill="none" xmlns="http://www.w3.org/2000/svg">
<path d="M28.944 49.4092C27.4611 48.6486 25.6366 48.5754 24.1065 49.2295C24.9199 48.5193 25.8843 47.9824 26.9212 47.6541C25.6552 47.3307 24.301 47.3716 23.0555 47.7724C24.0023 46.8453 25.4478 46.4701 26.7168 46.8236C24.3808 46.8015 22.0572 46.3861 19.8694 45.5955C21.2491 44.9565 22.8663 44.871 24.3095 45.356C23.2406 44.7243 21.9273 44.8098 20.7139 44.5571C18.5203 44.1044 16.6269 42.4275 15.9079 40.3083C17.9727 41.175 22.2235 42.571 22.2235 42.571C22.2235 42.571 17.2993 39.6954 15.7698 37.3106C14.2404 34.9259 13.3157 32.2072 12.4979 29.4932C12.9324 29.6443 13.3812 29.7575 13.8368 29.8154C11.8563 28.8795 10.2135 27.2475 9.26587 25.2727C10.2018 25.9116 11.1416 26.5593 12.0775 27.1983C10.8039 26.9516 9.48118 25.8468 8.59232 24.7048C8.24731 24.2621 7.96428 23.7707 7.71616 23.2637L5.62684 19.0447C6.56587 19.1059 7.53451 19.9817 8.61407 19.9591C6.18895 18.709 4.54185 16.2722 3.21337 13.8916C3.21337 13.8916 3.88184 15.6877 7.41988 17.0364C2.53137 16.3452 2.41565 11.4095 2.42364 6.28229C2.4303 4.61333 6.02486 4.73171 8.64029 6.64042C10.1056 7.71275 10.9097 8.7356 11.7895 10.0912L10.6077 6.77532C16.0151 8.25043 19.1307 16.7247 22.7793 21.6177C25.1968 24.862 27.9542 28.4674 27.3862 32.3681C27.2665 30.651 26.9886 28.9314 26.4775 27.1591C28.0744 30.6767 28.3337 35.5585 28.3337 35.5585C28.6676 34.2459 28.5461 35.4948 28.862 34.0016C30.3741 37.4 30.9787 41.205 30.6033 44.9042C31.5077 43.7656 33.0555 43.1979 34.4777 43.4723C33.0193 44.0523 31.7124 44.9941 30.7024 46.201C31.767 45.7241 33.1719 46.7082 33.088 47.8774C32.6978 47.5912 32.3753 47.2223 32.1498 46.7889C31.4228 47.1775 30.8022 47.7804 28.9488 49.3966L28.944 49.4092Z" fill="#161D41" stroke="white" stroke-miterlimit="10"/>
<path d="M32.9451 59.8126C30.6706 57.6358 30.2808 54.2166 29.4901 51.1655C29.056 49.495 28.4618 47.8647 27.8803 46.2392C24.1133 35.8669 20.2155 25.2493 13.0961 16.8191C10.6998 13.1777 6.67677 8.73529 6.67677 8.73529C9.25407 10.2315 12.207 14.2732 13.104 15.2229C13.9523 16.1107 15.5774 18.6622 16.3215 19.7852C17.9698 22.2949 19.5871 24.8289 21.0958 27.4011C23.2633 31.7947 25.6267 36.1109 27.3666 40.6961C28.0438 42.4882 28.625 44.3234 29.1015 46.2055C29.7722 47.7491 30.2605 49.3535 30.7527 50.9666C30.8988 51.4565 31.0488 51.9551 31.2037 52.441C31.9469 54.8951 32.6989 57.3453 33.1268 59.8674C33.0387 59.9278 32.8928 59.836 32.9578 59.8174L32.9451 59.8126Z" fill="white" stroke="white" stroke-miterlimit="10"/>
</svg>
