<svg width="89" height="78" viewBox="0 0 89 78" fill="none" xmlns="http://www.w3.org/2000/svg">
<path d="M17.0813 32.775C18.6999 33.7236 21.2605 33.3248 22.0255 31.9917C22.1854 31.7097 22.3338 31.1543 22.1625 30.1545C21.1863 24.4405 12.6109 23.1787 10.5756 17.7496C9.50222 14.8841 10.8468 11.3235 13.553 9.87937C16.2592 8.43807 19.973 9.29829 21.7629 11.7821C23.5299 14.2318 23.3444 17.5132 23.8639 20.4869C24.4034 23.5746 26.6101 27.0354 29.813 26.48C30.4724 26.3661 31.0833 26.0129 31.4316 25.4432C32.5706 23.586 30.0613 21.5494 29.4562 19.4159C29.008 17.835 29.8044 15.9949 31.2631 15.2344C32.7219 14.4739 34.6916 14.8784 35.7335 16.1488C36.8383 17.4961 36.8268 19.4102 36.7326 21.1478C36.6156 23.3012 36.5214 25.691 38.5054 27.1152C39.5473 27.8615 41.0403 27.6735 41.7425 26.6025C43.0414 24.6257 40.1011 22.1476 41.2687 20.2277C41.8282 19.3048 43.0471 19.0399 44.012 19.5298C45.642 20.3587 46.0017 22.2159 45.8789 23.8765C45.7847 25.1612 45.5078 26.6367 46.5383 27.5254C47.1977 28.0951 48.1483 28.1606 48.9334 27.7817C50.3949 27.0782 50.9202 25.4916 51.0287 23.9876C51.4483 18.0116 46.3927 12.3205 47.8914 6.52108C48.6822 3.46187 51.414 0.995128 54.5427 0.513744C57.6743 0.0323595 61.0228 1.56481 62.6984 4.24518C64.4169 6.99107 64.3399 10.5402 63.3978 13.6393C62.4558 16.7384 60.7459 19.5355 59.2986 22.4352C58.5364 23.9592 57.8227 25.6768 58.6991 27.3402C59.1872 28.2688 60.2834 28.7616 61.2654 28.3856C63.1837 27.6507 62.4358 24.8564 62.8954 22.8824C63.4064 20.6778 66.0698 19.2877 68.2079 20.0397C70.346 20.7917 71.5535 23.4407 70.8056 25.5771C70.3146 26.9785 69.1785 28.0324 68.1537 29.1063C66.8891 30.4308 65.6673 32.0344 66.1497 33.9913C66.4209 35.0965 67.4543 35.8969 68.5819 35.726C70.2547 35.4753 70.68 33.4444 71.2881 31.9205C72.9523 27.7447 78.5474 25.8334 82.5896 27.8131C86.6289 29.7956 88.5758 35.031 87.1513 39.2922C86.7916 40.3661 86.2321 41.4029 85.3643 42.135C83.6115 43.6161 81.0195 43.5478 78.7872 43.0151C76.552 42.4825 74.3654 41.5567 72.0674 41.5909C70.5915 41.6137 69.0101 42.1179 68.2479 43.4111C67.6941 44.351 67.7483 45.5645 68.5248 46.3279C69.2213 47.0143 70.1348 46.9289 70.9912 46.8491C72.7325 46.6867 74.5281 46.5899 76.1895 47.1254C77.8537 47.6609 79.3753 48.9626 79.6864 50.6802C80.0946 52.939 78.1592 55.1751 75.8983 55.5938C73.3263 56.0695 70.6543 54.6082 69.0557 52.6029C68.6304 52.0674 68.088 51.6231 67.4429 51.3924C64.8109 50.4524 63.8917 53.9132 65.202 55.6337C66.3353 57.1234 68.2793 57.6731 70.0063 58.4052C73.1636 59.7382 76.0582 62.1138 77.1515 65.3553C78.2448 68.5969 77.0459 72.6986 73.96 74.1855C71.7848 75.2337 69.1357 74.8406 66.9775 73.7525C63.6776 72.089 61.2369 68.8219 60.5832 65.1901C60.3034 63.6377 60.3291 62.0284 59.8609 60.5244C59.3928 59.0204 58.2423 57.5649 56.6723 57.394C54.1745 57.1205 51.6738 60.8093 52.3247 62.4386C52.6044 63.1393 53.3209 63.0965 53.8919 64.2103C54.4771 65.3496 54.2858 66.4833 54.2373 66.7425C54.1716 67.0786 53.9347 68.0784 53.0555 68.8931C52.8157 69.1153 52.3704 69.5169 51.6624 69.7106C50.5577 70.0097 49.6213 69.5824 49.3501 69.4428C48.7963 69.0298 48.0028 68.2949 47.7829 67.2239C47.4033 65.3781 49.0932 64.29 48.6565 62.6408C48.371 61.5641 47.3776 61.0001 45.9959 60.2168C44.4202 59.3224 42.5904 58.4479 40.7662 59.0461C39.3304 59.5161 38.14 62.4784 38.474 63.9511C38.6881 64.8939 40.6149 67.6711 40.8547 68.6054C41.2915 70.3031 42.2706 73.3908 41.2344 75.2223C39.7129 77.9055 35.2368 77.5666 33.0587 75.3818C30.8806 73.1971 30.5723 69.608 31.7456 66.7596C32.5135 64.8939 33.858 63.1706 33.2386 60.9802C32.9445 59.9376 31.9425 59.2084 30.8692 59.3765C29.2392 59.6329 28.9166 61.5783 28.477 63.0766C27.024 68.0414 20.5668 70.8015 15.9651 68.4231C14.9717 67.9104 14.0525 67.1726 13.5558 66.1728C12.7908 64.6233 13.2133 62.655 14.3408 61.3448C15.4684 60.0345 17.1898 59.3338 18.9111 59.1543C20.8123 58.9549 22.7963 59.3281 24.5433 58.2713C25.2541 57.8412 25.7822 57.1433 25.8993 56.3201C26.1619 54.4402 24.2464 53.4404 22.6136 53.5629C21.2491 53.6654 20.0016 54.3262 18.7141 54.7905C16.222 55.6906 13.4673 55.8644 10.881 55.2776C8.60301 54.762 6.02241 52.489 7.58961 50.4837C8.19194 49.7146 9.16823 49.3358 10.1417 49.4155L18.1204 50.0507C19.1823 50.1362 20.347 50.1989 21.0806 49.1763C21.7857 48.1936 21.6002 46.8434 20.7581 45.9718C19.051 44.2058 16.6245 44.5134 14.3979 44.633C8.86278 44.935 2.28854 42.9895 0.624288 37.7142C0.341678 36.8198 0.224638 35.8001 1.11243 35.0424C1.82324 34.4357 2.81665 34.316 3.70444 34.6066C5.50858 35.1962 6.49914 36.8483 7.82369 38.0816C8.5345 38.7425 10.5641 39.8904 12.0229 39.1527C13.2675 38.5232 13.9041 36.5577 13.3902 35.1535C12.8136 33.5754 11.2036 33.866 9.16252 31.7097C8.3518 30.8552 6.80458 29.2173 7.26704 27.588C7.58961 26.4572 8.79141 25.6397 9.93898 25.503C11.589 25.3093 12.8136 26.5626 13.2418 27.007C14.2495 28.0409 14.0126 28.6391 15.3799 30.7413C16.1079 31.8607 16.4732 32.4218 17.0813 32.7779V32.775Z" fill="white"/>
<path d="M16.8642 33.1426C17.8862 33.718 19.1194 33.8519 20.2584 33.5984C21.1833 33.3933 22.191 32.8492 22.525 31.9064C22.8761 30.9123 22.5821 29.6761 22.1939 28.7333C21.8313 27.8559 21.2861 27.0755 20.6409 26.3833C19.2365 24.8822 17.438 23.7969 15.7538 22.6405C14.0696 21.484 12.4196 20.282 11.4147 18.5273C10.2272 16.448 10.4613 13.8759 11.8429 11.9446C13.3074 9.8966 15.9079 9.1731 18.2859 9.87382C19.4334 10.2128 20.4896 10.8736 21.2461 11.8051C22.1453 12.9131 22.565 14.3259 22.8105 15.7074C23.2843 18.365 23.1816 21.1052 24.4604 23.5577C25.5195 25.5857 27.4864 27.3318 29.9271 26.8903C31.1203 26.6738 32.1194 25.7111 32.1508 24.4663C32.1794 23.2928 31.4201 22.2189 30.8377 21.2618C30.1954 20.2079 29.5474 19.0942 29.8329 17.8152C30.1183 16.5363 31.0547 15.545 32.3364 15.3229C33.6181 15.1007 34.9084 15.6362 35.5993 16.6873C36.3786 17.8722 36.3814 19.379 36.3243 20.7463C36.2216 23.1731 36.056 25.9788 38.3397 27.5198C39.3074 28.1721 40.6605 28.1522 41.5769 27.4144C42.4932 26.6767 42.6474 25.58 42.3876 24.5147C42.1278 23.4494 41.5312 22.5465 41.4313 21.4926C41.32 20.3133 42.3619 19.4502 43.5152 19.7863C44.7455 20.1452 45.3336 21.4669 45.4449 22.6405C45.5562 23.814 45.1994 25.0958 45.4192 26.3149C45.639 27.5341 46.7523 28.5253 48.0712 28.4399C49.39 28.3544 50.3977 27.4201 50.9115 26.295C51.9906 23.9308 51.4168 21.0453 50.6974 18.6641C49.901 16.0179 48.7078 13.4742 48.2225 10.7426C47.7372 8.01095 48.2282 5.43027 50.0694 3.42213C51.8364 1.49375 54.4713 0.491099 57.0719 0.975331C59.6724 1.45956 62.0304 3.26547 63.0038 5.79487C64.0714 8.57209 63.6689 11.6769 62.6955 14.4199C61.6136 17.4706 59.7952 20.1595 58.5134 23.1162C57.9054 24.5176 57.5828 26.0586 58.2965 27.4856C58.8531 28.5965 60.1834 29.2403 61.3824 28.8016C63.6604 27.967 62.901 24.9363 63.2893 23.1019C63.7803 20.7747 66.732 19.5129 68.753 20.7804C69.7265 21.39 70.3631 22.4696 70.5543 23.589C70.7798 24.9335 70.226 26.144 69.3839 27.1666C67.7311 29.1776 64.9307 31.1772 65.7585 34.1681C66.0754 35.3074 67.1316 36.2161 68.3477 36.179C69.5638 36.142 70.3231 35.3188 70.8084 34.3276C71.2937 33.3363 71.5534 32.1514 72.1472 31.1601C72.741 30.1689 73.5203 29.4197 74.448 28.8244C76.3378 27.611 78.7357 27.1438 80.9309 27.6736C85.7638 28.8415 88.2388 34.6124 86.7601 39.1272C86.3119 40.4973 85.5069 41.762 84.171 42.4057C82.9206 43.0096 81.4391 43.0295 80.0888 42.8358C77.0543 42.4029 74.1654 40.7593 71.0282 41.2606C69.815 41.4543 68.6246 42.0383 67.9452 43.0922C67.2658 44.1461 67.2743 45.5931 68.1364 46.5445C69.1613 47.6753 70.7684 47.2737 72.1072 47.1911C73.6516 47.0942 75.3101 47.117 76.7346 47.8006C77.8993 48.3589 78.9355 49.3245 79.2381 50.6149C79.5407 51.9052 78.9669 53.1215 78.0791 53.9817C75.9353 56.0639 72.6753 55.3034 70.5857 53.5516C69.5381 52.6743 68.8672 51.421 67.5084 50.9624C66.6349 50.669 65.6643 50.7972 65.0106 51.4779C64.3969 52.1188 64.1457 53.0674 64.1913 53.9361C64.2484 54.9957 64.7251 55.8902 65.5159 56.5909C66.5093 57.471 67.7596 57.9581 68.9786 58.4423C70.1975 58.9266 71.4764 59.5276 72.6097 60.3081C74.7478 61.7807 76.569 63.9597 77.0229 66.5718C77.4169 68.8363 76.7346 71.4027 75.0047 72.9722C72.7895 74.9803 69.4267 74.573 66.9689 73.2627C64.6224 72.0094 62.7469 69.9272 61.7135 67.4804C61.1369 66.1132 60.9199 64.6946 60.7658 63.2277C60.6116 61.7608 60.4346 60.2995 59.661 59.0377C59.0044 57.9667 57.9625 57.0865 56.6751 56.9583C55.616 56.8558 54.6112 57.3713 53.8261 58.0436C53.0411 58.7158 52.3874 59.6415 52.0277 60.6271C51.728 61.4446 51.6309 62.4643 52.2903 63.1366C52.6871 63.541 53.1553 63.7718 53.4493 64.2816C53.7976 64.8855 53.9175 65.5919 53.8689 66.2812C53.8004 67.2383 53.3094 68.1185 52.5844 68.7366C51.7308 69.4629 50.2578 69.668 49.3586 68.9018C48.3852 68.07 47.9056 66.9534 48.3452 65.7087C48.7078 64.6833 49.3358 63.7746 49.096 62.6352C48.8391 61.4218 47.7258 60.7182 46.7266 60.1372C44.6171 58.9123 41.2286 57.2118 39.3246 59.6558C38.648 60.5245 38.2027 61.624 38.0457 62.7121C37.9115 63.6436 38.1113 64.3557 38.5452 65.176C39.0448 66.1217 39.6243 67.0218 40.1181 67.9703C40.5692 68.8334 40.7576 69.8332 40.966 70.7789C41.2315 71.9809 41.4655 73.3425 41.0659 74.5416C40.7433 75.513 39.8955 76.1937 38.9335 76.4871C36.8639 77.1195 34.4032 76.339 33.0187 74.704C31.3087 72.6845 31.146 69.6965 31.9967 67.2839C32.4506 65.9992 33.2356 64.8513 33.6124 63.5325C33.9664 62.2849 33.9407 60.7268 33.0072 59.727C32.1965 58.8611 30.8063 58.6446 29.8186 59.3424C28.9337 59.9691 28.5883 61.0828 28.3085 62.0769C28.0002 63.1736 27.6662 64.1848 27.0039 65.1276C26.3417 66.0704 25.5452 66.7825 24.626 67.3693C22.7591 68.5628 20.4183 69.141 18.2173 68.7337C15.7624 68.2808 13.0933 66.4692 13.6728 63.6493C13.9611 62.245 14.8945 61.1284 16.1306 60.4362C17.4437 59.6985 18.8996 59.5304 20.3812 59.502C21.8627 59.4735 23.3785 59.4393 24.6888 58.6759C25.8021 58.0265 26.5443 56.7817 26.2988 55.4743C26.0962 54.4004 25.1912 53.6598 24.195 53.3294C22.8961 52.8965 21.5459 53.2326 20.3069 53.7026C18.7854 54.2836 17.3181 54.8733 15.6881 55.0784C14.0581 55.2834 12.4824 55.2179 10.938 54.8448C9.77903 54.5656 8.55153 53.8763 7.89782 52.8537C7.60094 52.3894 7.43537 51.8397 7.61807 51.2985C7.8236 50.6889 8.36884 50.2075 8.9626 49.9882C9.55637 49.7689 10.0959 49.8287 10.6782 49.8743L12.6965 50.0338C14.2779 50.1591 15.8594 50.2844 17.4409 50.4098C17.9062 50.4468 18.3743 50.4952 18.8397 50.5066C20.1385 50.5323 21.326 50.011 21.7885 48.7207C22.251 47.4303 21.6886 46.1485 20.7152 45.3339C19.7417 44.5192 18.4429 44.1632 17.1469 44.1062C15.8508 44.0492 14.6319 44.2201 13.373 44.223C12.1141 44.2258 10.958 44.129 9.77046 43.9125C7.51244 43.4995 5.22302 42.6791 3.46171 41.1666C2.63101 40.4517 1.93733 39.6 1.45204 38.6144C0.941063 37.5805 0.384408 36.048 1.54339 35.2391C2.70238 34.4301 4.26957 35.1394 5.2373 36.0024C6.14793 36.8142 6.84731 37.8625 7.81504 38.6116C8.71425 39.3066 9.91034 39.8478 11.0665 39.8051C12.2226 39.7624 13.1761 38.9847 13.6442 37.9137C14.1124 36.8427 14.1809 35.5951 13.6185 34.5925C13.1446 33.7493 12.2226 33.3819 11.4233 32.9233C10.31 32.2824 9.36796 31.3937 8.58008 30.3853C7.7922 29.377 7.16989 28.0354 8.10621 26.9302C8.94833 25.9332 10.3814 25.6285 11.5461 26.2124C12.2768 26.577 12.9991 27.2065 13.4301 27.9072C13.9183 28.7019 14.2066 29.6077 14.6862 30.411C15.2599 31.3709 15.8908 32.5359 16.8757 33.1369C17.3467 33.4246 17.7777 32.6869 17.3067 32.3992C16.87 32.1314 16.5674 31.7241 16.2848 31.3082C15.8623 30.6901 15.4483 30.0606 15.0972 29.3969C14.6804 28.6079 14.4178 27.7335 13.8526 27.0327C13.2389 26.2694 12.4196 25.6085 11.4975 25.2667C10.2672 24.8081 8.8998 25.1214 7.89782 25.9389C6.89584 26.7564 6.50761 28.0781 6.97292 29.3143C7.40682 30.4679 8.28034 31.4507 9.15672 32.2966C10.0331 33.1426 11.0922 33.6553 12.1255 34.2991C13.0476 34.8716 13.2988 35.897 13.0676 36.931C12.7992 38.1302 11.9571 39.0816 10.6468 38.9392C9.48786 38.8138 8.46589 38.1416 7.68087 37.3241C6.78166 36.3927 5.9795 35.3359 4.85477 34.6551C3.73005 33.9744 2.25991 33.7294 1.10949 34.5013C-1.14282 36.011 0.518576 39.1784 1.83742 40.7451C3.32754 42.5168 5.47994 43.6362 7.6723 44.2914C9.99598 44.9835 12.431 45.1687 14.846 45.0234C16.142 44.9465 17.4951 44.8297 18.7569 45.2199C20.0186 45.6102 21.2747 46.6556 21.0748 48.0741C20.7951 50.0765 18.5142 49.6436 17.0527 49.5268C15.4055 49.3957 13.7613 49.2647 12.1141 49.1337C10.7667 49.0254 9.26519 48.7121 8.05483 49.4926C7.04999 50.1392 6.43339 51.327 6.79878 52.5091C7.16418 53.6912 8.16616 54.5258 9.19097 55.0755C10.4556 55.7563 11.9343 55.9642 13.3559 56.024C14.9745 56.0924 16.6159 55.8873 18.166 55.4145C19.716 54.9416 21.092 54.0672 22.6706 53.9789C23.6754 53.9219 24.9372 54.3064 25.3682 55.3062C25.9763 56.7247 24.6289 57.9268 23.4042 58.3142C21.9341 58.7813 20.3612 58.5534 18.8482 58.7243C16.122 59.032 13.3473 60.6584 12.8306 63.5467C12.5937 64.8798 12.8992 66.1958 13.767 67.2468C14.5748 68.2267 15.7624 68.8961 16.9556 69.2892C19.0909 69.9956 21.4659 69.7734 23.5213 68.9103C25.5766 68.0472 27.3893 66.5091 28.3799 64.4981C28.8908 63.4613 29.0536 62.3248 29.476 61.2594C29.6587 60.798 29.9128 60.3109 30.3353 60.0261C30.8263 59.6957 31.4771 59.7042 31.9824 59.9947C33.2727 60.7382 33.0729 62.5612 32.6476 63.749C32.1822 65.0478 31.4086 66.21 31.0204 67.5431C30.2982 70.0354 30.5808 72.9323 32.1908 75.0287C33.5439 76.7891 35.8533 77.7433 38.0657 77.524C39.0933 77.4214 40.0953 77.0682 40.8661 76.3646C41.7339 75.5728 42.0907 74.4647 42.1221 73.3168C42.1564 72.0265 41.8595 70.7362 41.5369 69.4971C41.4227 69.0584 41.3314 68.6027 41.1629 68.184C40.9945 67.7652 40.7633 67.3494 40.5349 66.9449C40.0268 66.0419 39.4302 65.1618 39.022 64.2076C38.6509 63.3473 38.9363 62.3219 39.2675 61.4902C39.6671 60.4875 40.2837 59.5134 41.417 59.3225C43.0442 59.0462 44.6228 59.9207 45.9844 60.6954C46.9579 61.2509 48.3367 61.9231 48.3081 63.2334C48.2853 64.3272 47.4489 65.2472 47.329 66.3382C47.1862 67.6171 47.8771 68.7793 48.8391 69.5711C49.7383 70.3117 51.1228 70.4171 52.1819 69.9813C54.2372 69.1353 55.2392 66.5917 54.5112 64.538C54.2857 63.8999 53.9232 63.3445 53.3922 62.9229C53.0696 62.6666 52.7299 62.4672 52.6729 62.0257C52.553 61.1113 53.1581 60.0973 53.7034 59.4165C54.3314 58.636 55.2563 57.8556 56.304 57.8043C57.6257 57.7416 58.639 58.8212 59.1786 59.9178C59.8894 61.362 59.8694 63.0596 60.0806 64.6206C60.2633 65.9764 60.6516 67.2782 61.2596 68.5058C62.4272 70.87 64.3655 72.8867 66.7205 74.0916C69.2383 75.3791 72.5326 75.8035 74.9704 74.0973C76.9116 72.7357 77.9221 70.3886 77.9907 68.0643C78.0677 65.4865 76.8688 63.0853 75.0903 61.268C74.1512 60.3081 73.0521 59.4991 71.8846 58.8411C70.717 58.1831 69.4039 57.7331 68.1536 57.1833C67.0717 56.7077 65.7814 56.0468 65.2847 54.9017C64.9564 54.1441 64.9621 53.1642 65.3731 52.4379C65.8699 51.5577 66.8433 51.5007 67.6797 51.9565C68.3277 52.3068 68.7188 52.8851 69.2098 53.4092C69.7008 53.9333 70.2175 54.3662 70.7913 54.7565C73.0236 56.269 76.0552 56.7048 78.2818 54.9502C79.2581 54.1811 79.986 53.0588 80.1516 51.8169C80.3172 50.575 79.8205 49.2761 78.9441 48.3361C76.7746 46.0175 73.5117 46.2482 70.6228 46.459C69.9206 46.5103 69.1955 46.4761 68.7159 45.8865C68.3106 45.3852 68.2392 44.6987 68.4276 44.0948C68.8301 42.8102 70.226 42.2006 71.4678 42.0582C74.6193 41.6964 77.5682 43.4824 80.6626 43.753C82.0043 43.8698 83.3973 43.7359 84.6191 43.1406C85.9294 42.5025 86.8115 41.3261 87.3567 40.0045C89.2065 35.5296 87.2882 29.6704 82.8778 27.4714C78.8071 25.4433 73.1064 27.1153 71.1138 31.3025C70.6228 32.3308 70.4059 33.4958 69.7664 34.4529C69.127 35.41 67.7339 35.6435 66.9461 34.6409C66.0411 33.4873 66.5921 31.858 67.3257 30.7813C68.1393 29.5906 69.2869 28.682 70.1747 27.5512C70.9854 26.5143 71.5449 25.3123 71.465 23.9735C71.3936 22.8085 70.9226 21.6834 70.1347 20.8203C68.4704 18.9945 65.6957 19.0258 63.863 20.5868C62.9553 21.3615 62.5014 22.3955 62.3701 23.5634C62.2388 24.7312 62.3872 25.8506 62.0503 26.9273C61.6964 28.0639 60.3661 28.4655 59.4612 27.6252C58.2194 26.4716 58.8132 24.5005 59.4184 23.1959C60.7743 20.2763 62.5214 17.5532 63.5833 14.4968C64.5282 11.7709 64.9078 8.67178 63.9572 5.89172C63.0837 3.33098 61.0883 1.35987 58.5306 0.474008C55.9728 -0.411852 53.2581 -0.0387085 51.0685 1.44817C48.879 2.93505 47.4917 5.24797 47.2405 7.86283C46.9893 10.4777 47.9313 13.2777 48.8362 15.8128C49.7583 18.3935 50.7774 21.071 50.6204 23.8567C50.5519 25.0645 50.2036 26.4289 49.1616 27.1638C47.9598 28.0126 46.4183 27.4742 46.2385 25.9674C46.0901 24.7227 46.4497 23.4864 46.2613 22.236C46.0729 20.9855 45.5106 19.9231 44.4601 19.2822C43.4095 18.6413 42.025 18.7182 41.1886 19.6411C40.4236 20.4871 40.495 21.6036 40.829 22.6205C41.143 23.5748 41.7653 24.603 41.6597 25.6399C41.534 26.8647 40.1524 27.4486 39.0933 26.9587C37.9201 26.4118 37.3463 25.0901 37.1893 23.8795C37.0237 22.5892 37.2064 21.2903 37.2121 19.9943C37.2178 18.627 37.0437 17.1658 36.1987 16.0378C35.4508 15.038 34.2547 14.4655 33.0129 14.4256C30.4152 14.343 28.417 16.9094 29.0279 19.4132C29.3248 20.638 30.1412 21.6663 30.7435 22.7487C31.2887 23.7314 31.7055 25.0274 30.538 25.7623C29.5331 26.3947 28.1686 26.1212 27.2294 25.5088C26.2303 24.8565 25.5281 23.814 25.0314 22.7516C23.8438 20.2022 24.1207 17.2854 23.4699 14.5994C23.1502 13.2805 22.5992 11.993 21.6772 10.9819C20.8665 10.0903 19.7903 9.44655 18.6427 9.08765C16.2876 8.34991 13.6271 8.85693 11.8658 10.6258C10.1644 12.3349 9.39365 14.9611 10.0045 17.3054C11.0893 21.4698 15.6596 23.2985 18.7169 25.7652C20.1699 26.9359 21.4488 28.3744 21.7685 30.2686C21.8484 30.7414 21.9084 31.3339 21.6743 31.7782C21.4631 32.177 21.0263 32.4448 20.621 32.6071C19.5762 33.023 18.3001 32.9603 17.3181 32.4077C16.8386 32.1371 16.4046 32.8749 16.8871 33.1455L16.8642 33.1426Z" fill="white"/>
<path d="M41.8706 15.4566C41.3282 14.904 40.9542 14.1919 40.8001 13.4313C40.7487 13.1721 40.7259 12.8873 40.86 12.6594C40.9942 12.4315 41.3396 12.3176 41.5309 12.4999C41.6393 12.6024 41.6679 12.762 41.6907 12.9072C41.8106 13.6621 41.7507 14.7017 41.8706 15.4537" fill="white"/>
<path d="M42.1734 15.1548C41.8908 14.8614 41.6681 14.5423 41.4826 14.155C41.4112 14.004 41.3427 13.8188 41.2856 13.6252C41.2257 13.4201 41.1828 13.252 41.1857 13.0612C41.1857 13.0355 41.1857 13.0127 41.1886 12.9871C41.1886 12.9985 41.18 13.0298 41.1914 12.9786C41.2057 12.913 41.2 12.9244 41.2257 12.876C41.2257 12.8703 41.2628 12.8219 41.2371 12.8589C41.2114 12.896 41.2514 12.8475 41.2571 12.8475C41.2571 12.8475 41.2 12.8846 41.2485 12.8589C41.2542 12.8561 41.3256 12.8162 41.2828 12.839C41.2514 12.8561 41.3227 12.8589 41.2828 12.839C41.2542 12.8247 41.2713 12.839 41.2999 12.839C41.2913 12.839 41.2285 12.819 41.2742 12.8361C41.3227 12.8532 41.2571 12.8276 41.2542 12.8276C41.2171 12.7906 41.22 12.7735 41.2371 12.8247C41.22 12.7792 41.2571 12.9073 41.2599 12.9358C41.2685 12.9786 41.2742 13.0241 41.2828 13.0669C41.2742 13.0013 41.2885 13.1096 41.2885 13.1267C41.2999 13.2349 41.3084 13.3403 41.317 13.4485C41.3313 13.6593 41.3398 13.873 41.3456 14.0837C41.3627 14.5822 41.3798 15.0778 41.454 15.5706C41.4883 15.7985 41.7766 15.9238 41.9821 15.8697C42.2276 15.8013 42.3161 15.5735 42.2819 15.3428C42.2676 15.2573 42.2762 15.3086 42.279 15.3285C42.2762 15.3 42.2705 15.2687 42.2676 15.2402C42.2619 15.1804 42.2562 15.1177 42.2505 15.0579C42.2391 14.9297 42.2334 14.8044 42.2276 14.6762C42.2162 14.4113 42.2077 14.1464 42.1991 13.8844C42.1905 13.6223 42.1763 13.3773 42.1477 13.1238C42.1192 12.8589 42.0963 12.5627 41.9422 12.3348C41.5739 11.7908 40.7489 11.936 40.4663 12.4886C40.198 13.0127 40.375 13.6736 40.5777 14.1948C40.8032 14.7788 41.1343 15.3086 41.5682 15.7586C41.7281 15.9238 42.0135 15.921 42.1734 15.7586C42.3333 15.5963 42.3333 15.32 42.1734 15.1548Z" fill="white"/>
<path d="M44.7144 15.8411C44.6602 15.5392 44.6088 15.223 44.7087 14.9353C44.8086 14.6476 45.1255 14.4084 45.4166 14.5052C45.2625 15.0265 45.0598 15.5335 44.8115 16.0177" fill="white"/>
<path d="M45.1281 15.7272C45.1138 15.6474 45.0995 15.5677 45.0881 15.4851L45.1024 15.599C45.0824 15.448 45.071 15.2942 45.0881 15.1404L45.0738 15.2543C45.0853 15.1746 45.1081 15.1034 45.1309 15.0265C45.1024 15.1319 45.1024 15.0948 45.1195 15.0606C45.1281 15.0436 45.1366 15.0293 45.1452 15.0122C45.1452 15.0094 45.168 14.9752 45.168 14.9752C45.168 14.9752 45.091 15.0663 45.1481 15.0008C45.1709 14.9752 45.1937 14.9553 45.2166 14.9325C45.2594 14.8926 45.1852 14.9524 45.1795 14.9581C45.188 14.9467 45.2109 14.9353 45.2251 14.9296C45.2394 14.9239 45.2508 14.9154 45.2622 14.9097C45.3336 14.8727 45.2365 14.9268 45.228 14.9239C45.2423 14.9296 45.3108 14.9011 45.3279 14.8983L45.2137 14.9125C45.2537 14.9068 45.2936 14.9068 45.3365 14.9125L45.2223 14.8983C45.2508 14.9011 45.2765 14.9097 45.3051 14.9154L45.0053 14.3884C44.9282 14.6448 44.8426 14.8983 44.7427 15.1461C44.7313 15.1774 44.717 15.2059 44.7056 15.2373C44.6999 15.2543 44.6913 15.2714 44.6827 15.2885C44.7056 15.2344 44.7113 15.2202 44.6999 15.2515C44.6742 15.3113 44.6485 15.3711 44.6199 15.4309C44.5629 15.5534 44.5029 15.6759 44.443 15.7984C44.3402 15.9978 44.383 16.2712 44.5971 16.3823C44.7912 16.4849 45.0738 16.4421 45.1823 16.2285C45.4449 15.7101 45.6647 15.1689 45.8303 14.6134C45.896 14.3884 45.7504 14.152 45.5306 14.0865C45.0824 13.9526 44.6085 14.2147 44.3887 14.6077C44.1546 15.0236 44.2203 15.505 44.3002 15.9522C44.3174 16.0519 44.4116 16.1573 44.4972 16.2086C44.5885 16.2627 44.7256 16.2855 44.8283 16.2513C45.0653 16.1744 45.1709 15.9608 45.1281 15.7243V15.7272Z" fill="white"/>
<path d="M25.5825 13.457C25.0943 12.517 24.8688 11.4432 24.9402 10.3864C24.9716 9.92212 25.2028 9.3382 25.6681 9.36668C25.9307 9.38377 26.142 9.61734 26.2133 9.87085C26.2847 10.1244 26.2505 10.395 26.2162 10.657C26.0849 11.6454 25.7138 12.4686 25.5825 13.4542" fill="white"/>
<path d="M25.9505 13.2406C25.6364 12.6254 25.4309 11.9417 25.3738 11.2524C25.3481 10.9476 25.331 10.5631 25.3767 10.2982C25.3967 10.1786 25.4366 10.0447 25.4851 9.95353C25.5194 9.89086 25.5251 9.87662 25.5594 9.84244C25.5879 9.81395 25.5936 9.80541 25.605 9.80256C25.6079 9.80256 25.6336 9.78262 25.6678 9.79971C25.6536 9.79402 25.705 9.83389 25.7107 9.83674C25.7934 9.9051 25.8163 10.0219 25.8248 10.1216C25.8563 10.4662 25.7649 10.8394 25.6878 11.1727C25.5223 11.899 25.2711 12.6054 25.1683 13.346C25.1369 13.5739 25.2254 13.8046 25.468 13.873C25.6678 13.9271 25.9619 13.8046 25.9961 13.5739C26.096 12.8561 26.333 12.1753 26.4985 11.4717C26.6641 10.7682 26.8754 9.9108 26.3901 9.31833C25.939 8.76573 25.174 8.87397 24.7972 9.43796C24.4461 9.96492 24.466 10.6913 24.5203 11.2923C24.5945 12.1297 24.8286 12.9301 25.2111 13.6764C25.3167 13.8815 25.605 13.9413 25.7963 13.8302C26.0047 13.7078 26.0561 13.4514 25.9505 13.2463V13.2406Z" fill="white"/>
<path d="M9.79317 21.7943C8.78834 21.7032 7.81491 21.2816 7.05843 20.6094C6.86716 20.4385 6.68447 20.2448 6.60739 20.0027C6.53032 19.7606 6.58741 19.4558 6.80151 19.3162C7.13836 19.0912 7.57512 19.376 7.872 19.6466C8.52857 20.2419 9.16515 21.1734 9.79317 21.7972" fill="white"/>
<path d="M9.79318 21.3672C9.33073 21.3216 8.80833 21.1792 8.38013 20.9741C7.9291 20.7576 7.46665 20.4756 7.14407 20.0911C7.09554 20.0341 7.04416 19.9572 7.02132 19.8888C7.01276 19.8632 7.00419 19.8347 7.00134 19.8062C7.00419 19.829 7.00705 19.8746 7.00419 19.792C7.00419 19.792 7.00705 19.7208 7.00419 19.7635C7.00134 19.8062 7.01847 19.7065 7.02132 19.6951C7.01276 19.7208 6.98707 19.7379 7.02989 19.6837C7.02418 19.6923 6.99848 19.7265 7.02418 19.6866C7.05843 19.6382 6.98136 19.7065 7.03845 19.6723C7.08127 19.6467 7.04987 19.6638 7.03845 19.6667C7.08698 19.6382 7.08983 19.6524 7.05558 19.661C7.06414 19.661 7.13836 19.6667 7.07556 19.6581C7.0984 19.661 7.12123 19.6695 7.14407 19.6752C7.15549 19.678 7.24113 19.7122 7.20116 19.6923C7.42383 19.7891 7.57798 19.9486 7.74926 20.1196C7.93766 20.3075 8.11465 20.5098 8.28878 20.712C8.68558 21.1763 9.05668 21.6634 9.48773 22.0935C9.87882 22.4837 10.484 21.8799 10.0929 21.4896C9.63617 21.031 9.24509 20.5126 8.8226 20.0227C8.42295 19.5613 7.93195 18.9631 7.30393 18.8292C6.92141 18.7495 6.53032 18.8805 6.31052 19.2109C6.13353 19.473 6.09927 19.8404 6.20204 20.1366C6.42185 20.769 7.07842 21.2276 7.64078 21.5466C8.30306 21.9255 9.03384 22.1448 9.79318 22.2188C10.0244 22.2416 10.2214 22.0052 10.2214 21.7916C10.2214 21.5409 10.0244 21.3871 9.79318 21.3643V21.3672Z" fill="white"/>
<path d="M4.8521 32.2112L3.39623 31.4307C3.12218 31.2826 2.81959 31.1003 2.75679 30.7955C2.68542 30.4508 2.99943 30.109 3.35055 30.0663C3.70168 30.0236 4.14985 30.1632 4.26975 30.4936C4.65798 31.5446 4.90062 32.9632 4.73505 31.8836" fill="white"/>
<path d="M5.06884 31.8437C4.56642 31.5731 4.05829 31.3082 3.55873 31.0348C3.47024 30.9864 3.3846 30.9322 3.30181 30.8753C3.24757 30.8382 3.37603 30.9436 3.30181 30.8753C3.28754 30.861 3.27041 30.8468 3.25614 30.8325C3.24187 30.8183 3.19905 30.787 3.19334 30.7642L3.22474 30.8041C3.21332 30.787 3.2019 30.7699 3.19334 30.7528C3.1391 30.6787 3.20761 30.8126 3.19334 30.7585C3.19334 30.7471 3.16479 30.6901 3.17335 30.6844C3.18477 30.6759 3.17335 30.7813 3.17906 30.7101V30.6816C3.18192 30.6332 3.17906 30.6417 3.17335 30.7072C3.17335 30.7072 3.19048 30.6474 3.18763 30.6502C3.21046 30.5591 3.15052 30.7044 3.18477 30.6588C3.19334 30.6474 3.21046 30.5961 3.22188 30.5961C3.18477 30.6417 3.17906 30.6474 3.21046 30.6104L3.23045 30.5876C3.24757 30.5705 3.27327 30.5363 3.2961 30.5249C3.28754 30.5278 3.21332 30.5733 3.28468 30.5392C3.30752 30.5278 3.33036 30.5164 3.35034 30.5021C3.40173 30.4708 3.25328 30.5306 3.34749 30.505C3.36747 30.4993 3.38745 30.4964 3.40743 30.4907C3.31323 30.4907 3.50164 30.4623 3.40743 30.4907C3.45882 30.4907 3.5102 30.4907 3.56158 30.4907C3.60726 30.4936 3.62724 30.5192 3.54731 30.4879C3.56158 30.4936 3.58728 30.4964 3.6044 30.4993C3.65293 30.5107 3.69861 30.5249 3.74428 30.5392C3.66435 30.4907 3.83563 30.5705 3.74428 30.5392C3.76141 30.5477 3.77854 30.5563 3.79281 30.5648L3.81565 30.579C3.84705 30.599 3.84705 30.599 3.81565 30.579C3.7871 30.5563 3.7871 30.5563 3.81565 30.579C3.82992 30.5904 3.84134 30.6047 3.85276 30.6161C3.89843 30.6559 3.82421 30.6161 3.83563 30.5904C3.83563 30.5904 3.86703 30.6417 3.86989 30.6474C3.907 30.6816 3.83278 30.542 3.86418 30.636C3.87274 30.6616 3.88416 30.6873 3.89272 30.7129C3.93269 30.824 3.96694 30.9351 4.00405 31.0462C4.06686 31.2513 4.1268 31.4564 4.18104 31.6614C4.22957 31.8409 4.27524 32.0203 4.32092 32.1998C4.36374 32.3707 4.40085 32.5331 4.56927 32.6356C4.7377 32.7381 4.94609 32.6954 5.08882 32.5701C5.30577 32.3735 5.18587 32.0118 5.14591 31.7697C5.11165 31.5475 4.82048 31.4051 4.6178 31.4706C4.37516 31.5475 4.28095 31.7583 4.31806 31.9976C4.33234 32.0887 4.34661 32.1799 4.35803 32.2682C4.36659 32.3194 4.34376 32.1457 4.34947 32.2055C4.34947 32.2169 4.34947 32.2254 4.35232 32.2368C4.36088 32.2909 4.32948 32.3137 4.36945 32.1571L4.48078 31.9691C4.65491 31.9463 4.82619 31.9263 5.00032 31.9036C5.05171 31.9548 5.10309 32.0061 5.15447 32.0574C5.18873 32.1086 5.203 32.1912 5.18588 32.1286C5.18302 32.1115 5.17731 32.0973 5.1716 32.0802C5.15447 32.0146 5.13735 31.952 5.12307 31.8865C5.07454 31.6871 5.02316 31.4905 4.96892 31.294C4.90327 31.0604 4.83475 30.8297 4.75768 30.6018C4.712 30.4708 4.67204 30.3312 4.60353 30.2087C4.5236 30.0663 4.4037 29.9524 4.26954 29.8612C4.04402 29.7074 3.7557 29.6391 3.48736 29.6362C3.17906 29.6334 2.89645 29.7388 2.66523 29.9438C2.434 30.1489 2.29127 30.4651 2.32267 30.7699C2.35693 31.1288 2.57103 31.3937 2.85363 31.6045C3.10199 31.7868 3.39316 31.9178 3.66435 32.0631L4.63493 32.5843C4.8319 32.6897 5.1088 32.6413 5.22013 32.4305C5.33146 32.2197 5.27722 31.9577 5.06598 31.8466L5.06884 31.8437Z" fill="white"/>
<path d="M66.9545 15.938C66.9031 15.4652 66.8489 14.9838 66.9431 14.5195C67.0373 14.0552 67.2942 13.5966 67.7195 13.383C67.8023 13.3403 67.8965 13.3089 67.9879 13.3317C68.1906 13.3858 68.2248 13.6564 68.1963 13.8644C68.0735 14.7588 67.534 15.1575 67.0544 15.9266" fill="white"/>
<path d="M67.3829 15.938C67.3573 15.7187 67.3344 15.4965 67.3258 15.2744C67.3201 15.169 67.3201 15.0607 67.3258 14.9553C67.3258 14.8984 67.3316 14.8414 67.3373 14.7844C67.3373 14.7588 67.3401 14.736 67.3458 14.7104C67.3401 14.7531 67.3515 14.6876 67.3515 14.679C67.3687 14.5936 67.3858 14.5081 67.4115 14.4255C67.4258 14.3828 67.44 14.3401 67.4572 14.2973C67.4572 14.2916 67.4857 14.2347 67.4657 14.2774C67.4457 14.3201 67.4829 14.2461 67.4857 14.2404C67.5228 14.1663 67.5656 14.0951 67.6142 14.0239C67.6142 14.021 67.6541 13.9698 67.6256 14.0068C67.5942 14.0467 67.6456 13.984 67.6541 13.9755C67.6827 13.9413 67.7141 13.91 67.7483 13.8815C67.7683 13.8644 67.7854 13.8473 67.8054 13.8302C67.7997 13.8359 67.754 13.8644 67.794 13.8387C67.8283 13.8188 67.8568 13.796 67.8911 13.7789C67.9082 13.7704 67.9253 13.759 67.9424 13.7504C67.8968 13.7704 67.9653 13.7419 67.971 13.7447C67.931 13.7362 67.8968 13.7476 67.8568 13.7334C67.8454 13.7277 67.7769 13.6764 67.8026 13.6992C67.8397 13.7334 67.7769 13.6536 67.7712 13.6479C67.7455 13.6137 67.7683 13.6308 67.7712 13.6536C67.7826 13.702 67.7769 13.7362 67.7797 13.6678C67.7797 13.7077 67.7797 13.7447 67.7797 13.7846C67.7797 13.8017 67.7797 13.816 67.7769 13.833C67.7797 13.7846 67.7826 13.796 67.7769 13.8387C67.7598 13.927 67.7426 14.0125 67.7169 14.1008C67.7027 14.1435 67.6884 14.1891 67.6741 14.2318C67.6684 14.2489 67.6598 14.266 67.6541 14.2859C67.6313 14.3486 67.6827 14.2318 67.6541 14.2859C67.5799 14.4341 67.5028 14.5765 67.4086 14.7161C67.1803 15.055 66.9119 15.3655 66.695 15.713C66.5751 15.9039 66.6493 16.1915 66.8491 16.2969C67.0604 16.408 67.3087 16.3454 67.4343 16.1431C67.6627 15.7814 67.9453 15.4567 68.1794 15.1006C68.4334 14.7132 68.6104 14.266 68.6418 13.8046C68.659 13.5567 68.5933 13.2805 68.4135 13.0982C68.1594 12.8418 67.7969 12.8703 67.4971 13.0241C67.0575 13.252 66.7663 13.6878 66.6093 14.1435C66.4124 14.7218 66.4695 15.3456 66.5351 15.938C66.5608 16.1602 66.715 16.3767 66.9633 16.3653C67.1746 16.3568 67.4172 16.1773 67.3915 15.938H67.3829Z" fill="white"/>
<path d="M69.0844 17.2825C69.1586 16.9607 69.25 16.6075 69.5183 16.4166C69.7866 16.2258 70.2577 16.3596 70.2748 16.6901C70.3119 17.4079 69.3185 17.274 69.0815 17.2825" fill="white"/>
<path d="M69.4984 17.3965C69.5355 17.2398 69.5726 17.0803 69.6354 16.9293L69.5926 17.0319C69.6297 16.9464 69.6725 16.8638 69.7296 16.7898L69.664 16.8752C69.7039 16.824 69.7467 16.7784 69.7981 16.7385L69.7125 16.804C69.7467 16.7784 69.7839 16.7556 69.8238 16.7356L69.721 16.7784C69.7639 16.7613 69.8067 16.7499 69.8524 16.7413L69.7382 16.7556C69.7924 16.7499 69.8467 16.7499 69.9009 16.7556L69.7867 16.7413C69.8352 16.7499 69.8809 16.7613 69.9266 16.7812L69.8238 16.7385C69.8581 16.7556 69.8923 16.7727 69.9237 16.7955L69.8381 16.73C69.8638 16.7499 69.8866 16.7727 69.9095 16.8012L69.8438 16.7157C69.8609 16.7385 69.8752 16.7641 69.8866 16.7898L69.8438 16.6872C69.8552 16.7157 69.8638 16.7442 69.8666 16.7727L69.8524 16.6587C69.8581 16.7072 69.8552 16.7556 69.8524 16.8012L69.8666 16.6872C69.8609 16.7328 69.8495 16.7755 69.8324 16.8183L69.8752 16.7157C69.8609 16.7499 69.8409 16.7812 69.8181 16.8126L69.8838 16.7271C69.8581 16.7584 69.8324 16.7869 69.801 16.8097L69.8866 16.7442C69.8438 16.7784 69.7953 16.804 69.7467 16.824L69.8495 16.7812C69.761 16.8183 69.6668 16.8382 69.5698 16.8524L69.6839 16.8382C69.4841 16.8638 69.2871 16.8439 69.0873 16.8496C68.8647 16.8553 68.6477 17.0404 68.6591 17.2769C68.6705 17.5133 68.8475 17.7098 69.0873 17.7041C69.2529 17.6984 69.4213 17.7155 69.5869 17.7041C69.8952 17.6785 70.1949 17.6073 70.4319 17.3936C70.5518 17.2854 70.646 17.1202 70.6802 16.9607C70.7259 16.7442 70.7202 16.5049 70.6003 16.3112C70.4804 16.1175 70.2863 15.9837 70.0722 15.9295C69.8381 15.8697 69.6069 15.8982 69.3899 15.9951C69.173 16.0919 68.9988 16.2998 68.8961 16.5078C68.7933 16.7157 68.7276 16.9379 68.6763 17.1629C68.6506 17.274 68.662 17.3908 68.7191 17.4933C68.7705 17.5816 68.8732 17.6671 68.976 17.6899C69.1929 17.7383 69.4499 17.6244 69.5041 17.3908L69.4984 17.3965Z" fill="white"/>
<path d="M76.3574 58.5733C76.857 59.0347 77.7334 59.4591 78.2329 59.9206C78.3614 60.0402 78.5526 60.1655 78.6982 60.0687C78.8923 59.9405 78.7353 59.6386 78.5583 59.4876C77.9417 58.9663 77.1624 58.6416 76.3574 58.5733Z" fill="white"/>
<path d="M76.0551 58.8753C76.3862 59.1772 76.7687 59.4165 77.1427 59.6558C77.3311 59.7783 77.5195 59.8979 77.6993 60.0318C77.7193 60.046 77.7364 60.0603 77.7564 60.0745C77.745 60.066 77.6908 60.0232 77.7536 60.0716C77.7878 60.1001 77.8221 60.1286 77.8563 60.1571C77.9562 60.2426 78.0504 60.3337 78.1618 60.4021C78.4758 60.5958 78.8897 60.5673 79.1095 60.2482C79.2694 60.0175 79.2266 59.7241 79.1009 59.4877C78.9753 59.2513 78.7641 59.1003 78.5586 58.9494C78.3816 58.8183 78.1903 58.7044 77.9933 58.6047C77.4767 58.3483 76.9314 58.1974 76.3576 58.1461C76.135 58.1262 75.9209 58.3569 75.9294 58.5734C75.9409 58.8212 76.1179 58.9778 76.3576 59.0006C76.4033 59.0035 76.449 59.0092 76.4947 59.0149C76.429 59.0035 76.5632 59.0234 76.4947 59.0149C76.5146 59.0177 76.5346 59.0206 76.5518 59.0234C76.6488 59.0405 76.743 59.0605 76.8372 59.0832C77.0199 59.1288 77.1998 59.1886 77.3767 59.257C77.3054 59.2314 77.3682 59.2541 77.3825 59.257C77.4053 59.2684 77.431 59.2769 77.4538 59.2883C77.4881 59.3054 77.5252 59.3225 77.5594 59.3396C77.6536 59.3852 77.745 59.4364 77.8335 59.4906C77.9106 59.5361 77.9876 59.5874 78.0619 59.6387C78.099 59.6643 78.1361 59.6928 78.1732 59.7184C78.2132 59.7469 78.1703 59.7184 78.1646 59.7127C78.1903 59.7327 78.216 59.7526 78.2389 59.7754C78.2674 59.7982 78.2931 59.8238 78.3188 59.8495C78.3245 59.8552 78.3587 59.8979 78.3245 59.8552C78.2874 59.8096 78.3273 59.8637 78.3359 59.8751C78.3445 59.8893 78.3502 59.9007 78.3587 59.915C78.4044 59.9919 78.3473 59.895 78.353 59.895C78.353 59.895 78.3645 59.9321 78.3645 59.9349C78.373 59.9691 78.3702 59.952 78.3587 59.8893L78.3702 59.8267C78.3616 59.8666 78.3445 59.8609 78.3844 59.7925C78.4073 59.7555 78.4644 59.7042 78.5015 59.6871C78.5329 59.6729 78.57 59.6814 78.5957 59.6729C78.667 59.6501 78.5786 59.69 78.5871 59.6643C78.5928 59.6529 78.6785 59.7184 78.5928 59.6586C78.5871 59.6558 78.5357 59.6216 78.5757 59.6501C78.6157 59.6786 78.5557 59.633 78.5471 59.6244C78.53 59.6102 78.5158 59.596 78.4986 59.5789C78.216 59.3254 77.8934 59.1174 77.5737 58.9123C77.4024 58.8041 77.234 58.693 77.0656 58.5791C77.0256 58.5506 76.9857 58.525 76.9457 58.4965C76.9257 58.4822 76.9057 58.468 76.8886 58.4537C76.88 58.448 76.8001 58.3882 76.8486 58.4224C76.8886 58.4537 76.8429 58.4167 76.8372 58.4139C76.8144 58.3968 76.7944 58.3797 76.7716 58.3597C76.7345 58.3284 76.6973 58.2971 76.6602 58.2629C76.4947 58.1119 76.2149 58.0891 76.0551 58.2629C75.9038 58.4281 75.8781 58.7072 76.0551 58.8668V58.8753Z" fill="white"/>
<path d="M78.9927 57.1205C79.2896 57.0921 79.6892 57.7045 79.989 57.7272C80.2887 57.75 80.6512 57.5022 80.5428 57.2259C80.4771 57.0579 80.2744 56.9895 80.0917 56.9667C79.7206 56.9211 79.3381 56.9753 78.9927 57.1205Z" fill="white"/>
<path d="M78.9926 57.5479C78.9926 57.5479 79.0126 57.5479 79.024 57.5479C79.0697 57.545 78.8984 57.5166 78.9555 57.5393C78.9726 57.545 78.9926 57.5536 79.0097 57.5564C78.9041 57.5336 78.9184 57.5166 78.9612 57.5393C78.9698 57.545 78.9812 57.5507 78.9898 57.5564C79.0155 57.5707 79.0383 57.5878 79.0611 57.602C78.9783 57.5336 79.1468 57.6618 79.0611 57.602C79.0811 57.6191 79.1011 57.6333 79.1211 57.6504C79.1696 57.6932 79.2181 57.7359 79.2695 57.7786C79.5036 57.9808 79.7605 58.1831 80.0888 58.1546C80.5255 58.1147 80.9395 57.8327 80.9852 57.3713C81.0308 56.9098 80.6198 56.6221 80.2258 56.5595C79.7748 56.4911 79.3009 56.5338 78.8784 56.7104C78.7699 56.756 78.6843 56.8016 78.6215 56.907C78.5673 56.9981 78.5444 57.1349 78.5787 57.2374C78.6129 57.3399 78.6757 57.4396 78.7757 57.4938C78.8756 57.5479 79.0012 57.5792 79.1068 57.5365C79.2495 57.4767 79.398 57.4311 79.5493 57.4026C79.5664 57.3998 79.5864 57.3969 79.6035 57.3941C79.6606 57.3827 79.515 57.4026 79.5721 57.3969C79.6092 57.3941 79.6463 57.3884 79.6834 57.3855C79.7634 57.3798 79.8433 57.3798 79.9232 57.3827C79.9603 57.3827 79.9974 57.3855 80.0346 57.3912C80.0517 57.3912 80.0745 57.3912 80.0916 57.3969C80.0916 57.3969 79.9746 57.377 80.0403 57.3912C80.0688 57.3969 80.0974 57.4026 80.1259 57.4112C80.1402 57.414 80.1544 57.4197 80.1687 57.4226C80.2372 57.4425 80.0916 57.3827 80.1345 57.4083C80.1516 57.4169 80.2344 57.4738 80.1716 57.4226C80.0888 57.357 80.2315 57.4995 80.1659 57.4169C80.1231 57.3627 80.1516 57.3998 80.1602 57.4169C80.1773 57.451 80.1345 57.3627 80.1373 57.3627C80.1402 57.3627 80.1459 57.3941 80.1459 57.3998C80.1373 57.32 80.1345 57.2972 80.1345 57.3314C80.1345 57.3399 80.1345 57.3485 80.1345 57.357C80.1345 57.357 80.1516 57.2346 80.1402 57.2944C80.1316 57.3314 80.1002 57.3229 80.163 57.2403C80.1573 57.2488 80.1487 57.263 80.1459 57.2716C80.1288 57.3029 80.1031 57.2915 80.1801 57.2289C80.1716 57.2346 80.1373 57.2858 80.1259 57.283C80.1202 57.283 80.223 57.2175 80.1659 57.2516C80.1516 57.2602 80.1373 57.2687 80.1231 57.2773C80.1116 57.283 80.0974 57.2887 80.0859 57.2972C80.0517 57.3172 80.1402 57.2744 80.1402 57.2744C80.1231 57.2716 80.0802 57.2944 80.0602 57.3001C80.0488 57.3029 80.0317 57.3058 80.0203 57.3086C80.1088 57.2744 80.1145 57.3001 80.0717 57.3001C80.0574 57.3001 80.046 57.3001 80.0317 57.3001C79.9718 57.3001 79.9717 57.2744 80.0802 57.3115C80.0631 57.3058 80.046 57.3001 80.0288 57.2972C79.9718 57.283 80.1402 57.3542 80.0631 57.3086C80.0231 57.2858 79.9889 57.263 79.9518 57.2346C79.9004 57.2004 79.9974 57.2687 79.9946 57.2687C79.9946 57.2687 79.9689 57.2488 79.966 57.2459C79.9461 57.2289 79.9261 57.2146 79.909 57.1975C79.8633 57.1605 79.8205 57.1206 79.7776 57.0836C79.5635 56.8984 79.3038 56.6734 78.9983 56.6934C78.7757 56.7076 78.5587 56.8785 78.5701 57.1206C78.5787 57.34 78.7585 57.5621 78.9983 57.5479H78.9926Z" fill="white"/>
<path d="M55.7757 67.9189C55.6672 69.0868 56.1182 70.2917 56.9661 71.1006C57.0774 71.206 57.2087 71.3114 57.3629 71.3143C57.6141 71.3143 57.7854 71.0266 57.7568 70.7759C57.7283 70.5252 57.5598 70.3173 57.4 70.1236C56.8605 69.4713 56.3152 68.5712 55.7757 67.9161" fill="white"/>
<path d="M55.3475 67.919C55.2447 69.1382 55.6929 70.3858 56.5322 71.2716C56.7634 71.5166 57.046 71.7616 57.4086 71.7388C57.7711 71.716 58.048 71.4454 58.1479 71.1121C58.3506 70.4342 57.7511 69.9101 57.3886 69.4145C56.949 68.8163 56.5493 68.1896 56.0755 67.6143C55.9299 67.4348 55.6216 67.4633 55.4703 67.6143C55.2933 67.7909 55.3247 68.0387 55.4703 68.2181C55.7928 68.6141 56.0783 69.0385 56.3723 69.4572C56.5236 69.6737 56.6778 69.8901 56.8405 70.0981C56.9889 70.2918 57.1716 70.4741 57.2858 70.6877C57.3201 70.7532 57.3401 70.813 57.3343 70.8615C57.3401 70.8273 57.3486 70.8301 57.3258 70.8814C57.3315 70.8729 57.3458 70.8387 57.3258 70.8814C57.3058 70.9241 57.3258 70.8928 57.3286 70.8842C57.3058 70.9241 57.2887 70.8985 57.3172 70.8985C57.4228 70.8985 57.3715 70.8785 57.3343 70.8472C57.2373 70.7732 57.1545 70.6735 57.0717 70.5852C56.7834 70.2604 56.5465 69.856 56.4037 69.4515C56.2239 68.9416 56.1639 68.4545 56.2096 67.9162C56.2296 67.6855 55.9984 67.4889 55.7814 67.4889C55.5331 67.4889 55.3732 67.6855 55.3532 67.9162L55.3475 67.919Z" fill="white"/>
<path d="M53.4125 71.6162C53.5438 72.0235 53.3897 72.4622 53.4125 72.8894C53.4353 73.3167 53.8179 73.7981 54.2118 73.6329C54.5743 73.479 54.5487 72.9379 54.3403 72.6046C54.1319 72.2713 53.4924 72.0036 53.4125 71.6162Z" fill="white"/>
<path d="M52.9985 71.7302C53.0071 71.7587 53.0157 71.7872 53.0214 71.8185C53.0271 71.8441 53.0528 71.9182 53.0271 71.8299C53.0414 71.8783 53.0357 71.9438 53.0357 71.9923C53.0357 72.1204 53.0242 72.2486 53.01 72.3768C52.9843 72.6246 52.9643 72.8667 53.01 73.1145C53.1013 73.5931 53.4867 74.0403 53.9863 74.0916C54.226 74.1143 54.4744 74.0175 54.6428 73.8494C54.8112 73.6814 54.894 73.4478 54.9112 73.2114C54.9426 72.8155 54.7741 72.4024 54.4887 72.129C54.3488 71.9951 54.1889 71.884 54.0405 71.7615C53.9691 71.7017 53.9035 71.6362 53.8407 71.5678C53.8093 71.5337 53.8464 71.5422 53.8635 71.5992C53.8578 71.5821 53.835 71.5564 53.8264 71.5422C53.8178 71.5308 53.7864 71.4625 53.8207 71.5337C53.8549 71.6049 53.8207 71.5223 53.8178 71.5052C53.7665 71.2859 53.5038 71.1377 53.2897 71.2061C53.0614 71.2802 52.9357 71.4995 52.99 71.7331C53.0671 72.0663 53.3411 72.2999 53.6009 72.5021C53.7151 72.5933 53.8321 72.6816 53.932 72.787C53.9434 72.7984 53.952 72.8098 53.9634 72.8212C54.0091 72.8696 53.9406 72.7927 53.9377 72.787C53.9491 72.8155 53.9777 72.8468 53.992 72.8753C54.0005 72.8895 54.0062 72.9066 54.0148 72.9208C54.0434 72.9664 53.9863 72.8354 54.0005 72.8867C54.0119 72.9237 54.0262 72.9579 54.0348 72.9949C54.0405 73.0177 54.0605 73.1402 54.0519 73.0604C54.0433 72.9807 54.0519 73.1003 54.0519 73.1145C54.0519 73.1459 54.0491 73.1801 54.0491 73.2114C54.0491 73.2655 54.069 73.1174 54.0548 73.1687C54.0491 73.1857 54.0462 73.2057 54.0405 73.2256C54.0376 73.2399 54.0091 73.3111 54.0405 73.237C54.0462 73.2484 53.9863 73.3025 54.0433 73.237C54.0433 73.2313 54.1004 73.1715 54.0433 73.237C54.0433 73.2456 53.9748 73.2883 54.0433 73.2399C54.1004 73.2 54.0548 73.2285 54.0405 73.2399C54.0262 73.2513 53.9777 73.2712 54.0376 73.2456C54.1147 73.2114 54.0177 73.2456 54.0148 73.2456C54.0319 73.2171 54.1204 73.2427 54.0433 73.2399C54.0262 73.2399 53.9663 73.2399 54.0405 73.2399C54.149 73.2456 53.9349 73.2114 54.0319 73.2342C54.0919 73.2484 54.0462 73.2399 54.0262 73.2285C54.0005 73.2114 53.9891 73.1829 54.0177 73.2285C54.0491 73.2769 54.0262 73.237 54.0091 73.2199C53.9891 73.2 53.9691 73.1829 53.952 73.163C53.8835 73.0861 53.992 73.2256 53.9349 73.1402C53.9149 73.1088 53.8949 73.0747 53.8778 73.0405C53.8293 72.9465 53.9006 73.1117 53.8664 73.0091C53.8521 72.9636 53.8407 72.918 53.8321 72.8724C53.8207 72.8155 53.835 72.9607 53.8378 72.9038C53.8378 72.8753 53.835 72.8468 53.835 72.8183C53.835 72.7556 53.835 72.6958 53.8407 72.6332C53.8492 72.5164 53.8635 72.3996 53.8721 72.2828C53.8978 72.0207 53.8949 71.7558 53.8207 71.5023C53.7579 71.2887 53.5181 71.132 53.2926 71.2032C53.0671 71.2745 52.9243 71.4995 52.9928 71.7302H52.9985Z" fill="white"/>
<path d="M25.8422 69.6821L24.823 70.7075C24.4776 71.055 24.1094 71.4453 24.0666 71.9352C24.0237 72.4251 24.5176 72.9606 24.9658 72.7584C25.314 72.6017 25.3883 72.1488 25.414 71.7671C25.4568 71.1319 25.7965 70.3173 25.8393 69.6821" fill="white"/>
<path d="M25.5394 69.3802C25.0798 69.8417 24.5802 70.286 24.1663 70.7902C23.7524 71.2944 23.4726 71.921 23.7752 72.5534C24.0378 73.1003 24.723 73.4336 25.2711 73.0803C25.5308 72.9123 25.6878 72.636 25.762 72.3426C25.7963 72.2087 25.8134 72.072 25.8277 71.9353C25.8334 71.8812 25.8391 71.8242 25.842 71.7672C25.842 71.7387 25.8477 71.7103 25.8505 71.6789C25.8648 71.5394 25.8334 71.753 25.8591 71.6106C25.979 70.964 26.2159 70.3402 26.2673 69.6822C26.2844 69.4515 26.0589 69.2549 25.8391 69.2549C25.5936 69.2549 25.4281 69.4515 25.4109 69.6822C25.4109 69.7107 25.4052 69.7391 25.4024 69.7705C25.4024 69.7705 25.3938 69.8417 25.3995 69.8047C25.4052 69.7676 25.3938 69.8417 25.3938 69.8388C25.3881 69.8702 25.3824 69.9015 25.3767 69.9328C25.3538 70.0525 25.3253 70.175 25.2967 70.2946C25.2397 70.5253 25.174 70.7532 25.1198 70.9839C25.0598 71.2289 25.0113 71.4767 24.9913 71.7274C24.9856 71.7758 24.9856 71.8242 24.9799 71.8755C24.9799 71.8954 24.977 71.9182 24.9742 71.9381C24.9742 71.9182 24.9884 71.8641 24.9742 71.9524C24.957 72.0492 24.9342 72.1461 24.9028 72.2401C24.9256 72.1746 24.88 72.2828 24.8685 72.3027C24.8628 72.3141 24.8143 72.3768 24.8457 72.3398C24.8743 72.3056 24.8314 72.354 24.8286 72.354C24.8057 72.3654 24.7886 72.411 24.8229 72.3597C24.8172 72.3711 24.7658 72.3796 24.8029 72.3739C24.8457 72.3682 24.7858 72.3796 24.7801 72.3796C24.663 72.411 24.8286 72.3711 24.7629 72.3796C24.7001 72.3882 24.8286 72.3939 24.7658 72.3796C24.7487 72.3768 24.7287 72.3711 24.7115 72.3654C24.7858 72.3882 24.683 72.3455 24.6602 72.3312C24.6202 72.3027 24.6602 72.3312 24.6687 72.3369C24.6487 72.3198 24.6316 72.2999 24.6116 72.2799C24.6116 72.2799 24.5688 72.2287 24.5916 72.26C24.6173 72.2942 24.5602 72.2087 24.5545 72.2002C24.5431 72.1831 24.5346 72.1632 24.526 72.1461C24.4946 72.0834 24.5403 72.1973 24.5231 72.1318C24.5174 72.109 24.4917 71.9866 24.5003 72.0635C24.4889 71.9524 24.4974 71.9296 24.5317 71.8185C24.5602 71.7273 24.5888 71.6732 24.6516 71.5735C24.7173 71.4653 24.7658 71.4083 24.84 71.3257C25.2482 70.8586 25.7135 70.4342 26.1503 69.9927C26.5385 69.6024 25.9333 68.9957 25.5451 69.3888L25.5394 69.3802Z" fill="white"/>
<path d="M27.5233 70.6621C27.3263 71.5508 28.0657 72.8212 28.9278 73.1231C29.0334 72.1205 28.4396 71.0836 27.5233 70.6621Z" fill="white"/>
<path d="M27.1093 70.551C26.9809 71.1635 27.1493 71.7958 27.4576 72.3313C27.7659 72.8668 28.2255 73.3254 28.8136 73.5362C29.099 73.6387 29.3303 73.3767 29.356 73.1232C29.4673 71.9781 28.7822 70.7846 27.7402 70.2947C27.5375 70.2007 27.2692 70.232 27.155 70.4485C27.0551 70.6393 27.0922 70.9327 27.3092 71.0324C27.4177 71.0837 27.5204 71.1407 27.6175 71.2062C27.646 71.2261 27.6746 71.2461 27.706 71.266C27.7317 71.2888 27.7402 71.2916 27.706 71.266C27.7516 71.3059 27.7973 71.3429 27.8401 71.3828C27.9258 71.4654 28.0029 71.5537 28.0799 71.642C28.0171 71.5679 28.0913 71.6591 28.0999 71.6676C28.1142 71.6876 28.1285 71.7075 28.1399 71.7246C28.177 71.7787 28.2112 71.8328 28.2426 71.8898C28.2712 71.9411 28.2997 71.9923 28.3254 72.0465C28.3397 72.0721 28.3511 72.1006 28.3625 72.1262C28.3368 72.0721 28.3511 72.1006 28.3654 72.1376C28.4082 72.2487 28.4425 72.3598 28.4682 72.4766C28.4824 72.5335 28.491 72.5934 28.5024 72.6503C28.511 72.7016 28.4967 72.5763 28.5024 72.6589C28.5024 72.6874 28.5081 72.7187 28.5081 72.7472C28.5167 72.8725 28.5138 72.995 28.4996 73.1175L29.0419 72.7044C29.0419 72.7044 29.0134 72.6959 29.002 72.6902C28.9734 72.6788 28.9848 72.6845 29.0362 72.7044C29.0162 72.7044 28.9848 72.6788 28.9677 72.6731C28.9192 72.6475 28.8707 72.619 28.8221 72.5905C28.7964 72.5734 28.7708 72.5563 28.7451 72.5364C28.6794 72.4908 28.7822 72.5706 28.7451 72.5364C28.7022 72.4965 28.6537 72.4595 28.6109 72.4196C28.5224 72.3342 28.4396 72.243 28.3625 72.149C28.3996 72.1946 28.3825 72.1746 28.3568 72.1405C28.3368 72.112 28.3169 72.0835 28.2997 72.055C28.2655 72.0037 28.2312 71.9496 28.1998 71.8955C28.1713 71.8471 28.1456 71.7958 28.1199 71.7445C28.1056 71.7132 28.0913 71.6819 28.0771 71.6534C28.0285 71.5508 28.1056 71.736 28.0685 71.6306C28.0257 71.5167 27.9857 71.3999 27.96 71.2831C27.9486 71.2347 27.9286 71.1748 27.9286 71.1236C27.9229 71.229 27.9315 71.1407 27.9286 71.1122C27.9286 71.0865 27.9258 71.0609 27.9229 71.0353C27.9229 70.9783 27.9229 70.9242 27.9229 70.8672C27.9229 70.853 27.9229 70.8387 27.9258 70.8216C27.9286 70.7875 27.9258 70.8017 27.9201 70.8615C27.9115 70.8501 27.9343 70.7875 27.9372 70.7761C27.9829 70.5567 27.8744 70.3032 27.6375 70.2491C27.4234 70.2007 27.1607 70.3146 27.1093 70.5482V70.551Z" fill="white"/>
<path d="M11.3434 59.3651C10.4842 59.5844 9.58495 59.6528 8.70001 59.5617C8.28894 59.5189 7.86074 59.4335 7.5553 59.1543C7.24985 58.8752 7.13852 58.3539 7.42113 58.0548C7.66377 57.7956 8.07199 57.8013 8.42311 57.844C9.69342 57.995 10.9352 58.371 12.0742 58.9464C11.8173 59.2312 11.4319 59.3936 11.0465 59.3765" fill="white"/>
<path d="M11.2295 58.9522C10.4302 59.1516 9.61093 59.2171 8.78879 59.1431C8.48905 59.1146 8.12651 59.0718 7.88387 58.8753C7.75541 58.7728 7.60697 58.5192 7.72115 58.3597C7.85818 58.1689 8.27781 58.2515 8.46621 58.2743C8.85159 58.3227 9.23411 58.3968 9.60807 58.4879C10.3874 58.6788 11.141 58.9522 11.8604 59.3111L11.7747 58.6389C11.5778 58.8468 11.338 58.9494 11.0497 58.9437C10.4987 58.9351 10.4987 59.7896 11.0497 59.7982C11.5521 59.8067 12.0345 59.6073 12.3799 59.2427C12.5598 59.0548 12.5483 58.6987 12.2943 58.5705C11.5749 58.2116 10.8213 57.9182 10.0448 57.7131C9.65945 57.6106 9.27122 57.5308 8.87728 57.471C8.52902 57.4198 8.1779 57.3599 7.82678 57.4112C7.08457 57.5166 6.64495 58.2202 6.91614 58.9294C7.18734 59.6387 7.94667 59.8979 8.66604 59.9776C9.59951 60.0802 10.5501 59.9976 11.4607 59.7697C11.9945 59.6358 11.769 58.8126 11.2324 58.9465L11.2295 58.9522Z" fill="white"/>
<path d="M7.1842 55.7618C6.27642 56.0523 5.22021 55.8273 4.51511 55.1921C4.40949 55.0981 4.30958 54.987 4.28103 54.8503C4.22679 54.5825 4.49227 54.3347 4.76347 54.3034C5.03466 54.272 5.30014 54.3974 5.53993 54.5312C6.11086 54.8446 6.64753 55.2234 7.13567 55.6535" fill="white"/>
<path d="M7.06991 55.3488C6.72736 55.457 6.39907 55.4884 6.05081 55.4428C6.07079 55.4428 5.97659 55.4314 5.95375 55.4257C5.91093 55.4172 5.86525 55.4086 5.82244 55.3972C5.72823 55.3744 5.63403 55.3488 5.54268 55.3146C5.49986 55.3004 5.4599 55.2833 5.41708 55.2662C5.46846 55.2861 5.3714 55.2434 5.35713 55.2377C5.27149 55.195 5.18585 55.1494 5.10307 55.0981C5.04312 55.0611 4.9375 54.9899 4.90895 54.9671C4.87184 54.9386 4.76622 54.8475 4.71484 54.7848C4.72911 54.8019 4.72911 54.8275 4.69771 54.7592C4.70913 54.7848 4.70913 54.7649 4.69771 54.7535C4.67772 54.7335 4.68914 54.7335 4.69771 54.7649C4.70056 54.7734 4.71198 54.819 4.69771 54.782C4.68914 54.762 4.70342 54.762 4.692 54.7934C4.69485 54.7848 4.73196 54.7478 4.70627 54.7706C4.67202 54.7991 4.72911 54.7535 4.72625 54.7535C4.68629 54.7734 4.71769 54.762 4.74053 54.7449C4.77478 54.7193 4.80333 54.7165 4.86042 54.7193C4.91751 54.7222 5.01743 54.7478 5.08879 54.7763C5.26578 54.8475 5.46275 54.9728 5.63688 55.0782C6.06508 55.3374 6.45331 55.6223 6.82441 55.947C6.99855 56.0979 7.25832 56.1179 7.4296 55.947C7.58375 55.7932 7.60373 55.4969 7.4296 55.3431C6.99855 54.9671 6.5361 54.6225 6.0451 54.3262C5.5541 54.03 4.92322 53.6796 4.34373 53.9873C4.06969 54.1325 3.86415 54.4117 3.84131 54.7222C3.81848 55.0326 3.99832 55.3004 4.22098 55.4998C4.6035 55.8387 5.06881 56.0865 5.56552 56.209C6.13074 56.3486 6.73307 56.3401 7.28972 56.1663C7.50953 56.0979 7.65226 55.8672 7.58946 55.6393C7.52666 55.4115 7.28401 55.2719 7.06135 55.3403L7.06991 55.3488Z" fill="white"/>
</svg>
