<svg width="43" height="52" viewBox="0 0 43 52" fill="none" xmlns="http://www.w3.org/2000/svg">
<path d="M21.1544 0.353516C26.6183 0.353516 32.0049 1.67767 36.8312 4.25293C37.4219 4.56865 38.0102 4.88673 38.5962 5.20481C39.3674 5.62184 40.1644 6.0648 40.6684 6.78578C41.3036 7.69289 41.3598 8.87096 41.395 9.97835C41.5825 16.0124 41.77 22.0489 41.9576 28.0829C41.3012 29.883 40.3308 32.2085 38.9033 34.7932C38.6736 35.2102 37.7758 36.8336 36.3741 38.874C35.0919 40.7425 33.4605 42.7947 30.718 45.8364C29.5085 47.1794 27.727 48.8924 24.9963 50.5581C24.3751 50.9375 22.9898 51.7009 22.2655 51.6467H20.0457C19.3214 51.7032 17.9361 50.9375 17.3149 50.5581C14.5842 48.8924 12.8027 47.1794 11.5932 45.8364C8.85069 42.7947 7.21926 40.7425 5.93708 38.874C4.53536 36.8336 3.6376 35.2102 3.40789 34.7932C1.98038 32.2085 1.00996 29.883 0.353638 28.0829C0.541159 22.0489 0.72868 16.0124 0.916201 9.97835C0.951362 8.87096 1.00762 7.69289 1.64285 6.78578C2.14681 6.06715 2.94377 5.6242 3.71496 5.20481C4.3033 4.88673 4.89165 4.56629 5.48 4.25293C10.3016 1.67767 15.6905 0.353516 21.1544 0.353516Z" fill="#2D781A"/>
<path d="M21.1543 0.706842C26.5033 0.716266 31.8219 2.00036 36.5592 4.50729C37.1827 4.83715 37.7992 5.17408 38.418 5.50865C38.9266 5.78432 39.4493 6.06235 39.8877 6.44875C40.8487 7.29461 40.9894 8.52687 41.0339 9.73793C41.1417 12.6784 41.2167 15.6188 41.3081 18.5593C41.3996 21.4998 41.4933 24.5156 41.5871 27.4938C41.5918 27.6611 41.6222 27.8472 41.5965 28.0121C41.5777 28.1276 41.5261 28.2407 41.4839 28.3514C41.3878 28.6059 41.2917 28.8604 41.1909 29.1148C40.9823 29.6473 40.762 30.1751 40.5323 30.7005C39.9931 31.928 39.4048 33.132 38.7649 34.3101C36.8709 37.7995 34.5199 40.9638 31.918 43.9514C30.4319 45.6573 28.92 47.3136 27.1151 48.6873C26.1658 49.4106 25.1673 50.0962 24.1101 50.6546C23.6694 50.8879 23.21 51.1117 22.7271 51.2366C22.4998 51.2955 22.2794 51.2932 22.0474 51.2932H20.1768C19.401 51.2932 18.6978 50.9303 18.0274 50.5628C16.035 49.4695 14.1996 48.0228 12.6057 46.4018C11.0117 44.7808 9.50689 42.9878 8.08407 41.19C6.79018 39.5549 5.60879 37.8349 4.53289 36.0466C3.45699 34.2583 2.50532 32.3969 1.67788 30.4814C1.45989 29.9772 1.25127 29.4682 1.05203 28.957C0.958269 28.719 0.869196 28.481 0.780124 28.2407C0.662923 27.925 0.714491 27.5928 0.726212 27.2605C0.773092 25.7715 0.819972 24.2824 0.864508 22.7933C0.958269 19.8151 1.04969 16.837 1.14345 13.8588C1.18798 12.4074 1.21377 10.9513 1.28174 9.49995C1.34034 8.26298 1.57475 7.09198 2.59908 6.29796C3.07023 5.93276 3.60935 5.65945 4.13206 5.37671C4.7462 5.04449 5.36033 4.70757 5.98149 4.38478C7.17225 3.76747 8.39817 3.2232 9.65691 2.75904C12.1392 1.8425 14.7364 1.21812 17.3664 0.921251C18.6228 0.779882 19.8885 0.706842 21.1543 0.706842C21.6067 0.706842 21.6067 0 21.1543 0C15.7021 0 10.2687 1.32651 5.44003 3.87114C4.80245 4.20807 4.16723 4.55442 3.53434 4.89841C2.99756 5.19058 2.46313 5.49216 1.99432 5.88799C1.00749 6.71971 0.688707 7.91663 0.601979 9.16303C0.498842 10.6238 0.498842 12.0988 0.454306 13.5643C0.405082 15.1123 0.358201 16.6603 0.308977 18.2082C0.212872 21.2642 0.119112 24.3224 0.0230071 27.3783C0.013631 27.6894 -0.0426253 28.0239 0.0651994 28.3208C0.156616 28.5705 0.250377 28.8203 0.348825 29.0677C0.562131 29.619 0.787156 30.1657 1.01921 30.7076C1.5513 31.9516 2.13731 33.1697 2.77488 34.3643C4.72745 38.021 7.17928 41.3338 9.89365 44.4509C11.4243 46.2086 12.9807 47.8838 14.8395 49.2975C15.8099 50.0373 16.8319 50.7371 17.9125 51.3026C18.6345 51.6796 19.3705 52 20.1933 52H22.1153C22.9381 52 23.6741 51.6796 24.3961 51.3026C26.4682 50.2211 28.3856 48.7155 30.0381 47.0639C30.8702 46.2322 31.6414 45.3392 32.415 44.4533C33.1885 43.5674 33.9573 42.6532 34.6933 41.7249C36.0271 40.0426 37.2507 38.2802 38.357 36.4401C39.4634 34.5999 40.4573 32.6585 41.3058 30.6699C41.5308 30.1421 41.7488 29.6096 41.9574 29.0724C42.0489 28.8368 42.1379 28.5988 42.227 28.3609C42.3559 28.0121 42.2903 27.6304 42.2809 27.2652C42.234 25.7361 42.1848 24.2093 42.1379 22.6802C42.0418 19.6243 41.9481 16.566 41.852 13.5101C41.8074 12.0493 41.8098 10.5767 41.7019 9.12062C41.6082 7.87422 41.273 6.68437 40.2768 5.86443C39.815 5.48274 39.297 5.19058 38.7719 4.90548C38.1226 4.55206 37.4733 4.19864 36.8194 3.85464C35.6098 3.21849 34.3605 2.66008 33.083 2.17707C30.528 1.21106 27.8605 0.570186 25.1508 0.245039C23.8241 0.0801087 22.4904 0 21.1543 0C20.7019 0 20.7019 0.706842 21.1543 0.706842Z" fill="#2D781A"/>
<path d="M21.1867 4.1608C25.6567 4.15373 30.0635 5.27525 34.0108 7.4594C34.4936 7.728 34.9742 7.9966 35.4547 8.26755C36.0852 8.62333 36.7369 8.99795 37.1471 9.61055C37.6651 10.381 37.7096 11.3847 37.7378 12.3272C37.8831 17.4659 38.0308 22.6047 38.1761 27.7434C37.637 29.2772 36.84 31.2588 35.668 33.4594C35.4781 33.8152 34.7421 35.1982 33.5935 36.9371C32.5411 38.5298 31.205 40.2781 28.9571 42.8722C27.9656 44.0173 26.5052 45.4781 24.2691 46.8988C23.7604 47.2216 22.6259 47.8743 22.0329 47.8295H20.2162C19.6232 47.8813 18.4911 47.231 17.9824 46.9082C15.7509 45.4946 14.2953 44.0361 13.3061 42.8957C11.0652 40.3087 9.73381 38.5628 8.68604 36.9748C7.54216 35.2383 6.80848 33.8576 6.62096 33.5042C5.45599 31.3059 4.66371 29.3267 4.12927 27.7952C4.29101 22.6565 4.45275 17.5178 4.61214 12.379C4.64261 11.4366 4.68949 10.4328 5.20986 9.66003C5.62241 9.04743 6.27639 8.66809 6.90693 8.31232C7.38745 8.03901 7.87032 7.76805 8.35319 7.49945C12.3052 5.30117 16.7166 4.16787 21.1867 4.1608Z" fill="#599C47"/>
<path d="M21.1874 4.51428C25.62 4.51428 29.9986 5.64051 33.8826 7.79167C34.3772 8.06498 34.8695 8.34065 35.3617 8.62103C35.8024 8.87078 36.2477 9.1276 36.6017 9.49516C37.3424 10.2609 37.3611 11.3871 37.3893 12.3909C37.4619 14.8813 37.5299 17.3717 37.6026 19.8622C37.6752 22.3526 37.7432 24.8054 37.8135 27.2746C37.8206 27.5408 37.8135 27.734 37.7221 27.9814C37.6471 28.1888 37.5721 28.3938 37.4924 28.5987C37.3213 29.0511 37.1408 29.5011 36.9533 29.9488C36.5196 30.9761 36.0438 31.9869 35.5281 32.9764C33.9905 35.9287 32.0754 38.6265 29.947 41.1735C28.7399 42.6178 27.5163 44.0173 26.0489 45.2025C25.2731 45.8292 24.4503 46.4182 23.5807 46.9059C23.0439 47.2075 22.5024 47.4808 21.8789 47.4808C21.3632 47.4808 20.8452 47.4808 20.3295 47.4832C19.6849 47.4879 19.0942 47.1557 18.5481 46.84C16.9096 45.8952 15.4141 44.6558 14.1202 43.2728C12.8263 41.8897 11.6121 40.3912 10.4659 38.8762C9.42284 37.4955 8.46882 36.0489 7.60388 34.548C6.73894 33.0471 5.94901 31.4473 5.27862 29.8216C5.10282 29.3951 4.93405 28.9663 4.77231 28.5328C4.6973 28.3301 4.62229 28.1275 4.54963 27.9225C4.45587 27.6563 4.49806 27.3712 4.50744 27.0932C4.54729 25.8585 4.58479 24.6216 4.62464 23.387C4.70199 20.8965 4.78169 18.4061 4.85904 15.9133C4.89654 14.7046 4.9317 13.4935 4.9739 12.2848C5.00906 11.2434 5.0911 10.1572 5.90213 9.41269C6.26779 9.07576 6.71081 8.83544 7.13977 8.59275C7.65076 8.30295 8.16176 8.01314 8.67744 7.73041C9.65255 7.19556 10.6581 6.72198 11.6942 6.31672C13.7382 5.51799 15.8876 4.96665 18.0676 4.70512C19.106 4.58025 20.1514 4.51663 21.1968 4.51428C21.6492 4.51428 21.6492 3.80743 21.1968 3.80743C16.6588 3.8145 12.1583 4.99257 8.1852 7.19556C7.66014 7.48772 7.13742 7.78224 6.61471 8.07912C6.16466 8.33594 5.71226 8.6116 5.33722 8.9768C4.55666 9.73548 4.35039 10.7934 4.29179 11.8419C4.15115 14.37 4.12771 16.9123 4.04801 19.4451C3.96831 21.978 3.88627 24.5839 3.80658 27.1544C3.7972 27.4348 3.75032 27.734 3.83705 28.005C3.90737 28.2218 3.98941 28.4338 4.06911 28.6459C4.24022 29.1053 4.41836 29.56 4.60354 30.0124C5.0325 31.0515 5.49896 32.074 6.00761 33.0778C7.58513 36.1784 9.57754 39.0034 11.7997 41.6659C13.0537 43.1715 14.3312 44.6252 15.8712 45.8433C16.6776 46.4818 17.5238 47.0921 18.4262 47.5845C19.0216 47.9097 19.6427 48.1995 20.3319 48.1948C20.864 48.19 21.3984 48.19 21.9305 48.1924C22.6196 48.1947 23.2408 47.9026 23.8362 47.5774C25.5567 46.635 27.1389 45.3368 28.4937 43.9207C29.8486 42.5047 31.1073 40.9308 32.3051 39.3639C33.3998 37.9314 34.396 36.4305 35.3008 34.8684C36.2056 33.3063 37.0119 31.6499 37.7104 29.9653C37.8979 29.5129 38.0784 29.0558 38.2495 28.5964C38.3245 28.3961 38.3972 28.1935 38.4699 27.9909C38.5707 27.7081 38.5238 27.4018 38.5144 27.1049C38.4792 25.8303 38.4417 24.5556 38.4066 23.2809C38.3339 20.7127 38.2612 18.1422 38.1862 15.574C38.1511 14.3323 38.137 13.0883 38.0761 11.8466C38.0245 10.784 37.8276 9.70485 37.0353 8.93675C36.6603 8.5739 36.2102 8.29824 35.7602 8.04377C35.2398 7.7469 34.7171 7.45474 34.192 7.16493C33.1982 6.61595 32.1715 6.13059 31.1167 5.70884C29.0024 4.86298 26.7826 4.30458 24.5253 4.02184C23.4189 3.88283 22.3055 3.81686 21.1898 3.81686C20.7374 3.81686 20.7374 4.5237 21.1898 4.5237L21.1874 4.51428Z" fill="#599C47"/>
<path d="M21.1874 4.51428C25.62 4.51428 29.9986 5.64051 33.8826 7.79167C34.3772 8.06498 34.8695 8.34065 35.3617 8.62103C35.8024 8.87078 36.2477 9.1276 36.6017 9.49516C37.3424 10.2609 37.3611 11.3871 37.3893 12.3909C37.4619 14.8813 37.5299 17.3717 37.6026 19.8622C37.6752 22.3526 37.7432 24.8054 37.8135 27.2746C37.8206 27.5408 37.8135 27.734 37.7221 27.9814C37.6471 28.1888 37.5721 28.3938 37.4924 28.5987C37.3213 29.0511 37.1408 29.5011 36.9533 29.9488C36.5196 30.9761 36.0438 31.9869 35.5281 32.9764C33.9905 35.9287 32.0754 38.6265 29.947 41.1735C28.7399 42.6178 27.5163 44.0173 26.0489 45.2025C25.2731 45.8292 24.4503 46.4182 23.5807 46.9059C23.0439 47.2075 22.5024 47.4808 21.8789 47.4808C21.3632 47.4808 20.8452 47.4808 20.3295 47.4832C19.6849 47.4879 19.0942 47.1557 18.5481 46.84C16.9096 45.8952 15.4141 44.6558 14.1202 43.2728C12.8263 41.8897 11.6121 40.3912 10.4659 38.8762C9.42284 37.4955 8.46882 36.0489 7.60388 34.548C6.73894 33.0471 5.94901 31.4473 5.27862 29.8216C5.10282 29.3951 4.93405 28.9663 4.77231 28.5328C4.6973 28.3301 4.62229 28.1275 4.54963 27.9225C4.45587 27.6563 4.49806 27.3712 4.50744 27.0932C4.54729 25.8585 4.58479 24.6216 4.62464 23.387C4.70199 20.8965 4.78169 18.4061 4.85904 15.9133C4.89654 14.7046 4.9317 13.4935 4.9739 12.2848C5.00906 11.2434 5.0911 10.1572 5.90213 9.41269C6.26779 9.07576 6.71081 8.83544 7.13977 8.59275C7.65076 8.30295 8.16176 8.01314 8.67744 7.73041C9.65255 7.19556 10.6581 6.72198 11.6942 6.31672C13.7382 5.51799 15.8876 4.96665 18.0676 4.70512C19.106 4.58025 20.1514 4.51663 21.1968 4.51428C21.6492 4.51428 21.6492 3.80743 21.1968 3.80743C16.6588 3.8145 12.1583 4.99257 8.1852 7.19556C7.66014 7.48772 7.13742 7.78224 6.61471 8.07912C6.16466 8.33594 5.71226 8.6116 5.33722 8.9768C4.55666 9.73548 4.35039 10.7934 4.29179 11.8419C4.15115 14.37 4.12771 16.9123 4.04801 19.4451C3.96831 21.978 3.88627 24.5839 3.80658 27.1544C3.7972 27.4348 3.75032 27.734 3.83705 28.005C3.90737 28.2218 3.98941 28.4338 4.06911 28.6459C4.24022 29.1053 4.41836 29.56 4.60354 30.0124C5.0325 31.0515 5.49896 32.074 6.00761 33.0778C7.58513 36.1784 9.57754 39.0034 11.7997 41.6659C13.0537 43.1715 14.3312 44.6252 15.8712 45.8433C16.6776 46.4818 17.5238 47.0921 18.4262 47.5845C19.0216 47.9097 19.6427 48.1995 20.3319 48.1948C20.864 48.19 21.3984 48.19 21.9305 48.1924C22.6196 48.1947 23.2408 47.9026 23.8362 47.5774C25.5567 46.635 27.1389 45.3368 28.4937 43.9207C29.8486 42.5047 31.1073 40.9308 32.3051 39.3639C33.3998 37.9314 34.396 36.4305 35.3008 34.8684C36.2056 33.3063 37.0119 31.6499 37.7104 29.9653C37.8979 29.5129 38.0784 29.0558 38.2495 28.5964C38.3245 28.3961 38.3972 28.1935 38.4699 27.9909C38.5707 27.7081 38.5238 27.4018 38.5144 27.1049C38.4792 25.8303 38.4417 24.5556 38.4066 23.2809C38.3339 20.7127 38.2612 18.1422 38.1862 15.574C38.1511 14.3323 38.137 13.0883 38.0761 11.8466C38.0245 10.784 37.8276 9.70485 37.0353 8.93675C36.6603 8.5739 36.2102 8.29824 35.7602 8.04377C35.2398 7.7469 34.7171 7.45474 34.192 7.16493C33.1982 6.61595 32.1715 6.13059 31.1167 5.70884C29.0024 4.86298 26.7826 4.30458 24.5253 4.02184C23.4189 3.88283 22.3055 3.81686 21.1898 3.81686C20.7374 3.81686 20.7374 4.5237 21.1898 4.5237L21.1874 4.51428Z" fill="#599C47"/>
<path d="M6.31089 33.5042C6.75717 34.5204 9.35967 39.1235 11.7932 41.557C9.5835 33.004 8.91874 13.1386 11.7932 5.61572C11.7932 5.61572 9.92125 6.21095 6.61022 8.07918C5.97968 8.43495 5.14126 8.96055 4.89979 9.66007C4.37942 10.4329 4.33254 11.4366 4.30207 12.3791C4.14268 17.5178 3.8341 22.6244 3.67236 27.7632C4.2068 29.2947 5.14591 31.3059 6.31089 33.5042Z" fill="#2E8916"/>
</svg>
