<svg width="45" height="52" viewBox="0 0 45 52" fill="none" xmlns="http://www.w3.org/2000/svg">
<path d="M23.6741 51.5909C24.5784 51.4901 25.486 51.3956 26.3834 51.2445C28.3225 50.9233 32.4724 49.3458 33.4076 47.5699C33.9715 46.5024 33.4867 45.9104 33.5073 44.7297C33.5177 43.911 31.8398 43.4009 31.8536 42.5885C31.8673 41.5966 31.8536 40.6205 31.5029 39.6633C31.1625 38.7312 30.4921 37.8653 29.5431 37.4591C29.6841 38.3471 29.6222 39.2602 29.3712 40.1261C29.103 41.0393 28.5013 42.0154 27.071 41.5998C25.8367 40.8944 25.7233 39.6695 25.7748 38.536C25.8127 37.6984 25.9261 36.8608 26.1909 36.061C26.4384 35.3116 26.8097 34.6032 27.047 33.8506C27.3152 32.9973 27.4046 32.103 27.4114 31.2119C27.4217 29.5619 27.1432 27.8805 26.3146 26.4258C25.486 24.971 24.0592 23.7745 22.3607 23.4281C22.6736 25.1568 22.7733 26.917 22.6495 28.6645C22.6358 28.8377 22.6186 29.0204 22.5223 29.1683C22.3298 29.458 21.8759 29.5021 21.5527 29.3478C21.2296 29.1935 21.0095 28.8976 20.8307 28.5984C19.2801 26.0322 19.6652 22.8519 20.205 19.9456C18.0492 20.4462 16.5639 22.4331 16.1135 24.4956C15.6631 26.558 16.0585 28.6992 16.502 30.7648C16.6189 31.3064 16.7393 31.8574 16.6602 32.4022C16.5811 32.9469 16.2648 33.4948 15.7284 33.7058C15.3606 33.8506 14.9377 33.8223 14.5457 33.7435C13.3802 33.5105 12.3178 32.8461 11.6267 31.9267C11.2279 32.695 11.3207 33.6113 11.4857 34.4552C11.6989 35.5509 12.0221 36.6436 12.5963 37.6165C13.2014 38.6462 14.0712 39.5184 14.7554 40.5008C14.8242 40.5984 14.893 40.6992 14.9549 40.8031C16.423 43.1269 12.5034 45.5735 13.7893 48.0453C15.0958 50.5581 20.8823 51.8868 23.6707 51.5814L23.6741 51.5909Z" fill="#7C0C0C"/>
<path d="M23.6743 51.9467C25.3522 51.761 26.9887 51.5752 28.5772 51.0241C30.0281 50.5235 31.479 49.8811 32.6618 48.9491C33.1569 48.5587 33.5935 48.0989 33.8445 47.5416C34.1814 46.7922 34.0095 46.0932 33.9236 45.3186C33.8892 45.0037 33.9373 44.6636 33.8204 44.3613C33.7104 44.0779 33.4766 43.8481 33.2428 43.6434C33.009 43.4387 32.7546 43.2655 32.5311 43.0546C32.2389 42.7806 32.2423 42.598 32.2423 42.2201C32.2457 40.3214 31.7919 38.0858 29.7393 37.1569C29.5089 37.053 29.117 37.1726 29.1582 37.4623C29.2958 38.4038 29.2511 39.3831 28.9176 40.2931C28.7078 40.8599 28.3021 41.4046 27.5732 41.3416C26.724 41.2692 26.3114 40.3372 26.2048 39.6665C26.0742 38.8541 26.1636 37.9661 26.3149 37.16C26.4971 36.1808 26.9269 35.296 27.2775 34.3639C27.6282 33.4319 27.7658 32.4778 27.7967 31.5111C27.8483 29.7572 27.5801 27.953 26.7206 26.3723C25.861 24.7916 24.3516 23.4975 22.4675 23.0913C22.1581 23.0251 21.9449 23.2613 21.993 23.5258C22.244 24.927 22.3506 26.3503 22.3128 27.7704C22.3025 28.1136 22.33 28.504 22.2509 28.8378C22.165 29.1999 21.7696 29.1023 21.5392 28.9071C21.106 28.5418 20.8481 27.8774 20.659 27.3831C19.7617 25.0309 20.1364 22.4458 20.5799 20.0464C20.6281 19.7882 20.4115 19.5363 20.1055 19.6119C17.7366 20.1944 16.2066 22.2978 15.7424 24.4106C15.4261 25.8559 15.5086 27.3327 15.7321 28.7811C15.8421 29.5053 15.9934 30.2233 16.1481 30.9412C16.3028 31.6591 16.4747 32.4526 15.9934 33.0666C15.4708 33.731 14.4187 33.4193 13.7448 33.1296C13.0331 32.821 12.4211 32.3455 11.9638 31.7567C11.816 31.5646 11.424 31.4891 11.2968 31.7567C10.7605 32.8714 10.9874 34.0931 11.2693 35.2424C11.5512 36.3917 12.0395 37.5662 12.789 38.5833C13.1741 39.106 13.6004 39.6004 13.9992 40.1136C14.319 40.5229 14.6938 40.9575 14.8382 41.4518C15.0651 42.2107 14.7213 43.001 14.3809 43.6843C13.6485 45.1548 12.5896 46.7638 13.5351 48.3697C14.3637 49.7709 16.1481 50.577 17.7125 51.106C19.5622 51.7295 21.7008 52.1546 23.6778 51.9467C24.166 51.8964 24.1729 51.1879 23.6778 51.2383C22.0377 51.4083 20.3255 51.1155 18.7577 50.6809C17.1899 50.2464 15.4055 49.582 14.4256 48.3351C13.3288 46.9402 14.3534 45.4225 15.0273 44.0842C15.3642 43.4135 15.6874 42.6956 15.684 41.9431C15.6771 41.0016 15.0685 40.2553 14.4875 39.5279C13.6279 38.451 12.7856 37.4182 12.3317 36.1304C12.1048 35.4912 11.9432 34.8331 11.8263 34.1687C11.7094 33.5043 11.6544 32.758 11.9638 32.1125H11.2968C12.0945 33.1422 13.291 33.9294 14.6697 34.1309C15.3745 34.2348 16.0656 34.1026 16.5332 33.5799C16.9733 33.0855 17.1108 32.44 17.0661 31.8134C17.0111 31.0325 16.7807 30.2611 16.6329 29.4896C16.4851 28.7181 16.3647 27.9089 16.32 27.1091C16.2409 25.689 16.3991 24.2248 17.0936 22.9338C17.7881 21.6428 18.8333 20.6541 20.3083 20.292L19.8339 19.8575C19.4075 22.1655 19.0534 24.5869 19.6895 26.8919C19.8407 27.4429 20.0573 27.9813 20.3324 28.4914C20.5731 28.9354 20.8653 29.4172 21.357 29.6565C21.773 29.8612 22.3403 29.8391 22.691 29.5337C23.138 29.1432 23.0589 28.4316 23.0761 27.9184C23.1276 26.3849 23.0039 24.8514 22.7357 23.3369L22.2612 23.7714C26.5452 24.6971 27.5904 29.7982 26.834 33.1831C26.6071 34.197 26.0845 35.1165 25.7785 36.1083C25.4966 37.0278 25.3797 38.0102 25.3831 38.9643C25.39 40.334 26.1154 42.2957 28.003 42.0281C30.035 41.7384 30.1347 38.8383 29.9353 37.4592L29.3542 37.7646C31.1008 38.5518 31.4653 40.4537 31.4756 42.0659C31.4756 42.3618 31.4343 42.6704 31.5478 42.9538C31.6475 43.2089 31.8503 43.423 32.0566 43.6088C32.3901 43.9079 33.0537 44.2417 33.1259 44.7014C33.1809 45.0446 33.1637 45.4036 33.2187 45.7499C33.2738 46.0963 33.3356 46.4206 33.2909 46.7544C33.2084 47.3716 32.7924 47.8722 32.3145 48.2847C31.3002 49.1538 29.9731 49.752 28.6941 50.2212C27.0644 50.8163 25.4209 51.0367 23.6846 51.2288C23.1964 51.2824 23.1895 51.9908 23.6846 51.9373L23.6743 51.9467Z" fill="#7C0C0C"/>
<path d="M41.0849 37.7175C40.9886 38.1143 40.8648 38.7094 40.7892 39.443C40.7032 40.2523 40.7892 40.8222 40.7204 41.263C40.5692 42.3116 40.2253 43.2751 39.7715 44.3016C39.2283 45.5359 39.0907 46.4176 38.1315 47.5165C37.1722 48.6155 36.0342 49.601 34.738 48.9114C33.3971 48.1967 33.2217 47.1985 32.9329 45.728C32.6441 44.2575 32.1353 42.5824 30.7187 42.0219C30.9422 43.0704 31.1691 44.1599 30.9078 45.199C30.6465 46.2381 29.7492 47.208 28.6558 47.1922C28.0438 47.1828 27.4765 46.8773 27.002 46.5026C25.2486 45.1235 24.6778 42.9099 25.056 40.8128C25.4549 38.6055 26.9608 36.8327 27.4043 34.6569C27.8788 32.3299 26.617 29.77 24.4612 28.6868C24.6366 30.3462 24.6056 32.0277 24.3718 33.6776C24.3271 33.9893 24.2721 34.3137 24.0761 34.5593C23.5123 35.2741 22.3227 34.8616 21.6557 34.2412C20.2529 32.9345 19.5893 30.9917 19.5584 29.0961C19.5308 27.2006 20.0844 25.3365 20.8167 23.5795C19.132 24.5241 17.8943 26.1993 17.5058 28.0633C16.8525 31.2058 18.5338 34.3798 18.4409 37.5853C18.4237 38.2024 18.3103 38.8794 17.8324 39.2856C17.3648 39.6824 16.66 39.7075 16.0789 39.4966C15.4978 39.2888 15.0165 38.8857 14.5558 38.4827C13.7272 37.7616 11.2035 35.4095 11.0832 34.3294C10.4884 34.6286 11.9256 36.8957 12.0562 37.538C12.1834 38.1804 12.5857 38.7314 12.9742 39.2604L14.7552 41.6818C15.5563 42.7682 16.378 43.9049 16.6256 45.2211C16.8731 46.5404 16.3746 48.0959 15.13 48.6532C14.6486 48.8705 14.1054 48.9177 13.5759 48.9303C10.2374 49.0154 5.25203 46.9749 3.15129 44.4307C1.05055 41.8865 0.524511 38.0702 2.2161 35.2489C1.63849 36.1746 1.6935 37.3743 2.09577 38.3851C2.5943 39.6351 3.29913 40.4947 3.90082 41.0993C4.76724 41.9684 5.25203 42.0817 5.42738 42.1132C5.42738 42.1132 6.40038 42.2927 7.39058 41.6157C9.34348 40.2775 8.12292 34.9938 6.66513 31.6026C5.79182 29.5653 4.03491 26.3567 0.383545 23.1481C4.74661 24.0927 6.70294 25.7994 7.73096 27.2698C8.64552 28.5797 9.22314 30.1352 10.4712 31.1775C11.7227 32.2197 14.0538 32.3961 14.8343 31.0137C15.3225 30.1478 14.9924 29.0835 14.5248 28.2082C12.2247 23.8943 7.07771 21.3155 4.97353 16.9135C2.77997 12.3226 4.87726 6.33986 9.55665 3.83342C7.41121 7.9048 8.78649 13.3113 12.6682 16.0539C14.3461 17.2378 17.1447 17.7448 18.2725 16.0916C19.4036 14.4322 17.9424 12.6658 16.935 11.3527C15.711 9.75629 15.8107 7.96778 16.409 6.13519C17.0313 4.23017 17.8702 2.10159 16.8559 0.347717C19.2558 1.62927 20.8374 4.13571 20.8786 6.70826C20.8958 7.92685 20.5967 9.15172 20.7548 10.3609C20.913 11.5731 21.7279 12.8515 23.024 13.031C23.3507 13.0751 23.7014 13.0436 23.9764 12.8767C24.8566 12.3477 24.4028 11.1008 24.0074 10.1971C23.4194 8.84944 23.196 7.33172 23.5879 5.92422C23.9764 4.51671 25.0285 3.23515 26.4794 2.69041C25.001 4.02235 25.3758 6.33671 26.2972 8.0465C27.2186 9.75944 28.5905 11.337 28.8518 13.2357C29.0581 14.7377 28.5355 16.2428 27.9269 17.6471C27.3184 19.0515 26.6101 20.4496 26.421 21.9547C26.2319 23.4598 26.6685 25.1381 27.9716 26.0481C29.6254 27.2037 32.2762 26.596 33.3696 24.9586C34.2085 23.7023 34.2051 22.1279 34.1088 20.6542C33.875 16.9639 33.1942 13.1633 30.9938 10.0869C33.7203 10.5403 36.0514 12.332 37.4542 14.5519C38.8569 16.7718 39.4139 19.379 39.5171 21.9547C39.6443 25.0814 39.0563 28.394 36.9144 30.8091C35.8348 32.0245 34.3873 32.9912 33.6412 34.405C32.7816 36.0361 33.0636 38.1332 34.3323 39.5155C34.7173 39.9374 35.3362 40.3184 35.876 40.0854C36.1133 39.9815 36.2817 39.78 36.4261 39.5753C37.8942 37.4814 37.908 34.405 40.191 33.0919C41.3152 32.4464 42.828 32.4464 43.9523 33.0888C43.4779 33.369 42.6905 33.9201 42.0476 34.849C41.2362 36.0235 41.1055 37.1665 41.0814 37.7049L41.0849 37.7175Z" fill="#B72D2D"/>
<path d="M40.714 37.626C40.5489 38.3188 40.4252 39.0304 40.3805 39.7389C40.3358 40.4474 40.3839 41.159 40.2189 41.8769C40.0229 42.7271 39.6928 43.5332 39.349 44.3393C39.0636 45.0131 38.8539 45.7184 38.4963 46.3671C38.1044 47.0724 37.5337 47.7305 36.8804 48.2501C36.2271 48.7696 35.5361 48.9711 34.7797 48.524C33.5625 47.8061 33.4903 46.4427 33.229 45.2619C32.9299 43.9173 32.3867 42.3461 30.9186 41.7226C30.6057 41.5904 30.2825 41.8076 30.3513 42.1225C30.5747 43.1616 30.8292 44.292 30.475 45.3343C30.2309 46.0554 29.5639 46.8583 28.6597 46.8457C27.6901 46.8331 26.8237 45.964 26.3251 45.2776C25.8266 44.5912 25.5068 43.7504 25.39 42.9129C25.1252 41.0393 25.8507 39.3516 26.6655 37.6733C27.446 36.0611 28.1164 34.43 27.7967 32.6415C27.4838 30.9002 26.3492 29.266 24.6611 28.3907C24.4238 28.2679 24.0525 28.419 24.08 28.6961C24.2141 30.0312 24.2278 31.3726 24.1041 32.7076C24.0594 33.1957 24.1144 34.1214 23.6605 34.4678C23.2617 34.7732 22.6119 34.4804 22.2578 34.2537C21.3019 33.6428 20.6934 32.4967 20.3564 31.5048C19.9714 30.3744 19.8785 29.1873 19.992 28.0128C20.1364 26.5234 20.6143 25.075 21.1885 23.6801C21.3088 23.3872 20.8928 23.1259 20.6212 23.2802C19.1049 24.1492 17.9806 25.4969 17.403 27.043C16.7291 28.8535 16.9664 30.7806 17.3343 32.6226C17.5268 33.583 17.7537 34.5339 17.905 35.5006C18.046 36.398 18.1973 37.4214 17.9703 38.3156C17.8672 38.7155 17.6506 39.0934 17.2002 39.2288C16.7051 39.3768 16.1859 39.2004 15.7664 38.958C15.1579 38.6022 14.6387 38.0858 14.1367 37.6103C13.5694 37.0782 13.0193 36.5271 12.5139 35.9477C12.1357 35.5132 11.5547 34.9149 11.4721 34.3387C11.4378 34.0963 11.1627 33.8664 10.8911 34.0333C10.1656 34.4741 10.7742 35.573 11.0217 36.1146C11.2074 36.524 11.424 36.927 11.589 37.3458C11.785 37.8433 11.895 38.3314 12.1873 38.7974C13.0434 40.1577 14.1264 41.3983 15.0376 42.7271C15.8387 43.8953 16.5538 45.2556 16.2169 46.6694C16.0862 47.2204 15.8111 47.7746 15.3229 48.1367C14.7384 48.5681 13.9408 48.6027 13.2222 48.5901C11.9638 48.5681 10.7123 48.2847 9.52957 47.9068C7.1022 47.1259 4.5545 45.8066 3.12421 43.7851C1.39824 41.3542 1.03379 38.0291 2.55691 35.4408C2.79414 35.0409 2.12713 34.6819 1.8899 35.0818C0.569632 37.3049 2.17183 40.079 3.95625 41.6659C4.44448 42.0973 4.99803 42.4878 5.69942 42.5035C6.69649 42.5224 7.75546 42.0564 8.25399 41.2472C8.70096 40.5261 8.79379 39.6413 8.79723 38.8289C8.79723 37.7426 8.62188 36.6531 8.37777 35.5919C7.91705 33.5862 7.19159 31.615 6.20483 29.773C4.82612 27.2036 2.91104 24.8987 0.662463 22.9118L0.2877 23.5037C2.12713 23.9099 3.95969 24.5145 5.48281 25.5693C6.64148 26.3723 7.41164 27.3988 8.08896 28.5607C8.94851 30.0406 9.85619 31.7158 11.7506 32.2259C13.2153 32.6195 15.0272 32.1755 15.3986 30.6546C15.6255 29.7194 15.261 28.7685 14.8072 27.9372C14.3912 27.1752 13.8789 26.4573 13.315 25.7803C12.1529 24.3854 10.7879 23.1511 9.46424 21.8884C8.14054 20.6258 6.83402 19.319 5.88508 17.7855C5.01522 16.3812 4.53731 14.832 4.49949 13.2167C4.41697 9.64279 6.36299 5.99649 9.75992 4.1513L9.23044 3.66639C7.06094 7.84798 8.31588 13.3426 12.3111 16.2489C13.9167 17.4171 16.9217 18.2862 18.4345 16.5134C19.3284 15.4649 19.1599 14.1581 18.5583 13.0309C17.9016 11.7966 16.7601 10.8362 16.4644 9.44756C15.794 6.29878 18.9124 3.27594 17.2002 0.177536L16.6707 0.662449C18.3657 1.58504 19.6172 3.09646 20.1811 4.82514C20.4974 5.79812 20.5387 6.77424 20.4561 7.78185C20.3736 8.78946 20.212 9.8695 20.4733 10.8897C20.6728 11.6675 21.1197 12.4389 21.8245 12.9301C22.5294 13.4213 23.5333 13.6291 24.2691 13.1348C24.9671 12.6656 24.9499 11.8249 24.7642 11.1259C24.527 10.2285 24.0594 9.40663 23.8875 8.48718C23.4921 6.33026 24.3654 3.91829 26.6827 3.00515L26.2151 2.44781C25.1355 3.45542 24.9602 4.88497 25.2284 6.22006C25.5344 7.76296 26.4764 9.06341 27.2913 10.4142C27.7314 11.1416 28.1405 11.891 28.3571 12.7034C28.6012 13.6166 28.5428 14.5549 28.3124 15.4649C27.8654 17.2282 26.8752 18.8183 26.3458 20.5565C25.9057 21.9986 25.8266 23.5573 26.5314 24.9396C27.1572 26.1676 28.419 26.9769 29.9077 27.0115C31.2968 27.043 32.6961 26.429 33.5213 25.4056C34.5768 24.0989 34.6009 22.3513 34.5115 20.7989C34.2914 17.0361 33.6107 13.1379 31.338 9.91988L30.9014 10.4394C34.5012 11.066 37.0592 13.8433 38.1938 16.9039C38.8127 18.5727 39.0843 20.3329 39.1462 22.0899C39.2081 23.847 39.0602 25.4434 38.5651 27.0524C38.07 28.6615 37.1864 30.1036 35.9143 31.3285C34.7281 32.4683 33.3975 33.5673 32.954 35.1511C32.5517 36.5869 32.8371 38.2086 33.7791 39.424C34.2158 39.9876 34.8828 40.6017 35.708 40.504C36.5331 40.4064 36.9148 39.6066 37.2242 39.021C37.9462 37.6386 38.2385 36.0831 39.0705 34.7481C39.4934 34.0711 40.0951 33.4665 40.9031 33.1737C41.8451 32.8336 42.911 32.9312 43.774 33.4035V32.7927C41.9449 33.8916 40.8137 35.7147 40.714 37.7142C40.6899 38.1708 41.4635 38.1676 41.4876 37.7142C41.5735 35.9729 42.5741 34.3608 44.1659 33.4035C44.4066 33.2587 44.4238 32.9344 44.1659 32.7927C42.7219 32.0055 40.8756 32.1188 39.5725 33.0886C38.4241 33.9451 37.8981 35.2739 37.4339 36.5177C37.183 37.1915 36.9526 37.8717 36.6294 38.5203C36.4781 38.8257 36.3131 39.128 36.1102 39.4083C35.7699 39.8743 35.3642 39.8963 34.9 39.5374C33.6107 38.5329 33.2875 36.5901 33.7516 35.1731C34.2846 33.5484 35.8696 32.5061 37.0248 31.2687C38.1732 30.0406 38.9399 28.5638 39.3868 27.002C39.8338 25.4402 39.9748 23.7808 39.9266 22.1592C39.8716 20.3896 39.6138 18.6042 39.0155 16.9165C37.8293 13.5567 35.0582 10.4489 31.1111 9.76244C30.8017 9.70891 30.4785 10.0049 30.6745 10.282C32.5483 12.9333 33.3012 16.0726 33.6141 19.1836C33.8685 21.7184 34.2536 25.5914 30.6813 26.2495C29.2889 26.5045 27.9824 25.9315 27.3119 24.7884C26.5727 23.5226 26.6965 22.0175 27.1159 20.6824C27.6213 19.064 28.5153 17.5746 28.9863 15.9435C29.4298 14.4038 29.3748 12.8986 28.7009 11.425C28.027 9.95137 26.8409 8.59109 26.2598 7.02929C25.7682 5.70051 25.6066 4.0348 26.7652 2.95162C27.0919 2.64304 26.6793 2.24314 26.2976 2.39428C24.5442 3.08387 23.3924 4.69604 23.107 6.39009C22.9454 7.35992 23.0245 8.34864 23.2892 9.29642C23.5161 10.112 24.025 10.8897 24.1006 11.7367C24.1316 12.0799 24.08 12.4421 23.7121 12.6184C23.2651 12.8325 22.6807 12.6404 22.3059 12.3822C21.6079 11.9068 21.2401 11.066 21.1438 10.2946C21.0063 9.2051 21.2504 8.10933 21.2779 7.023C21.2985 6.14134 21.1575 5.25338 20.8515 4.41265C20.1983 2.6021 18.8574 1.02771 17.0626 0.0515842C16.7154 -0.137343 16.3647 0.231065 16.5332 0.536497C17.8706 2.95791 15.7871 5.67532 15.6152 8.13452C15.5292 9.37199 15.8696 10.5717 16.6432 11.5919C17.3515 12.5239 18.2763 13.5725 18.3004 14.7627C18.3245 15.849 17.4684 16.6866 16.3131 16.7937C15.2713 16.8881 14.1952 16.5481 13.3219 16.0474C11.3931 14.9422 10.0556 12.9585 9.41611 10.9968C8.67346 8.71389 8.7766 6.19172 9.89745 4.02535C10.0556 3.71992 9.7221 3.34836 9.36797 3.54044C6.41456 5.14317 4.45135 8.03376 3.8978 11.1133C3.62275 12.6436 3.66744 14.218 4.10753 15.7199C4.57857 17.3164 5.51375 18.7428 6.62429 20.0338C8.94163 22.7323 12.067 24.8451 13.9029 27.8837C14.374 28.6678 14.9172 29.6722 14.6181 30.5854C14.3774 31.3222 13.6313 31.6654 12.8337 31.6654C10.8154 31.6654 9.78399 29.9808 8.95195 28.545C8.19555 27.2351 7.38757 26.0511 6.10169 25.1254C4.47198 23.9477 2.49502 23.2644 0.490553 22.8236C0.126105 22.7417 -0.173018 23.1637 0.11579 23.4156C3.40614 26.3219 5.82319 29.8674 7.10908 33.8853C7.69357 35.7053 8.20586 37.7079 7.98238 39.6192C7.91018 40.2269 7.73139 40.9449 7.18128 41.3448C6.65867 41.7226 5.82319 41.9462 5.27996 41.71C4.79173 41.4991 4.39634 41.0897 4.04908 40.7276C3.64338 40.3057 3.29268 39.8428 2.997 39.3484C2.2956 38.1771 1.8177 36.6972 2.56035 35.4439L1.89334 35.085C0.480239 37.4875 0.545564 40.4285 1.7283 42.8971C2.91104 45.3658 5.17681 46.9087 7.7142 47.9887C8.96914 48.5209 10.2928 48.9428 11.6612 49.1569C12.9334 49.3553 14.5562 49.5127 15.6702 48.7916C16.7842 48.0706 17.183 46.7355 17.0695 45.5641C16.9251 44.0275 15.9693 42.7019 15.0547 41.4581C14.4496 40.6363 13.8411 39.8176 13.2428 38.9926C13.0021 38.662 12.758 38.3251 12.5964 37.9567C12.4864 37.6985 12.4452 37.4245 12.3454 37.1663C12.1529 36.6783 11.8985 36.2091 11.6853 35.7273C11.5753 35.4754 11.4653 35.2204 11.3931 34.9559C11.369 34.8709 11.3724 34.7575 11.3415 34.6788C11.3037 34.5906 11.4206 34.5749 11.2934 34.6536L10.7123 34.3482C10.7983 34.937 11.1627 35.4502 11.534 35.9226C11.9982 36.5114 12.5174 37.0624 13.0537 37.5946C13.5041 38.0417 13.9717 38.4762 14.4565 38.8919C15.1751 39.5027 16.0346 40.0947 17.073 39.9845C19.349 39.742 18.8952 36.82 18.6752 35.3936C18.3554 33.3311 17.6575 31.2938 17.7675 29.1936C17.8775 27.0713 19.0396 25.0435 21.0269 23.9036L20.4596 23.5037C19.349 26.1897 18.6477 29.2125 19.7341 32.0023C20.1639 33.1075 20.8962 34.3419 22.0308 34.9653C22.5156 35.233 23.1345 35.4062 23.6984 35.255C24.3104 35.0881 24.6198 34.5686 24.7264 34.027C25.0668 32.292 25.0427 30.4531 24.8673 28.7055L24.2863 29.011C25.9744 29.8832 27.0231 31.6119 27.1262 33.3657C27.2466 35.381 26.0054 37.1506 25.249 38.9643C24.4926 40.778 24.3 42.6484 25.0118 44.4243C25.5962 45.879 27.2569 47.973 29.2304 47.5006C30.2275 47.2613 30.9392 46.3986 31.2314 45.5327C31.6268 44.3676 31.3587 43.1112 31.1077 41.9462L30.5404 42.3461C31.9982 42.9632 32.3385 44.6573 32.5998 45.9609C32.8611 47.2645 33.174 48.4516 34.453 49.1789C36.1171 50.1236 37.6162 48.7728 38.5789 47.6046C39.0843 46.9937 39.4143 46.3104 39.6928 45.5925C40.0057 44.7864 40.3702 43.996 40.6555 43.1805C40.9615 42.3083 41.1506 41.4298 41.1472 40.5135C41.1438 39.5972 41.2607 38.7187 41.4704 37.8339C41.577 37.3899 40.8309 37.201 40.7243 37.6449L40.714 37.626Z" fill="#B72D2D"/>
</svg>
