<svg width="56" height="60" viewBox="0 0 56 60" fill="none" xmlns="http://www.w3.org/2000/svg">
<path d="M30.1461 42.9493C24.6438 34.4714 17.7081 24.6336 12.2058 16.1558C11.7661 15.4796 11.3194 14.7826 11.1682 13.993C10.9929 13.0699 11.2393 12.1276 11.4828 11.222C12.4416 7.68358 13.3998 4.14764 14.3586 0.609238L14.8539 0.615122C18.0433 2.57706 21.2303 4.53825 24.419 6.50264C25.133 6.94292 25.8663 7.39981 26.347 8.08307C26.6933 8.57777 26.8861 9.15991 27.0704 9.73413C30.2244 19.4482 33.0974 29.2511 35.689 39.1267L30.1429 42.951L30.1461 42.9493Z" fill="#6D9EBF"/>
<path d="M30.4873 42.7688C27.1203 37.5854 23.6282 32.4846 20.1568 27.3687C18.4195 24.8075 16.687 22.2479 14.9761 19.6706C14.1616 18.4428 13.3478 17.2124 12.5469 15.9753C12.1593 15.3768 11.7482 14.7577 11.5783 14.0563C11.399 13.3145 11.5427 12.5503 11.7258 11.825C12.6633 8.10829 13.7275 4.41942 14.73 0.719848L14.3496 0.993209C14.4869 0.99476 14.6304 0.984781 14.7672 0.996911C14.7796 1.00067 14.8194 0.99402 14.8342 0.998538C14.6414 0.939814 14.884 1.08348 14.9223 1.10857C15.1251 1.23207 15.3246 1.35727 15.5274 1.48078C16.1874 1.8858 16.8466 2.29327 17.5066 2.69829C18.8623 3.53266 20.2181 4.36702 21.5738 5.20139C22.2696 5.63074 22.9661 6.05763 23.6619 6.48698C24.2463 6.8475 24.8619 7.18532 25.3922 7.62599C26.5129 8.55789 26.7891 10.1076 27.2133 11.4286C29.1006 17.3022 30.8834 23.2084 32.5657 29.143C33.5147 32.4922 34.4296 35.847 35.3138 39.214L35.5069 38.7842C33.8895 39.8995 32.2754 41.013 30.6581 42.1283L29.9633 42.6092C29.5594 42.8889 29.9208 43.5734 30.3287 43.2896C31.946 42.1743 33.5601 41.0608 35.1775 39.9455L35.8723 39.4646C36.0125 39.3677 36.1128 39.2157 36.0653 39.0348C34.4577 32.9082 32.7389 26.8095 30.9157 20.7434C30.0032 17.7087 29.0633 14.6844 28.0973 11.6657C27.8592 10.9221 27.6236 10.1793 27.379 9.43907C27.1683 8.80047 26.9237 8.1757 26.4964 7.64557C26.069 7.11544 25.5109 6.73071 24.9487 6.37696C24.276 5.95194 23.5955 5.54335 22.918 5.12494C21.3594 4.16707 19.8041 3.2075 18.2456 2.24963C17.4767 1.77654 16.7053 1.30269 15.9364 0.829604C15.6255 0.635574 15.2266 0.277871 14.8552 0.229163C14.6969 0.207802 14.5267 0.225743 14.3681 0.223082C14.2096 0.220421 14.0322 0.332815 13.9877 0.496443C13.074 3.86876 12.1603 7.24107 11.2459 10.6158C11.0444 11.3571 10.8227 12.1029 10.7436 12.868C10.6646 13.6331 10.792 14.3322 11.1002 15.0139C11.4085 15.6957 11.8234 16.2757 12.2194 16.8822C12.6154 17.4886 13.0233 18.1095 13.4277 18.7239C16.911 24.0045 20.4978 29.22 24.0413 34.4626C25.9852 37.339 27.9162 40.2222 29.8071 43.1307C30.0777 43.546 30.7621 43.1881 30.4898 42.7696L30.4873 42.7688Z" fill="#6D9EBF"/>
<path d="M32.4091 47.2813C32.4076 47.2747 32.4064 47.2685 32.4055 47.2626L37.8408 44.937C38.7443 47.1757 39.4324 49.3333 39.9671 51.6856L39.9339 51.7021L36.1955 53.5522C34.7697 51.6024 33.5091 49.523 32.4338 47.3512L32.4338 47.3512L32.4325 47.3486C32.4238 47.3316 32.415 47.3077 32.4091 47.2813ZM32.2741 47.0468C32.1135 47.0597 32.1337 47.3128 32.2097 47.4621L32.2741 47.0468Z" fill="#6D9EBF" stroke="#2F709D" stroke-width="0.5"/>
<path d="M32.1827 46.6729C31.3952 46.935 31.9449 47.8084 32.1884 48.2771C32.5417 48.9618 32.9143 49.6363 33.303 50.3023C34.0864 51.6415 34.9492 52.9323 35.8705 54.182L36.2679 53.5514L36.1749 53.5285L36.2454 54.2371L38.52 53.11L39.6014 52.575L39.885 52.4332C39.885 52.4332 40.152 52.2837 40.0809 52.3131C40.022 52.3381 40.1158 52.3049 40.1492 52.3016C40.1883 52.2974 40.2259 52.2982 40.2643 52.2964C40.5139 52.2839 40.7083 52.08 40.6513 51.8238C40.0879 49.2927 39.2967 46.8264 38.3186 44.4241C38.2352 44.2188 37.9689 44.1887 37.7946 44.2645C36.13 44.9761 34.4654 45.6878 32.8033 46.4002C32.5668 46.5026 32.3286 46.6019 32.0921 46.7043C31.6328 46.8999 32.0039 47.5794 32.4575 47.3847C34.1221 46.673 35.7867 45.9614 37.4488 45.249C37.6853 45.1465 37.9235 45.0473 38.16 44.9448L37.636 44.7852C38.5895 47.1264 39.3496 49.5349 39.8981 51.9997L40.2852 51.527C39.9891 51.5415 39.7903 51.6179 39.5203 51.7504L38.3245 52.3418L35.8783 53.5535C35.5882 53.6987 35.6222 54.1815 35.9488 54.2622L36.0417 54.2851C36.4365 54.3812 36.6624 53.9588 36.4391 53.6546C35.674 52.6189 34.9553 51.5464 34.2889 50.4442C33.9618 49.9044 33.6457 49.3545 33.3443 48.801C33.1936 48.5242 33.0437 48.245 32.8994 47.9649C32.826 47.8244 32.7551 47.6847 32.685 47.5425C32.6513 47.4759 32.6235 47.3896 32.5794 47.3305C32.5624 47.3066 32.5518 47.2792 32.5469 47.2509C32.5291 47.1408 32.4686 47.1975 32.3662 47.4186C32.8348 47.2634 32.6586 46.5118 32.1867 46.6687L32.1827 46.6729Z" fill="#6D9EBF"/>
<mask id="path-5-inside-1_341_1039" fill="white">
<path d="M40.7009 42.9781C37.1685 45.1395 33.3154 46.7844 29.3029 47.8439L29.1072 47.8836C28.6517 46.2041 29.127 44.3598 30.1447 42.9518C31.1624 41.5438 32.6726 40.5409 34.2925 39.8961C34.698 39.7352 35.1229 39.5908 35.5617 39.5956C35.9572 39.6006 36.3406 39.7254 36.7066 39.8718C38.2103 40.4774 39.5444 41.4985 40.5151 42.79"/>
</mask>
<path d="M40.7009 42.9781C37.1685 45.1395 33.3154 46.7844 29.3029 47.8439L29.1072 47.8836C28.6517 46.2041 29.127 44.3598 30.1447 42.9518C31.1624 41.5438 32.6726 40.5409 34.2925 39.8961C34.698 39.7352 35.1229 39.5908 35.5617 39.5956C35.9572 39.6006 36.3406 39.7254 36.7066 39.8718C38.2103 40.4774 39.5444 41.4985 40.5151 42.79" fill="#2F709D"/>
<path d="M29.3029 47.8439L29.4023 48.3339L29.4165 48.331L29.4306 48.3273L29.3029 47.8439ZM29.1072 47.8836L28.6246 48.0144L28.7473 48.4667L29.2065 48.3736L29.1072 47.8836ZM34.2925 39.8961L34.108 39.4314L34.1076 39.4316L34.2925 39.8961ZM35.5617 39.5956L35.5681 39.0956L35.5672 39.0956L35.5617 39.5956ZM36.7066 39.8718L36.8934 39.408L36.8923 39.4075L36.7066 39.8718ZM40.4399 42.5516C36.9491 44.6876 33.1409 46.3133 29.1753 47.3604L29.4306 48.3273C33.4899 47.2554 37.388 45.5914 40.9618 43.4046L40.4399 42.5516ZM29.2036 47.3538L29.0078 47.3935L29.2065 48.3736L29.4023 48.3339L29.2036 47.3538ZM29.5897 47.7527C29.181 46.2456 29.603 44.5547 30.5499 43.2447L29.7395 42.6589C28.651 44.1648 28.1224 46.1625 28.6246 48.0144L29.5897 47.7527ZM30.5499 43.2447C31.497 41.9345 32.9185 40.9812 34.4774 40.3607L34.1076 39.4316C32.4267 40.1006 30.8278 41.1532 29.7395 42.6589L30.5499 43.2447ZM34.4769 40.3609C34.877 40.202 35.223 40.0919 35.5562 40.0955L35.5672 39.0956C35.0228 39.0896 34.519 39.2683 34.108 39.4314L34.4769 40.3609ZM35.5553 40.0955C35.8553 40.0994 36.1681 40.195 36.5209 40.336L36.8923 39.4075C36.5131 39.2559 36.0592 39.1019 35.5681 39.0956L35.5553 40.0955ZM36.5198 40.3356C37.9396 40.9074 39.1998 41.8722 40.1154 43.0904L40.9147 42.4896C39.8889 41.1247 38.4811 40.0475 36.8934 39.408L36.5198 40.3356Z" fill="#2F709D" mask="url(#path-5-inside-1_341_1039)"/>
<path d="M40.2722 43.394C40.1867 43.3559 40.1088 43.2951 40.0435 43.2133C38.3849 44.1879 36.6638 45.056 34.8866 45.8022C33.9045 46.2161 32.9043 46.5918 31.8941 46.9294L31.8939 46.9295C31.8281 46.9513 31.7622 46.9734 31.696 46.9954C31.0469 47.2121 30.3771 47.4356 29.6975 47.6089C29.7069 47.6499 29.717 47.6909 29.7276 47.7318L29.7646 47.8738C30.4196 47.7061 31.0712 47.4888 31.7225 47.2715C31.7865 47.2501 31.8506 47.2288 31.9146 47.2074L40.2722 43.394ZM40.2722 43.394C38.5642 44.4057 36.7872 45.3009 34.9531 46.0671L34.9531 46.0671C33.9558 46.484 32.9398 46.8658 31.9147 47.2074L40.2722 43.394ZM28.8509 47.2865L28.9703 47.2626C29.0207 47.2525 29.0711 47.242 29.1215 47.2312C28.8553 45.2102 29.8118 43.2311 31.2776 41.8913L28.8509 47.2865ZM28.8509 47.2865C28.7064 46.2167 28.8873 45.1133 29.326 44.1158C30.2585 42.0028 32.2327 40.5247 34.4008 39.7094L34.401 39.7094C34.9941 39.4859 35.5502 39.3976 36.1409 39.5388L28.8509 47.2865ZM40.1623 42.5611C39.4133 41.6671 38.5063 40.9228 37.4694 40.371C36.9783 40.1096 36.3801 39.8052 35.7537 39.7411C35.1091 39.675 34.4939 39.946 33.9953 40.1656L33.9882 40.1687C33.9882 40.1688 33.9881 40.1688 33.9881 40.1688C33.0083 40.5988 32.0769 41.1604 31.2777 41.8913L40.1623 42.5611ZM40.1623 42.5611C40.2367 42.5165 40.3109 42.4716 40.3849 42.4265L40.3848 42.4263C40.3886 42.424 40.3924 42.4217 40.3962 42.4195C39.6853 41.5528 38.8132 40.8162 37.8355 40.264L37.8354 40.2639C37.2951 39.9586 36.7206 39.6774 36.1409 39.5388L40.1623 42.5611ZM40.5729 42.9012C40.5452 42.927 40.5194 42.9371 40.5025 42.9399C40.5294 42.9237 40.5562 42.9075 40.5831 42.8912C40.5798 42.8946 40.5764 42.898 40.5729 42.9012ZM28.9344 47.749L29.3115 47.9811C29.2574 47.9928 29.2032 48.0041 29.149 48.0149L29.1489 48.015C29.0655 48.0317 28.9923 47.9827 28.9739 47.9108L28.9736 47.9099C28.9597 47.8564 28.9466 47.8028 28.9344 47.749ZM28.7318 47.9731C28.7849 48.1799 28.9909 48.3017 29.1981 48.2601L28.7318 47.9731Z" fill="#2F709D" stroke="#2F709D" stroke-width="0.5"/>
<path d="M33.5149 49.2423L33.4833 49.2492C33.4494 49.2511 33.4284 49.2411 33.4137 49.2304C33.3899 49.2129 33.3666 49.1799 33.3561 49.136C33.3456 49.0919 33.3521 49.0549 33.3638 49.0327C33.3721 49.0169 33.3892 48.9948 33.4417 48.9833L33.388 48.7391L33.4414 48.9833C35.2843 48.5804 37.0232 47.7557 38.4734 46.5501L38.4741 46.5495C38.5149 46.5153 38.5488 46.5109 38.5767 46.5147C38.6105 46.5194 38.6495 46.5389 38.6809 46.5725C38.7126 46.6065 38.7233 46.6403 38.7237 46.6609C38.7239 46.6733 38.722 46.6975 38.6811 46.7314L38.6809 46.7316C37.1932 47.9686 35.4123 48.8283 33.5149 49.2423Z" fill="#2F709D" stroke="#2F709D" stroke-width="0.5"/>
<path d="M35.0477 51.8805L34.9505 51.6502C34.9007 51.6712 34.8533 51.6727 34.8188 51.6633C34.7879 51.6549 34.7625 51.6371 34.7439 51.6026C34.7316 51.5796 34.7247 51.5371 34.7369 51.4927C34.7488 51.4499 34.7694 51.4348 34.7795 51.4305L34.7798 51.4304C36.2908 50.7907 37.7555 50.0531 39.1683 49.2186L39.1685 49.2185C39.2144 49.1913 39.2396 49.1969 39.2533 49.2019C39.2744 49.2096 39.3032 49.2314 39.3249 49.2718C39.3464 49.3118 39.3518 49.3537 39.3454 49.3854C39.3402 49.4111 39.3257 49.4411 39.2793 49.4685L39.2792 49.4686C37.8885 50.2923 36.4412 51.0192 34.9503 51.6503L35.0477 51.8805ZM35.0477 51.8805C34.8556 51.9616 34.6288 51.9167 34.5237 51.7209C34.4306 51.5476 34.4901 51.2812 34.6823 51.2002L39.0412 49.0033C39.4695 48.75 39.8349 49.4303 39.4066 49.6837C38.0059 50.5133 36.5486 51.2452 35.0477 51.8805Z" fill="#2F709D" stroke="#2F709D" stroke-width="0.5"/>
<path d="M41.1518 51.9786C41.2249 51.9766 41.2983 51.9736 41.3715 51.9706C41.8416 51.9513 42.3058 51.9322 42.6444 52.1863C43.0624 52.4988 43.0491 53.1014 42.7695 53.5316C42.4899 53.9618 42.0105 54.2587 41.547 54.539L41.1518 51.9786ZM41.1518 51.9786C40.8171 51.9867 40.4909 52.0645 40.1875 52.2003L41.1518 51.9786ZM35.2244 56.2439L35.2244 56.2436C35.2227 55.4067 35.7607 54.5484 36.6121 54.0883L40.2896 52.4285C40.2898 52.4284 40.2899 52.4284 40.29 52.4283C40.5648 52.3054 40.8583 52.2358 41.1579 52.2285L41.1586 52.2285C41.2402 52.2263 41.3186 52.2231 41.3946 52.22C41.5878 52.212 41.7651 52.2047 41.938 52.2162C42.1719 52.2318 42.3539 52.2808 42.4944 52.3862L42.4947 52.3865C42.7666 52.5898 42.7991 53.0273 42.5599 53.3954C42.3169 53.7693 41.891 54.0388 41.4176 54.325L41.4173 54.3252C39.6267 55.4112 37.7677 56.4921 35.7092 56.5671L35.7085 56.5671C35.6054 56.5711 35.5111 56.569 35.4316 56.554C35.3524 56.5391 35.308 56.515 35.2834 56.4911C35.2477 56.4548 35.2245 56.3845 35.2244 56.2439Z" fill="#2F709D" stroke="#2F709D" stroke-width="0.5"/>
<path d="M36.4972 53.7175C36.4752 53.7275 36.4531 53.7375 36.431 53.7476C36.4157 53.7562 36.4004 53.7649 36.3851 53.7738C36.3688 53.7875 36.3653 53.7994 36.3637 53.8059C36.3592 53.8239 36.3603 53.8579 36.3823 53.8985C36.4039 53.9387 36.4371 53.9683 36.4701 53.9822C36.4925 53.9916 36.5197 53.9963 36.5547 53.9863M36.4972 53.7175C36.513 53.7158 36.5246 53.7188 36.5333 53.7221C36.5568 53.7309 36.5865 53.7544 36.6081 53.7946C36.6296 53.8347 36.6342 53.8751 36.6281 53.9042C36.6233 53.9269 36.6101 53.9552 36.5634 53.9814L36.5644 53.9832C36.5611 53.9844 36.5579 53.9854 36.5547 53.9863M36.4972 53.7175C36.5884 53.6762 36.6797 53.6348 36.7709 53.5935C36.849 53.5581 36.927 53.5228 37.0051 53.4875C36.9543 53.4151 36.8881 53.3503 36.8083 53.3021C37.2431 53.1054 37.6782 52.9093 38.113 52.7133C38.3931 52.587 38.6732 52.4607 38.953 52.3344C39.0853 52.275 39.2173 52.2151 39.3493 52.1552C39.5512 52.0636 39.7529 51.9721 39.9549 51.8826C40.6513 51.574 41.5267 51.4755 42.2808 51.6247C43.1722 51.8022 43.5928 52.6471 43.2237 53.4956C42.906 54.2256 42.1328 54.6659 41.4404 55.0601C41.3281 55.1241 41.2178 55.1869 41.112 55.2495M36.5547 53.9863C36.5576 53.9846 36.5606 53.983 36.5636 53.9813L36.5646 53.9832C36.5701 53.9813 36.5757 53.979 36.5816 53.9764L36.5816 53.9764C36.6807 53.9317 36.7798 53.8869 36.8789 53.842C36.9575 53.8064 37.036 53.7708 37.1146 53.7352C37.1341 53.8222 37.1368 53.915 37.1173 54.0076C37.1172 54.0079 37.1171 54.0082 37.1171 54.0086C37.3815 53.8887 37.6458 53.7685 37.9103 53.6483C38.7195 53.2805 39.5293 52.9124 40.3421 52.5535C40.5608 52.4564 40.7942 52.3906 41.0338 52.3669C41.0572 52.3646 41.0816 52.3621 41.1068 52.3596C41.4825 52.3216 42.0379 52.2654 42.3555 52.4527C43.074 52.8783 42.1099 53.7201 41.7385 53.9639C40.4543 54.8102 39.0438 55.6369 37.5649 56.0937C37.1381 56.2268 36.6997 56.3268 36.2553 56.3847C36.0502 56.4108 35.8408 56.4329 35.6373 56.4273C35.3986 56.4217 35.3591 56.3828 35.3683 56.1575C35.3911 55.4769 35.7805 54.8708 36.3053 54.4547C36.2206 54.4233 36.1449 54.3743 36.0814 54.3151C36.1466 54.2603 36.2138 54.2084 36.2825 54.1595C36.371 54.0965 36.462 54.0387 36.5547 53.9863Z" fill="#2F709D" stroke="#2F709D" stroke-width="0.5"/>
</svg>
