<svg width="9" height="27" viewBox="0 0 9 27" fill="none" xmlns="http://www.w3.org/2000/svg">
<path d="M4.65772 9.54C3.48172 9.54 2.48572 9.12 1.66972 8.28C0.853724 7.416 0.445724 6.372 0.445724 5.148C0.445724 3.948 0.853724 2.928 1.66972 2.088C2.48572 1.224 3.48172 0.791998 4.65772 0.791998C5.80972 0.791998 6.79372 1.224 7.60972 2.088C8.44972 2.928 8.86972 3.948 8.86972 5.148C8.86972 6.372 8.44972 7.416 7.60972 8.28C6.79372 9.12 5.80972 9.54 4.65772 9.54ZM4.65772 27C3.67372 27 2.94172 26.724 2.46172 26.172C2.00572 25.596 1.69372 24.744 1.52572 23.616C1.38172 22.464 1.30972 20.832 1.30972 18.72C1.30972 16.944 1.39372 15.54 1.56172 14.508C1.75372 13.476 2.08972 12.708 2.56972 12.204C3.04972 11.7 3.74572 11.448 4.65772 11.448C5.64172 11.448 6.36172 11.736 6.81772 12.312C7.29772 12.864 7.60972 13.716 7.75372 14.868C7.92172 15.996 8.00572 17.616 8.00572 19.728C8.00572 21.504 7.90972 22.908 7.71772 23.94C7.54972 24.972 7.22572 25.74 6.74572 26.244C6.26572 26.748 5.56972 27 4.65772 27Z" fill="#161D41"/>
</svg>
