<svg width="19" height="19" viewBox="0 0 19 19" fill="none" xmlns="http://www.w3.org/2000/svg">
<path d="M18.2946 18.3826C17.5391 19.1306 16.3217 19.1241 15.5746 18.3694L9.48604 12.2197L3.33635 18.3083C2.58087 19.0562 1.36428 19.0489 0.617167 18.2943C-0.129948 17.5397 -0.125145 16.3231 0.630328 15.5751L6.78002 9.48655L0.691476 3.33686C-0.0556389 2.58224 -0.0499804 1.36479 0.705492 0.616827C1.46097 -0.131134 2.67756 -0.12378 3.42467 0.630838L9.51322 6.78053L15.6629 0.691986C16.4184 -0.0559741 17.6358 -0.0494659 18.3829 0.705153C19.1301 1.45977 19.1244 2.67722 18.3689 3.42518L12.2192 9.51372L18.3078 15.6634C19.0566 16.4189 19.0505 17.6342 18.2946 18.3826Z" fill="#0B132F"/>
</svg>
