<svg width="27" height="25" viewBox="0 0 27 25" fill="none" xmlns="http://www.w3.org/2000/svg">
<path d="M22.2285 25H17.229C16.5207 25 15.9791 24.4581 15.9791 23.7495V19.7478C15.9791 18.3722 14.8543 17.2468 13.4794 17.2468C12.1046 17.2468 10.9797 18.3722 10.9797 19.7478V23.7495C10.9797 24.4581 10.4381 25 9.72982 25H4.73037C4.02211 25 3.4805 24.4581 3.4805 23.7495L3.48051 13.5H2.23065C1.68904 13.5 1.23076 13.1665 1.06411 12.6663C0.897463 12.1661 0.000244141 10.5 1.48072 9.28512L12.7295 0.281367C13.1878 -0.0937891 13.8544 -0.0937891 14.271 0.281367L25.5198 9.28512C26.5002 10.5 26.103 12.1661 25.9364 12.6663C25.7697 13.1665 25.2698 13.5 24.7699 13.5H23.52L23.52 23.7495C23.4783 24.4581 22.9367 25 22.2285 25Z" fill="#161D41"/>
</svg>
