<?xml version="1.0" encoding="UTF-8"?><svg id="Calque_2" xmlns="http://www.w3.org/2000/svg" viewBox="0 0 175 285.04"><defs><style>.cls-1,.cls-2,.cls-3,.cls-4,.cls-5,.cls-6,.cls-7,.cls-8,.cls-9,.cls-10,.cls-11,.cls-12,.cls-13,.cls-14,.cls-15,.cls-16,.cls-17,.cls-18{stroke-miterlimit:10;}.cls-1,.cls-2,.cls-3,.cls-4,.cls-5,.cls-7,.cls-8,.cls-9,.cls-10,.cls-12,.cls-13,.cls-14,.cls-15,.cls-16,.cls-17,.cls-18{stroke:#000;}.cls-1,.cls-17{fill:#f7b88b;}.cls-2,.cls-6{fill:none;}.cls-4{fill:#fafafa;}.cls-4,.cls-8,.cls-14,.cls-15,.cls-17{stroke-width:2px;}.cls-5,.cls-10,.cls-13{stroke-width:3px;}.cls-5,.cls-19{fill:#c9e1ff;}.cls-6,.cls-11{stroke:#1a0b00;}.cls-7{fill:#a16333;}.cls-9,.cls-14{fill:#301400;}.cls-10,.cls-20{fill:#6e401a;}.cls-21{fill:#1a0b00;}.cls-11{fill:#360b00;}.cls-12,.cls-15{fill:#fff;}.cls-13,.cls-22{fill:#996031;}.cls-23{fill:#912b37;}.cls-24{fill:#f4a36d;}.cls-16{fill:#ffdfc2;}.cls-18{fill:#e6ae9e;}</style></defs><g id="_16.Calque_57"><polygon class="cls-15" points="114.05 266.16 113.39 259.62 128.54 260 128.06 265.87 114.05 266.16"/></g><g id="_15.Calque_56"><polygon class="cls-15" points="72.71 265.07 58.7 265.36 58.04 258.82 72.71 257.92 72.71 265.07"/></g><g id="_14.pied_d"><g><path class="cls-8" d="m113.29,267.12c-.44,2.92-.8,5.84-1.09,8.77-.17,1.69-.24,3.59.97,4.84,1.17,1.22,3.11,1.39,4.86,1.48,7.35.38,21.56.88,23.58.37,7.45-1.87,5.32-6.12,2.59-7.29s-11.37-2.36-13.02-2.5c-1.51-.13-3.1-.93-3.48-2.3-.44-1.59.65-3.78-.85-4.62-.38-.21-.83-.26-1.27-.29-4.12-.33-8.27-.31-12.34.33.03.65.06,1.3.05,1.22Z"/><path class="cls-8" d="m112.93,265.93c-1.2,1.32-2.06,3.41-2.22,5.36,1.08-.6,2.19-1.12,3.32-1.58,1.1-.44,2.23-.82,3.41-.89,2.99-.18,5.87,1.6,8.85,2.22.52-.92.95-1.92,1.29-2.95.08-.24,3.68,1.56,3.63,1.31-.1-.57-2.58-3.72-3.41-3.89-.08-.02-7.57-.11-9.35-.03-2.32.1-3.95.18-5.53.46Z"/></g></g><g id="_13.pied_g"><g><path class="cls-8" d="m58.06,268.37c-.44,2.92-.8,5.84-1.09,8.77-.17,1.69-.24,3.59.97,4.84,1.17,1.22,3.11,1.39,4.86,1.48,7.35.38,21.56.88,23.58.37,7.45-1.87,5.32-6.12,2.59-7.29-2.64-1.14-11.37-2.36-13.02-2.5-1.51-.13-3.1-.93-3.48-2.3-.44-1.59.65-3.78-.85-4.62-.38-.21-.83-.26-1.27-.29-4.12-.33-8.27-.31-12.34.33.03.65.06,1.3.05,1.22Z"/><path class="cls-8" d="m57.7,267.18c-1.2,1.32-2.06,3.41-2.22,5.36,1.08-.6,2.19-1.12,3.32-1.58,1.1-.44,2.23-.82,3.41-.89,2.99-.18,5.87,1.6,8.85,2.22.52-.92.95-1.92,1.29-2.95.08-.24,3.68,1.56,3.63,1.31-.1-.57-2.58-3.72-3.41-3.89-.08-.02-7.57-.11-9.35-.03-2.32.1-3.95.18-5.53.46Z"/></g></g><g id="_12.cap_bas"><path class="cls-9" d="m49.82,186.7c-10.17-.27-20.35-.55-30.52-.82-1.9-.05-3.92-.04-5.52,1.89-1.6,1.93-3.66-5.07-3.81-1.41-.28,7.05,1.46,21.56,2.58,21.86,5.67,1.49,32.55-2.58,36.15-3.22,5.67-1.01,1.47-6.59,3.59-14.4.26-.95.51-2.08.26-3.02-.17-.61-.52-.97-.85-1.25-1.93-1.61-4.16-1.94-1.88.36Z"/></g><g id="_11.cap"><path class="cls-14" d="m17.54,163.58c-2-.09-7.76-19.03-8.14-4.06-.02.76-.03,1.59-.04,2.49-.08,6.97.11,17.68.51,23.25.77,10.59-5.94,20.88,21.57,13.27,20.62-5.7,19.48,6.08,22.29-7.73,2.13-10.46,3.55-53.36,3.21-55.36-.18-1.05-28.68,28.61-39.39,28.14Z"/></g><g id="_10.pantalon"><path class="cls-8" d="m115.98,171.02c14.59,51.4,15.23,88.51,15.23,88.51,0,0-20.12,3.74-26.77.68s-16.37-51.66-16.37-51.66c0,0,1.57,49.28-7.96,52.34s-27.46,0-27.46,0c-10.78-18.72,1.53-82.44,1.72-84.15l61.61-5.72Z"/></g><g id="_9.haut_corps"><g id="cou"><path class="cls-1" d="m79.71,82.94c-2.09,5-5.33,10.69-1.97,12.63.39.23,1.73.14,1.96.52.21.34.62.53,1.01.68,2.49.96,5.18,1.38,7.84,1.78,1.18.18,2.35.36,3.53.54,5.54.85,11.18,1.7,16.76,1.09.21-.02.44-.06.59-.2.13-.12.17-.3.2-.48.46-2.38.35-4.85-.32-7.18-2.31.07-4.66.13-6.88-.47-1.84-.5-3.5-1.43-5.3-2.03-1.44-.48-2.96-.74-4.45-1.09-4.23-1-8.22-2.74-12.15-4.52-.52-.23-.82-.27-1-.79.19-.05.12-.36.18-.48Z"/></g><g id="corps"><path class="cls-12" d="m54.72,92.88c6.22-1.71,12.48-3.29,18.78-4.73,1.57-.36,3.22-.71,4.79-.37,1.13.24,2.13.83,3.11,1.4,3.87,2.26,7.94,4.57,12.48,4.94,6.78.56,13.2-3.3,20.01-3.25,1.82.01,3.62.3,5.41.6,1.76.29,3.63.62,4.93,1.78.87.78,1.38,1.84,1.75,2.91,2.43,7.03-.38,14.89-5.17,20.76-3.26,4-7.37,7.31-11.59,10.42-7.5,5.51-16.28,10.67-25.79,10.06-7.63-.49-14.4-4.63-20.41-9.05-3.31-2.43-6.57-5.04-8.88-8.34-1.54-2.2-2.62-4.65-3.64-7.1-.57-1.36-1.13-2.76-1.22-4.22-.08-1.38.26-2.76.69-4.08,1.41-4.36,3.83-8.42,7.04-11.85-.88,0-1.74.45-2.21,1.14-.6-.18-.24-1.26-.08-1.02Z"/><path class="cls-19" d="m82.35,90.39l4.16,38.75,4.13-10.89s-4-5.25-4.61-13.22c-.98-13,1.55-11.92,1.55-11.92l-5.23-2.71Z"/><path class="cls-4" d="m119.42,90.95c-1.62,3.92-6.38,18.4-6.8,21.74-1.53,12.15,2.24,24.3,2.82,36.52.34,7.16-.41,14.31-.66,21.47-.09,2.49.09,5.39,2.24,6.87,1.76,1.2,4.19.97,6.3.47,10.26-2.42,21.05-3.99,26.64-12.39,1.38-2.07.22-9.88.71-12.28.52-2.6.11-5.29-.41-7.89-2.87-14.26-9.07-27.82-16.98-40.3-1.72-2.72-3.54-5.4-5.74-7.8-2.62-2.85-5.74-5.25-8.84-7.63.24.67.3,1.39.73,1.22Z"/><path class="cls-10" d="m82.33,94.24s2.89,28.72,5.08,42.46c.62,3.86,1.72,7.65,2.3,11.52.7,4.72.61,9.52.52,14.29-.23,11.72.51,24.63-5.96,34.89-2.62-4.17-20.98-16.85-25.22-18.84,1.84-18.65,1.21-37.43.58-56.16-.16-4.89-.33-9.8-1.34-14.6-1.15-5.45-2.44-9.65-2.46-14.23,9.46-4.86,15.07-5.56,20.46-7.01,4.73,3.63,2.87,2.1,4.69,3.71,1.37,1.21,1.36,3.98,1.36,3.98Z"/><path class="cls-19" d="m123.04,109.76s7.15,26.63,6.8,34.92-1.14,31.1-1.14,31.1l-6.7,1.55s-4.88,1.26-6.53-3.49-.05-.34-.05-.34l1.99-25.29,3.37-15.69s.7-8.16.7-8.23l1.55-14.54Z"/><path class="cls-13" d="m117.12,176.13c-9.5,8.03-20.02,15-31.25,20.75,2.7-7.07,4.35-14.5,4.87-22,.38-5.43.18-10.88-.02-16.32-.2-5.54-.41-11.07-.61-16.61-.04-1.11-.08-2.24-.42-3.31-.31-.97-.86-1.87-1.21-2.83-.69-1.89-.62-3.94-.41-5.92,1.05-9.8,7.43-22.98,12.05-31.83,5.62-10.74,4.03-11.64,4.03-17.28,0-.93.05-1.64.13-2.17.61-3.67,3.32,1.67,7.22,2.17,8.32,6.28,8.42,5.8,11.53,9.59-1.41,8.55-1.01,17.28-1.96,25.89-1.71,15.47-4.04,29.98-4.49,45.53-.16,5.68-3.23,12.03.54,14.34Z"/><path class="cls-4" d="m62.72,96.68c-.34-1.42-.67-2.94.04-4.19s3.78-.42-2.71.15c-7.79.68-14.35,4.17-19.1,8.56-4.74,4.39-7.88,9.66-10.98,14.87-3.95,6.64-7.89,13.28-11.84,19.92-1.5,2.52-3.77,7.59-5.36,12.6-.78,2.45-1.4,4.89-1.69,7-.53,3.83.62,10.2,2.11,11.29,1.21.89,11.86,20.95,13.37,21.49,2.85,1.01,19.23-8.63,21.87-9.52,1.69-.57,4.25-14.57,4.98-16.05,3.33-6.77,1.46-5.6,1.67-6.04,7.42-15.1,3.87-7.08,6.12-15.69,3.7-18.72,6.24-21.1,1.9-43.31-.17-.87-.58-2-.28-2.81"/><path class="cls-20" d="m103.18,187.07c-5.99,4.64-14.64,8.81-14.64,8.81,2.7-7.07,2.67-12.5,3.2-20,.38-5.43.18-10.88-.02-16.32-.2-5.54-.41-11.07-.61-16.61-.04-1.11-.08-2.24-.42-3.31-.31-.97-.86-1.87-1.21-2.83-.69-1.89-.62-3.94-.41-5.92,1.05-9.8,7.43-22.98,12.05-31.83,5.62-10.74,4.03-11.64,4.03-17.28,0-.93.05-1.64.13-2.17.61-3.67,3.32,1.67,7.22,2.17,8.32,6.28-8.52,30.21-9.3,44.05-1.86,18.58-3.79,58.94-.02,61.25Z"/></g><g id="Calque_34"><path class="cls-22" d="m78.68,90.39s.16,0,.46.13.51.46,1.92,1.31c0,0,3.7,39.2,3.91,39.2s-11.8,4.22-15.06,7.11v-9.11s8.36-32.15,8.77-38.64Z"/></g><g id="Calque_52"><path class="cls-19" d="m149.98,136.01c-1.19,7.43-.77,13.31-.1,17.47.78,4.86,1.71,6.86.62,9.94-1.83,5.17-7.46,7.76-10.7,9.25-3.39,1.07-7.27,2.26-11.59,3.51-6.19,1.79-8.93,2.45-10.95.94-1.36-1.02-2.01-2.59-2.21-3.68-.34-1.81-.08-5.51.12-7.33.2-1.87,1.01-7.44,1.01-7.44,0,0-.27-2.68.26-3.36l7.13-15.85"/></g></g><g id="_8.tête"><g id="TÊTE"><path class="cls-17" d="m62.36,18.33c.17,8.96.35,17.92.52,26.88.16,8.13.33,16.34,2.31,24.26.41,1.63.9,3.26,1.78,4.72.93,1.53,2.26,2.82,3.67,3.99,4.77,3.95,10.52,6.7,15.74,10.12,1.84,1.21,3.64,2.51,5.7,3.34,1.13.46,2.33.76,3.53,1.04,7.18,1.68,15.08,2.43,21.73-.6.85-.39,1.73-.89,2.11-1.71.35-.77.19-1.65.1-2.48-.38-3.84,1.12-7.59,2.07-11.34,1.19-4.68,1.52-9.5,1.76-14.31.31-6.21.46-12.44.46-18.66,0-1.46-.02-2.96-.56-4.33-.61-1.56-1.85-2.83-3.12-4-1.79-1.66-3.72-3.24-5.07-5.23-3.19-4.69-3.17-11.49-8.16-14.51-2.69-1.63-6.12-1.63-9.33-1.57-9.36.17-18.75.35-27.98,1.79-2.6.41-5.3.96-7.28,2.6Z"/><path d="m86.15,67.59c-.61-1.83-.47-3.84.03-5.7,1.78-6.66,8.07-11.6,14.84-12.52s13.76,1.84,18.75,6.55c1.72,1.62,3.27,3.54,3.84,5.84.33,1.33.09,3.08-1.19,3.55-.55.2-1.16.1-1.73,0-.68-.12-1.36-.24-2.05-.36-.4-.07-.8-.14-1.15-.35-.35-.2-.61-.52-.88-.82-1.37-1.49-3.14-2.6-5.08-3.17-4.29-1.26-8.92.15-12.89,2.22s-7.63,4.78-11.81,6.37c-.62-.61-.97-1.48-.69-1.6Z"/><path class="cls-1" d="m103.91,33.93c4.29,10.25,9.1,6.6,9.1,12.62s-10.87,3.12-11.38,2.69"/><path class="cls-2" d="m78.17,32.52c3.67,3.35,9.27,4.46,13.99,2.79.46-.16.93-.37,1.23-.76,1.22-1.57,1.2-1.96,1.47-2.9"/><path class="cls-2" d="m104.19,30.71c.83,1.08,2.12,1.87,3.56,2.18,1.44.31,3.02.14,4.38-.48.48-.22.94-.5,1.32-.85.72-.67,1.11-1.61,1.04-2.52"/><path class="cls-24" d="m71.82,34.68l-.89,19.32,5.26,23.6-8.46-8.4s-5.89-17.61-5.62-17.51,9.71-17,9.71-17Z"/><polygon class="cls-24" points="90.84 18.89 109.92 18.89 100.76 13.36 90.84 18.89"/><path d="m102.3,8.9c2.53,1.18,5.13,2.4,6.97,4.4,1.03,1.12,1.78,2.44,2.52,3.75,2.56,4.53,5.12,9.07,7.68,13.6.94,1.66,1.89,3.61,1.07,5.32-.96,0-1.81-.55-2.58-1.09-.99-.69-1.98-1.37-2.97-2.06-.84-.58-1.69-1.18-2.31-1.96-.49-.63-.82-1.36-1.13-2.09-1.04-2.45-1.95-4.96-3.3-7.28s-3.17-4.47-5.62-5.77c-1.87-.99-4.06-1.45-6.21-1.3-.39-1.74.46-3.66,2.05-4.63,1.59-.97,3.82-.92,3.82-.89Z"/><path d="m58.06,57.97c-1.03,6.48.67,13.04,2.36,19.4.39,1.46.86,3.04,2.16,3.92,1.41.96,3.51.75,4.87-.27,1.36-1.03,2.03-2.72,2.03-4.35,0-1.21-.32-2.39-.65-3.56-1.41-5.11-2.82-10.22-4.23-15.34-.25-.9-.51-1.83-1.09-2.59s-1.57-1.32-2.55-1.16c-1.32.21-2.05,1.54-2.38,2.76-.47,1.78-.49,3.66-.52,1.18Z"/><path class="cls-11" d="m62.95,55.67c3.01-6.78,6.46-13.38,10.31-19.77,1.79-2.96,3.69-5.91,6.23-8.34,6.44-6.16,16.15-8.32,23.24-13.81,1.39-1.08,2.79-2.62,2.36-4.26-.49-1.88-2.95-2.51-4.99-2.82-4.78-.71-9.62-1.41-14.45-1.06-11.41.85-21.71,7.84-27.54,17.05-5.82,9.21-7.49,20.36-6.27,31,.28,2.45,1.02,5.28,3.44,6.26,1.98.8,4.36-.07,5.84-1.53,1.47-1.47,2.24-3.42,1.84-2.71Z"/><path d="m64.06,66.86c3.2,1.12,5.22,4.01,7.44,6.44,1.43,1.56,3.02,2.98,4.69,4.3,3.59,2.83,7.1,6.09,11.51,7.59,5.02,1.7,5.48,2.71,10.23,2.71s8.47-10.32,11.57-10.32c1.46,0,4.99,10.94,6.28,10.32,3.83-1.83,2.38-5.68,3.12-5.87.18,2.14.87,4.56.48,6.67-.09.47-.2.95-.48,1.35-.27.38-.67.66-1.07.92-2.1,1.4-4.36,2.73-6.9,3.11-1.52.23-3.06.11-4.6,0-3.59-.28-7.23-.56-10.64-1.65-1.76-.56-3.44-1.34-5.08-2.16-4.64-2.31-9.05-5-13.45-7.68-1.69-1.03-3.38-2.06-4.88-3.32-.8-.68-1.55-1.41-2.37-2.08-1.76-1.43-4.06-2.87-4.02-5.05.02-.89.44-1.85-.03-2.62-.31-.51-.91-.77-1.4-1.12s-.92-.96-.41-1.53Z"/><path class="cls-16" d="m91.63,9.5c-1.36,1.09-2.21,2.8-2.24,4.54-.33-1.08-.43-2.23-.3-3.36-.85,1.07-1.39,2.38-1.54,3.74-.48-1.3-.22-2.84.66-3.9-1.02,2.22-2.41,4.26-4.1,6.01-.02-1.59.59-3.17,1.67-4.34-1.06.75-1.54,2.04-2.3,3.09-1.37,1.9-3.78,2.99-6.11,2.77,1.71-1.6,4.86-5.06,4.86-5.06,0,0-4.85,3.47-7.78,3.91s-5.92.16-8.86-.22c.33-.35.63-.73.88-1.14-1.74,1.49-4,2.36-6.29,2.42,1.01-.62,2.03-1.24,3.04-1.86-.78,1.11-2.4,1.9-3.87,2.26-.57.14-1.16.2-1.75.22l-4.92.19c.46-.87,1.71-1.42,2.15-2.46-2.23,1.78-5.26,2.31-8.1,2.56,0,0,2,.13,4.8-2.67-2.75,4.37-7.51,2.37-12.4.17-1.59-.72.06-4.1,3-5.78,1.65-.94,2.97-1.27,4.64-1.53l-3.67-.29c3.72-4.53,13.14-3.88,19.37-5.27,4.13-.92,8.75-2.01,12.23.2-1.69-.62-3.45-1.09-5.36-1.36,4.04-.02,8.81,1.82,8.81,1.82-1.11-.88.03-.23-1.26-1.17,3.89.01,7.78,1.06,11.15,3-.7-1.35-.58-3.07.29-4.31-.07,1.64.27,3.29.99,4.77,0-1.22,1.54-2.14,2.62-1.56-.44.25-.93.4-1.44.43.06.86.37,1.71,1.12,4.17Z"/><path class="cls-3" d="m103.27,10.13c-3.05,1.24-6.48.15-9.73-.4-1.78-.3-3.59-.43-5.39-.57-11.51-.84-23.31-1.66-34.4,1.53-4.5.73-10.46,2.67-10.46,2.67,2.53-1.82,7.65-2.91,8.94-3.36,1.21-.43,4.34-.89,5.73-1.12,3.1-.5,6.21-.96,9.31-1.3,5.12-.19,10.25-.6,15.37-.3,2,.12,4,.35,6,.7,1.76.02,3.5.24,5.25.46.53.07,1.07.14,1.6.2,2.66.34,5.32.67,7.91,1.34.02.11-.13.21-.12.14Z"/><ellipse class="cls-6" cx="102.62" cy="10.11" rx="1.52" ry="1.42"/></g><path class="cls-21" d="m102.52,25.75c1.37-.58,2.83-1.14,4.32-1.3.71-.08,1.42-.02,2.13-.08.28-.02.56-.06.84-.12.37-.09.85-.37,1.22-.29.16.04.68-.21.36-.28-.69-.15-1.36.31-2.03.39-.81.09-1.62.02-2.43.11-1.59.18-3.16.76-4.63,1.38-.37.16-.03.3.22.19h0Z"/><g><path class="cls-21" d="m109.42,23.68c.05-.05.06-.13.04-.19-2.51.15-4.98.86-7.19,2.06l.13-.07c.21.63.35,1.29.4,1.96.48-.05.93-.28,1.36-.5,2.09-1.05,4.31-1.86,6.58-2.42"/><path class="cls-21" d="m109.71,23.64c.06-.11.05-.1.04-.23,0-.06-.13-.07-.17-.06-2.62.17-5.17.89-7.48,2.13-.34.18.18.22.35.13l.13-.07h-.46c.21.65.34,1.31.4,1.98,0,.08.2.06.24.06.62-.08,1.17-.36,1.72-.64.68-.33,1.37-.64,2.07-.93,1.38-.56,2.79-1.01,4.23-1.37.34-.09.28-.33-.06-.24-1.34.33-2.66.74-3.94,1.24-.63.24-1.25.51-1.87.79-.65.3-1.33.76-2.05.86l.24.06c-.06-.67-.19-1.32-.4-1.96-.05-.15-.38-.03-.46.01l-.13.07.35.13c2.13-1.15,4.48-1.82,6.9-1.98l-.17-.06-.03.16c-.07.13.49.08.58-.09h0Z"/></g><g><path class="cls-21" d="m73.95,26.08c3-1.14,6.29-1.29,9.49-1.09s6.38.72,9.58.87h.09c-.06.97-.2,1.94-.41,2.89-.85-.38-1.76-.62-2.66-.85-4.1-1.06-8.24-2.13-12.47-2.33"/><path class="cls-21" d="m74.04,26.13c3.65-1.34,7.56-1.23,11.36-.86,1.72.17,3.43.38,5.16.54.25.02,2.16,0,2.26.16.07.1-.08.84-.11,1.06-.07.6-.18,1.19-.31,1.77l.56-.15c-2.34-1-4.99-1.48-7.46-2.04s-5.14-1.01-7.75-1.15c-.12,0-.65.2-.38.22,2.58.14,5.13.58,7.66,1.15s5.08,1.04,7.39,2.02c.1.04.53-.02.56-.15.21-.96.35-1.93.42-2.91,0-.03-.09-.03-.1-.03-1.72.04-3.49-.27-5.2-.46s-3.43-.38-5.16-.45c-3.08-.14-6.18.11-9.09,1.19-.39.14-.02.19.19.11h0Z"/></g></g><g id="_7.bouche"><path class="cls-18" d="m95.79,64.44c.27,2.05,1.57,3.98,3.52,5.22,2.88,1.84,7.06,2.02,10.21.52s5.12-4.55,5.03-7.59c0-.28-.04-.57-.23-.79-.13-.15-.32-.26-.51-.35-1.59-.79-3.45-1.19-5.29-1.12-1.05.04-2.09.22-3.12.41-1.81.33-3.64.66-5.3,1.34-1.66.68-3.17,1.75-4.31,2.36Z"/><g id="langue"><path class="cls-23" d="m100.6,69.56s6.47-7.01,12.56-3.21c0,0-3.86,6.98-12.56,3.21Z"/></g></g><g id="_6.bas_luth"><g id="corps_du_luth"><path class="cls-7" d="m119.69,127.58c-22.63-2.3-45.29,6.12-63.69,18.64-2.57,1.75-5.1,3.6-7.1,5.91-1.8,2.07-3.13,4.46-4.43,6.84-.89,1.62-1.79,3.31-1.85,5.13-.04,1.27.32,2.51.73,3.72,2.95,8.81,8.1,16.97,14.94,23.63,3.4,3.31,7.44,6.36,12.26,7.19,4.92.85,9.96-.73,14.4-2.88,14.73-7.1,25.09-20.08,34.04-33.13,1.84-2.68,3.65-5.4,5.05-8.31,1.37-2.85,2.34-5.85,3.3-8.85.83-2.6,1.68-5.3,1.21-7.98-.03-.19-.05-.31-.06-.4-.09-.7.3,1.39-3.1-2.47-1.39-1.58-1.17-1.61-3.44-4.18-.89-1-.93-1.72-1.21-2.03-.51-.58.24-.72-1.06-.85Z"/><path d="m50.95,165.11c-.18,1.06.54,2.06,1.23,2.93.91,1.14,1.82,2.29,2.74,3.43,1.38,1.73,2.76,3.46,4.13,5.19,1.04,1.31,2.08,2.61,3.12,3.92,2.68,3.37,5.39,6.76,8.71,9.58.15-1.18.3-2.44-.25-3.51-.18-.36-.44-.69-.69-1.02-3.2-4.1-6.46-8.16-9.71-12.23-1.96-2.45-3.93-4.91-5.89-7.36-.24-.3-.49-.61-.82-.82-.83-.53-1.94-.35-2.57-.11Z"/><ellipse class="cls-6" cx="95" cy="153.31" rx="9.63" ry="8.63"/></g></g><g id="_5.manche_luth"><g id="Calque_31"><path class="cls-7" d="m166.29,108.43c-1.87-2.19-3.75-4.39-5.09-6.9.59-.35,1.3-.48,1.98-.63,1.92-.43,3.78-1.09,5.53-1.95.09-.04.19-.09.28-.06.05.02.09.05.13.09.94.84,1.73,1.82,2.35,2.88.04.07.09.15.08.24,0,.09-.06.17-.12.25-1.64,2.15-4.15,3.62-5.16,6.08Z"/></g><polyline class="cls-7" points="127.45 137.81 119.15 127.44 123.34 125 129.29 120.96 136.49 116.34 146.32 109.67 146.84 109.32 159.01 102.04 164.2 108.22 165.01 109.7 160.53 113.07 127.63 137.85"/><g id="Calque_29"><line class="cls-7" x1="156.48" y1="97.77" x2="161.2" y2="101.54"/></g><g id="Calque_28"><line class="cls-7" x1="158.84" y1="96.83" x2="163.18" y2="100.9"/></g><g id="Calque_27"><line class="cls-7" x1="157.86" y1="97.06" x2="161.97" y2="100.9"/></g><g id="Calque_26"><line class="cls-7" x1="160.09" y1="96.27" x2="164.22" y2="100.13"/></g><g id="Calque_25"><line class="cls-7" x1="161.2" y1="95.61" x2="165.99" y2="100.09"/></g><g id="Calque_24"><line class="cls-7" x1="162.56" y1="95.23" x2="167.25" y2="99.61"/></g><g id="Calque_23"><line class="cls-7" x1="166.57" y1="108.43" x2="169.36" y2="113.27"/></g><g id="Calque_22"><line class="cls-7" x1="167.25" y1="106.8" x2="170.81" y2="111.99"/></g><g id="Calque_21"><line class="cls-7" x1="168.16" y1="106.18" x2="171.56" y2="110.85"/></g><g id="Calque_20"><line class="cls-7" x1="169.03" y1="105.14" x2="172.69" y2="109.7"/></g><g id="Calque_19"><line class="cls-7" x1="169.86" y1="104.49" x2="173.69" y2="108.07"/></g><g id="Calque_18"><line class="cls-7" x1="170.61" y1="103.33" x2="174.66" y2="107.11"/></g><g id="Calque_17"><polygon id="Main_gauche" class="cls-12" points="165.35 109.49 158.97 102.09 160.3 101.09 166.68 108.49 165.35 109.49"/></g></g><g id="corde"><line class="cls-2" x1="61.6" y1="175.18" x2="161.71" y2="104.82"/></g><g id="corde-2"><line class="cls-2" x1="55.44" y1="168.75" x2="158.93" y2="102.69"/></g><g id="corde-3"><line class="cls-2" x1="65.39" y1="180.12" x2="164.39" y2="107.3"/></g><g id="corde-4"><line class="cls-2" x1="61.37" y1="177.18" x2="162.39" y2="107.3"/></g><g id="corde-5"><line class="cls-2" x1="58.66" y1="171.14" x2="160.39" y2="104.1"/></g><g id="corde-6"><line class="cls-2" x1="67.58" y1="182.27" x2="164.39" y2="109.38"/></g><g id="corde-7"><line class="cls-2" x1="59.66" y1="173.32" x2="161.71" y2="104.82"/></g><g id="corde-8"><line class="cls-2" x1="63.37" y1="177.54" x2="164.39" y2="107.3"/></g><g id="_4.corde_1"><line class="cls-2" x1="57.59" y1="169.92" x2="158.93" y2="102.69"/></g><g id="_3.main_g"><path class="cls-17" d="m26.34,176.44c47.98,11.24,62.48,3.89,65.93,2.36,10.27-4.58-4.82-29.99-14.76-23.55-1.67,1.08-4.7,6.8-14.25,6.23-21.78-1.29-16.39-8.1-16.39-8.1,2.17-7.88-29.71,20.92-20.53,23.07Z"/><path class="cls-24" d="m32.04,164.88s41.25,16.48,60.81,1.16c0,0,3.7,7.49.25,10.67,0,0-4.05,4.69-18.34,4.73,0,0-37.39-1.23-43.46-5.31l.74-11.25Z"/><path class="cls-5" d="m11.69,152.16s-1.33,6.26.07,11.03,4.09,9.12,6.74,13.4c1.9,3.07,3.8,6.14,5.7,9.2.77,1.25,1.99,2.68,3.48,2.33.32-.98.29-2.06-.11-1.69-.77-2.07.49-4.28,1.71-6.16,1.73-2.67,3.47-5.35,5.2-8.02s8.82-16.39,13.52-15.21c3.64.92,5.63,3.53,4.76,1.18-.54-1.47-10.22-11.82-10.22-11.82"/></g><g id="_2.DESSUS_DE_MANTEAU"><path id="DESSUS_DE_MANTEAU" class="cls-14" d="m72.51,86.08C46.37,88.6,1.19,120.2,1,194.89c0,1.29,9.11,5.01,22.27,5.01,11.53,0,.77-5.17,3.27-17.08,0,0,.17-11.24,11.34-21.69,26.06-24.37,37.43-74.2,37.43-74.2l-2.8-.85Z"/></g><g id="_1.main_d"><path id="Main_doite" class="cls-17" d="m133.07,167.22c4.28-1,12.51-6.1,14.73-8.4,1.53-1.58,29.43-29.87,23.32-45.26-2.97-7.48-25.26-8.68-24.61,3.15.11,1.98.61,3.91.57,5.91-.1,4.62-.17,9.94-4.98,15.63-4.06,4.81-4.95,5.83-4.95,5.83,0,0-13.25,25.3-4.08,23.16Z"/><path class="cls-24" d="m155.44,109.11c.36.86-2.34,10.43.06,17.3,2.4,6.86-14.69,31.48-18.96,36.32-4.1,4.65-4.96,3.57-4.96,3.57,0,0-2.53-.89,1.34-10.43,0,0,2.21-6,5.02-11.19,0,0,7.32-6.99,9.49-14.94.24-.87.66-6.68.66-6.68l-.49-6.6c-.09-.48-.2-1.4.13-2.47.49-1.59,1.61-2.45,2-2.72.67-.49,1.64-1.08,2.89-1.53,1.08-.39,2.06-.56,2.81-.64Z"/></g></svg>