<svg width="93" height="196" viewBox="0 0 93 196" fill="none" xmlns="http://www.w3.org/2000/svg">
<path d="M38.9548 190.423C38.9548 191.057 38.703 191.665 38.2548 192.113C37.8066 192.561 37.1986 192.813 36.5648 192.813H15.5048C15.1914 192.813 14.8811 192.751 14.5917 192.631C14.3023 192.511 14.0395 192.334 13.8183 192.112C13.5972 191.89 13.4221 191.627 13.3031 191.337C13.184 191.047 13.1235 190.736 13.1248 190.423V188.723C13.1248 188.092 13.3755 187.486 13.8219 187.04C14.2682 186.594 14.8736 186.343 15.5048 186.343H27.0348C27.6669 186.343 28.2733 186.092 28.7212 185.646C29.1692 185.2 29.4221 184.595 29.4248 183.963V178.173C29.4235 177.86 29.4841 177.55 29.6033 177.261C29.7224 176.971 29.8976 176.708 30.1189 176.487C30.3402 176.266 30.6031 176.09 30.8924 175.971C31.1818 175.852 31.4919 175.792 31.8048 175.793H36.5648C36.8782 175.792 37.1887 175.852 37.4786 175.971C37.7685 176.09 38.0321 176.265 38.2542 176.486C38.4762 176.708 38.6524 176.97 38.7727 177.26C38.8929 177.549 38.9548 177.859 38.9548 178.173V190.423Z" fill="black" stroke="black" stroke-width="3"/>
<path d="M45.6449 158.773C46.0272 161.516 45.7929 164.311 44.9591 166.952C44.1253 169.594 42.713 172.016 40.8249 174.043L44.0949 176.693V176.753H24.9249L26.7549 174.603C19.2149 166.003 20.9949 159.173 21.0949 158.803H45.6049C45.6049 158.803 45.6349 158.763 45.6449 158.773Z" fill="#DFDFDF" stroke="black" stroke-width="3"/>
<path d="M31.6847 172.363L30.2847 169.303" stroke="black"/>
<path d="M36.1348 172.023L37.0248 168.963" stroke="black"/>
<path d="M24.5048 168.623L37.0748 160.233L22.4548 160.303C22.3825 161.797 22.5342 163.294 22.9048 164.743C23.252 166.105 23.7907 167.412 24.5048 168.623Z" fill="#DBEDFF"/>
<path d="M68.9046 175.333C69.6835 175.396 70.4095 175.752 70.9365 176.329C71.4635 176.906 71.7522 177.661 71.7446 178.443C71.7446 182.793 71.8246 190.543 71.5946 191.513C71.3646 192.483 69.9546 193.113 69.1746 193.393C68.854 193.508 68.5154 193.566 68.1746 193.563H48.8546C48.0385 193.539 47.2649 193.194 46.7028 192.602C46.1407 192.009 45.8357 191.219 45.8546 190.403C45.8389 189.614 46.1236 188.849 46.6509 188.262C47.1782 187.676 47.9087 187.311 48.6946 187.243L58.6946 186.593C59.4742 186.52 60.1973 186.154 60.7186 185.57C61.2398 184.986 61.5206 184.226 61.5046 183.443V178.203C61.4945 177.78 61.5715 177.36 61.7307 176.969C61.8899 176.578 62.1279 176.223 62.4299 175.928C62.7319 175.632 63.0915 175.402 63.4862 175.252C63.881 175.101 64.3025 175.033 64.7246 175.053L68.9046 175.333Z" fill="black" stroke="black" stroke-width="3"/>
<path d="M77.7446 159.623C78.1199 162.34 77.9146 165.106 77.1424 167.738C76.3702 170.37 75.0485 172.809 73.2646 174.893L76.2646 177.553H58.5046L60.2146 175.403C53.2146 166.803 54.8546 159.973 54.9446 159.603H77.7146C77.7146 159.603 77.7446 159.613 77.7446 159.623Z" fill="#DFDFDF" stroke="black" stroke-width="3"/>
<path d="M65.6245 172.363L64.3445 169.303" stroke="black"/>
<path d="M69.1846 172.363L69.4646 169.303" stroke="black"/>
<path d="M58.0847 169.573L70.7247 161.043L56.1047 161.113C56.0324 162.607 56.1841 164.104 56.5547 165.553C56.8856 166.954 57.4001 168.306 58.0847 169.573Z" fill="#DBEDFF"/>
<path d="M72.5048 59.9828L72.8248 70.1928C67.1048 76.8328 42.0448 77.6028 42.0448 77.6028C42.0448 77.6028 21.7648 74.0128 18.2648 69.4228C14.9548 65.0928 18.4548 50.1328 18.4548 50.1328L12.5048 51.0628C5.00478 46.5028 8.22478 40.4128 10.3248 37.6828C10.6933 37.2106 11.1859 36.8502 11.7474 36.6418C12.309 36.4334 12.9174 36.3853 13.5048 36.5028L21.5048 38.1928L20.2148 36.7628C20.4162 36.4424 20.5504 36.0844 20.6091 35.7106C20.6678 35.3367 20.6498 34.9548 20.5562 34.5881C20.4627 34.2215 20.2955 33.8776 20.0649 33.5776C19.8343 33.2775 19.5451 33.0275 19.2148 32.8428L18.5748 27.3728C18.4503 26.3368 18.6531 25.2878 19.1548 24.3728L21.7148 19.6828H58.7148L81.7148 40.4228L72.5048 59.9828Z" fill="#F4C06D" stroke="black" stroke-width="2"/>
<path d="M69.3247 43.0828C69.3247 43.0828 69.9647 40.2328 73.9147 41.0028" stroke="black"/>
<path d="M72.7048 48.1528C74.4948 46.5528 74.1748 44.1528 71.8748 40.9328Z" fill="#F4A36D"/>
<path d="M72.7048 48.1528C74.4948 46.5528 74.1748 44.1528 71.8748 40.9328" stroke="black"/>
<path d="M33.1448 26.3328L28.8548 31.5028C26.7612 31.5638 24.6895 31.0632 22.8548 30.0528C21.3931 29.244 20.1267 28.1244 19.1448 26.7728L19.2148 24.3428L33.1448 26.3328Z" fill="#F4A36D"/>
<path d="M24.3949 39.7428C22.9549 39.7428 17.7349 38.2528 13.5549 37.4628C12.953 37.4748 12.355 37.5622 11.7749 37.7228C9.70487 38.6428 7.77487 44.5428 9.41487 46.7228C10.1885 48.1199 11.3574 49.2574 12.7749 49.9928C12.4149 49.7628 13.2249 43.1128 14.7749 41.7428C16.6149 40.1428 24.0149 39.9628 24.3949 39.7428Z" fill="#F4A36D"/>
<path d="M23.9349 35.0328C23.9349 35.0328 23.3349 35.5128 23.7049 35.9028L21.5049 36.0828C21.572 35.7911 21.6022 35.4921 21.5949 35.1928C21.5844 34.8945 21.5543 34.5972 21.5049 34.3028C22.3449 34.5028 23.1349 34.8628 23.9349 35.0328Z" fill="#F4A36D"/>
<path d="M26.9047 56.9628L32.1747 74.2528C27.7347 73.9628 30.1747 73.9428 26.1747 72.6028C23.331 71.9435 20.7312 70.4946 18.6747 68.4228C18.4034 67.3124 18.1964 66.1872 18.0547 65.0528C17.2447 59.0628 25.6747 60.6928 26.9047 56.9628Z" fill="#F4A36D"/>
<path d="M23.3247 62.2728C17.7947 62.2728 30.1347 62.2728 30.1347 62.2728Z" fill="black"/>
<path d="M23.3247 62.2728C17.7947 62.2728 30.1347 62.2728 30.1347 62.2728" stroke="black" stroke-width="3"/>
<path d="M52.3047 22.5928L60.1847 31.1228C60.1847 31.1228 58.8947 20.0028 58.8147 19.6828C58.7347 19.3628 52.3047 22.5928 52.3047 22.5928Z" fill="#F4A36D"/>
<path d="M76.5046 51.2228C76.5046 51.2228 80.6546 42.9728 74.3246 39.2228C70.4446 36.9128 67.8146 40.9028 66.0446 43.0528C62.9246 46.8028 60.4246 43.0528 60.4246 43.0528C60.6646 20.5028 57.7346 20.5028 56.7446 21.1928C56.2821 21.472 55.7745 21.6683 55.2446 21.7728C50.6246 22.9128 30.3046 29.9828 18.5046 24.1728C2.64457 16.4028 13.8946 -8.1372 31.6846 4.6028C35.5746 7.3928 54.8146 12.2528 72.1746 19.4028C89.5346 26.5528 86.2646 74.5028 86.2646 74.5028C82.8646 81.9928 73.9146 71.3028 73.9146 71.3028L72.0046 60.9428C70.3346 62.4528 69.3946 54.2828 69.3946 54.2828C70.7461 54.4708 72.1234 54.285 73.3768 53.7456C74.6303 53.2061 75.712 52.3336 76.5046 51.2228Z" fill="black" stroke="black"/>
<path d="M33.3246 32.3728C33.3246 32.3728 45.1946 29.0028 50.5546 25.9428C55.9146 22.8828 51.7046 30.7628 49.7946 32.3728C47.8846 33.9828 36.3846 35.3728 36.3846 35.3728C36.3846 35.3728 36.2546 36.9028 35.3846 36.6528C34.5673 36.3273 33.9021 35.7068 33.5206 34.9142C33.1391 34.1216 33.0691 33.2146 33.3246 32.3728Z" fill="black" stroke="black"/>
<path d="M30.1246 36.5028C30.6036 35.8446 30.8923 35.0674 30.9594 34.2561C31.0264 33.4448 30.8691 32.6307 30.5046 31.9028C30.5046 31.9028 20.3346 30.0028 18.5046 25.7128C17.9446 24.4628 17.5046 30.9628 17.5046 30.9628C17.5046 30.9628 18.6746 33.5928 24.0946 34.5328C25.9917 34.7321 27.8044 35.4214 29.3546 36.5328C29.4062 36.5833 29.4675 36.6227 29.5348 36.6487C29.6021 36.6746 29.674 36.6866 29.7461 36.6838C29.8182 36.681 29.8889 36.6635 29.954 36.6323C30.0191 36.6012 30.0772 36.5572 30.1246 36.5028Z" fill="black" stroke="black"/>
<path d="M23.5047 48.1528C23.5047 48.1528 8.68466 55.7728 2.68466 67.5028C0.444664 71.9028 4.50466 73.1828 3.50466 72.9528C2.50466 72.7228 7.90466 68.2928 7.90466 68.2928L22.0147 58.9728C22.0147 58.9728 41.6147 65.6228 44.0147 70.7528C45.5047 73.7728 46.5047 66.2028 46.5047 66.2028C46.5047 66.2028 43.2847 57.8828 23.5047 48.1528Z" fill="black" stroke="black" stroke-width="3"/>
<path d="M25.3846 67.0628L23.0546 69.6328C23.0137 69.678 22.986 69.7336 22.9747 69.7935C22.9634 69.8535 22.9689 69.9153 22.9907 69.9723C23.0125 70.0293 23.0496 70.0791 23.0979 70.1163C23.1463 70.1534 23.204 70.1765 23.2646 70.1828L28.0746 70.5628C28.1394 70.568 28.2042 70.5539 28.261 70.5225C28.3178 70.491 28.364 70.4434 28.3939 70.3858C28.4238 70.3281 28.436 70.2629 28.429 70.1984C28.4221 70.1338 28.3962 70.0727 28.3546 70.0228L25.8846 67.0228C25.8501 66.9907 25.8093 66.966 25.7647 66.9505C25.7202 66.935 25.6729 66.929 25.6258 66.9327C25.5788 66.9365 25.5331 66.95 25.4916 66.9724C25.45 66.9948 25.4136 67.0256 25.3846 67.0628Z" fill="black" stroke="black" stroke-width="3"/>
<path d="M19.8647 68.4228L18.3347 157.973C18.332 158.029 18.3408 158.085 18.3608 158.138C18.3808 158.191 18.4115 158.239 18.4509 158.279C18.4903 158.32 18.5377 158.352 18.59 158.373C18.6422 158.394 18.6983 158.404 18.7547 158.403H81.8547C81.9522 158.404 82.0486 158.383 82.1367 158.341C82.2248 158.299 82.3022 158.238 82.3629 158.162C82.4237 158.086 82.4663 157.997 82.4874 157.901C82.5085 157.806 82.5076 157.708 82.4847 157.613L79.0947 142.243L74.5647 98.5028L87.5647 82.3228C87.5647 82.3228 79.7947 70.1228 75.6347 71.4328C35.1447 84.2028 20.0847 69.8028 20.0847 69.8028" fill="#333333"/>
<path d="M19.8647 68.4228L18.3347 157.973C18.332 158.029 18.3408 158.085 18.3608 158.138C18.3808 158.191 18.4115 158.239 18.4509 158.279C18.4903 158.32 18.5377 158.352 18.59 158.373C18.6422 158.394 18.6983 158.404 18.7547 158.403H81.8547C81.9522 158.404 82.0486 158.383 82.1367 158.341C82.2248 158.299 82.3022 158.238 82.3629 158.162C82.4237 158.086 82.4663 157.997 82.4874 157.901C82.5085 157.806 82.5076 157.708 82.4847 157.613L79.0947 142.243L74.5647 98.5028L87.5647 82.3228C87.5647 82.3228 79.7947 70.1228 75.6347 71.4328C35.1447 84.2028 20.0847 69.8028 20.0847 69.8028" stroke="black" stroke-width="3"/>
<path d="M21.3047 72.6028C27.3047 75.6028 39.3047 77.9928 39.3047 77.9928L39.1147 85.3828C32.7847 87.8228 21.0547 87.5828 21.0547 87.5828L21.3047 72.6028Z" fill="#232361"/>
<path d="M26.8148 157.413C27.2548 156.563 26.8148 88.1428 26.8148 88.1428L20.9648 86.3628L20.1948 157.413H26.8148Z" fill="#232361"/>
<path d="M57.2147 77.3628C51.8699 78.1179 46.4697 78.409 41.0747 78.2328V84.7228L57.2147 77.3628Z" fill="#232361"/>
<path d="M23.7748 91.3428C24.7748 91.6028 29.6348 94.4128 33.5748 93.1228C33.6434 93.1004 33.7163 93.0947 33.7876 93.1063C33.8588 93.118 33.9262 93.1466 33.984 93.1897C34.0418 93.2328 34.0885 93.2893 34.1199 93.3542C34.1514 93.4191 34.1668 93.4907 34.1648 93.5628V104.353C34.1648 104.353 31.6348 108.733 28.8848 108.483C26.7348 108.293 26.3548 107.713 23.6048 105.203V91.5028C23.6009 91.48 23.6027 91.4566 23.61 91.4347C23.6173 91.4128 23.63 91.393 23.6468 91.3772C23.6637 91.3613 23.6842 91.3499 23.7065 91.3439C23.7288 91.3379 23.7523 91.3375 23.7748 91.3428Z" fill="#333333" stroke="black" stroke-width="2"/>
<path d="M40.0747 76.8628V158.653" stroke="black" stroke-width="2"/>
<path d="M43.7447 85.3428C44.2638 85.3428 44.6847 85.1503 44.6847 84.9128C44.6847 84.6753 44.2638 84.4828 43.7447 84.4828C43.2255 84.4828 42.8047 84.6753 42.8047 84.9128C42.8047 85.1503 43.2255 85.3428 43.7447 85.3428Z" stroke="black" stroke-width="2"/>
<path d="M43.7447 92.6228C44.2638 92.6228 44.6847 92.4303 44.6847 92.1928C44.6847 91.9553 44.2638 91.7628 43.7447 91.7628C43.2255 91.7628 42.8047 91.9553 42.8047 92.1928C42.8047 92.4303 43.2255 92.6228 43.7447 92.6228Z" stroke="black" stroke-width="2"/>
<path d="M43.7447 99.9128C44.2638 99.9128 44.6847 99.7606 44.6847 99.5728C44.6847 99.385 44.2638 99.2328 43.7447 99.2328C43.2255 99.2328 42.8047 99.385 42.8047 99.5728C42.8047 99.7606 43.2255 99.9128 43.7447 99.9128Z" stroke="black" stroke-width="2"/>
<path d="M43.7447 107.503C44.2638 107.503 44.6847 107.351 44.6847 107.163C44.6847 106.975 44.2638 106.823 43.7447 106.823C43.2255 106.823 42.8047 106.975 42.8047 107.163C42.8047 107.351 43.2255 107.503 43.7447 107.503Z" stroke="black" stroke-width="2"/>
<path d="M43.7447 115.343C44.2638 115.343 44.6847 115.141 44.6847 114.893C44.6847 114.644 44.2638 114.443 43.7447 114.443C43.2255 114.443 42.8047 114.644 42.8047 114.893C42.8047 115.141 43.2255 115.343 43.7447 115.343Z" stroke="black" stroke-width="2"/>
<path d="M43.7448 123.683C44.3302 123.683 44.8048 123.49 44.8048 123.253C44.8048 123.015 44.3302 122.823 43.7448 122.823C43.1594 122.823 42.6848 123.015 42.6848 123.253C42.6848 123.49 43.1594 123.683 43.7448 123.683Z" stroke="black" stroke-width="2"/>
<path d="M43.7447 132.443C44.3799 132.443 44.8947 132.174 44.8947 131.843C44.8947 131.511 44.3799 131.243 43.7447 131.243C43.1096 131.243 42.5947 131.511 42.5947 131.843C42.5947 132.174 43.1096 132.443 43.7447 132.443Z" stroke="black" stroke-width="2"/>
<path d="M44.0646 140.953C44.523 140.953 44.8946 140.729 44.8946 140.453C44.8946 140.177 44.523 139.953 44.0646 139.953C43.6062 139.953 43.2346 140.177 43.2346 140.453C43.2346 140.729 43.6062 140.953 44.0646 140.953Z" stroke="black" stroke-width="2"/>
<path d="M44.0646 149.213C44.523 149.213 44.8946 149.043 44.8946 148.833C44.8946 148.623 44.523 148.453 44.0646 148.453C43.6062 148.453 43.2346 148.623 43.2346 148.833C43.2346 149.043 43.6062 149.213 44.0646 149.213Z" stroke="black" stroke-width="2"/>
<path d="M20.1247 93.1528C14.8847 90.7228 22.3347 84.7028 17.9947 80.9228C11.7047 75.4428 8.22467 87.2628 6.99467 90.3128C6.60713 91.2624 6.45614 92.2919 6.55467 93.3128C7.11467 99.7428 15.4247 115.243 20.6147 113.713L20.1247 93.1528Z" fill="#333333" stroke="black" stroke-width="3"/>
<path d="M18.5046 118.983C18.5046 118.983 9.05461 109.803 13.2446 99.6928L15.2446 97.9128C16.2966 96.9702 17.5927 96.3429 18.9846 96.1028C20.3497 95.8506 21.7599 96.0692 22.9846 96.7228L23.6746 97.1128C24.7987 97.739 25.6793 98.7253 26.1746 99.9128C27.1746 102.183 28.5746 105.973 28.3946 108.003C28.1246 111.713 28.0746 115.963 18.5046 118.983Z" fill="#F4C06D" stroke="black" stroke-width="2"/>
<path d="M41.0748 75.1528L26.9048 86.0428C27.4348 86.3528 47.1348 108.043 54.6448 110.723C59.6448 112.543 89.6448 97.7228 90.5348 91.2828C90.678 90.2754 90.5855 89.2485 90.2648 88.2828C89.2148 85.1728 84.8548 70.4128 78.3848 75.5028C73.9148 79.0628 65.5048 89.1928 60.1848 91.3328L41.0748 75.1528Z" fill="#333333" stroke="black" stroke-width="3"/>
<path d="M43.0647 75.7228C43.0647 75.7228 36.9747 87.4028 26.0647 86.2928L23.8047 84.8528C22.5999 84.1117 21.6266 83.0483 20.9947 81.7828C20.3611 80.5511 20.167 79.1399 20.4447 77.7828L20.6247 77.0028C20.9124 75.7415 21.617 74.6141 22.6247 73.8028C24.5247 72.2328 27.7447 69.8028 29.7447 69.3628C33.3447 68.6028 37.4347 67.4428 43.0647 75.7228Z" fill="#F4C06D" stroke="black" stroke-width="2"/>
<path d="M38.0547 40.7728C38.1347 43.0728 41.5047 44.1028 41.5047 44.1028" stroke="#945F61"/>
<path d="M24.9746 40.7028C24.9746 40.7028 26.3246 41.2528 28.8846 39.1328" stroke="#945F61"/>
<path d="M20.5046 38.0228L20.2246 36.0228C23.4257 35.5747 26.6736 35.5747 29.8746 36.0228L29.4946 38.0228C26.512 37.612 23.4872 37.612 20.5046 38.0228Z" fill="black"/>
<path d="M52.0746 41.5028L48.0746 38.8128C45.1573 38.4268 42.2019 38.4268 39.2846 38.8128L39.0046 36.8128C42.2057 36.3646 45.4536 36.3646 48.6546 36.8128H48.8546L53.2346 39.7328L52.0746 41.5028Z" fill="black"/>
<path d="M38.5546 83.1228C38.5546 83.1228 60.6546 99.7128 60.1846 101.503C59.7146 103.293 57.3246 108.503 54.9846 109.223C52.6446 109.943 30.1946 87.2228 30.1946 87.2228C30.1946 87.2228 35.3946 86.3628 38.5546 83.1228Z" fill="#232361"/>
<path d="M14.7847 81.0428C14.7847 81.0428 9.69467 90.5128 14.7847 96.6428C14.7847 96.6428 11.7847 100.063 10.7847 101.503C10.7847 101.503 7.85467 95.2128 7.78467 91.7728C7.80467 91.7728 9.90467 83.0528 14.7847 81.0428Z" fill="#232361"/>
<path d="M37.0246 21.5028C37.0246 21.5028 26.2846 27.1528 18.5646 13.5028C10.8446 -0.147213 28.4346 2.00279 27.8046 8.81279C27.1746 15.6228 23.4246 11.0528 23.4246 11.0528" stroke="#C8C8C8"/>
</svg>
