<svg width="93" height="204" viewBox="0 0 93 204" fill="none" xmlns="http://www.w3.org/2000/svg">
<path d="M46.5451 64.7916H53.7437C54.2713 65.2166 54.688 65.7632 54.9581 66.3846C55.2283 67.0059 55.3439 67.6836 55.2951 68.3594C55.0775 70.2522 53.2707 71.2649 50.991 71.2554C48.7113 71.2459 46.791 70.309 46.2613 68.2932C45.972 67.1262 46.0716 65.8967 46.5451 64.7916Z" fill="#AD3F33" stroke="black"/>
<path d="M47.1316 69.1639C47.5965 68.6415 48.1613 68.2176 48.7927 67.9174C49.4241 67.6171 50.1092 67.4464 50.8076 67.4156C51.506 67.3847 52.2036 67.4942 52.859 67.7376C53.5144 67.981 54.1144 68.3533 54.6235 68.8327C54.6235 68.8327 54.3775 70.6119 51.1519 70.7254C47.9262 70.839 47.4911 69.1734 47.1316 69.3059" fill="#530000"/>
<path d="M28.2411 202.16H43.0546C46.9614 200.21 44.8708 197.248 43.4898 195.809C42.9899 195.281 42.3201 194.946 41.5979 194.863L39.4979 194.664V182.92C39.5054 182.181 39.2339 181.466 38.7376 180.918C38.2413 180.371 37.5568 180.031 36.8208 179.967L32.8384 179.702C32.4395 179.685 32.0414 179.75 31.6686 179.893C31.2958 180.036 30.9562 180.254 30.6708 180.533C30.3854 180.813 30.1602 181.147 30.0092 181.517C29.8581 181.887 29.7844 182.284 29.7925 182.683V194.674C29.1871 194.674 27.8438 194.466 27.1154 194.854C27.0871 194.854 19.6519 199.32 28.2411 202.16Z" fill="black" stroke="black" stroke-width="3"/>
<path d="M46.5735 163.642C46.9371 166.237 46.7174 168.882 45.9302 171.382C45.1431 173.882 43.8085 176.174 42.0235 178.093L45.1263 180.601V180.648H26.983L28.7141 178.614C21.5817 170.475 23.2654 164.011 23.36 163.67H46.5357C46.5357 163.67 46.5735 163.623 46.5735 163.642Z" fill="#DFDFDF" stroke="black" stroke-width="3"/>
<path d="M32.9898 176.513L31.6655 173.607" stroke="black"/>
<path d="M37.1897 176.191L38.041 173.285" stroke="black"/>
<path d="M26.1411 172.964L38.0411 165.033L24.2113 165.09C24.0644 167.842 24.7218 170.578 26.1032 172.964H26.1411Z" fill="#DBEDFF"/>
<path d="M59.7032 201.497C58.9693 201.617 58.2168 201.473 57.5788 201.091C56.9408 200.708 56.4585 200.113 56.2173 199.409C55.976 198.705 55.9914 197.939 56.2606 197.246C56.5298 196.552 57.0356 195.976 57.6883 195.62C58.1091 195.338 58.5449 195.079 58.9937 194.844C59.6772 194.432 60.4308 194.15 61.2167 194.011V182.03C61.2073 181.63 61.2801 181.232 61.4305 180.861C61.581 180.49 61.806 180.154 62.0915 179.874C62.3771 179.594 62.7171 179.375 63.0906 179.231C63.464 179.088 63.8629 179.022 64.2627 179.039L68.2451 179.304C68.9775 179.38 69.6545 179.729 70.1417 180.281C70.6289 180.834 70.8906 181.549 70.8748 182.286V194.04L74.4694 195.932C74.4694 195.932 79.7762 198.914 74.4694 201.611H59.5708" fill="black"/>
<path d="M59.7032 201.497C58.9693 201.617 58.2168 201.473 57.5788 201.091C56.9408 200.708 56.4585 200.113 56.2173 199.409C55.976 198.705 55.9914 197.939 56.2606 197.246C56.5298 196.552 57.0356 195.976 57.6883 195.62C58.1091 195.338 58.5449 195.079 58.9937 194.844C59.6772 194.432 60.4308 194.15 61.2167 194.011V182.03C61.2073 181.63 61.2801 181.232 61.4305 180.861C61.581 180.49 61.806 180.154 62.0915 179.874C62.3771 179.594 62.7171 179.375 63.0906 179.231C63.464 179.088 63.8629 179.022 64.2627 179.039L68.2451 179.304C68.9775 179.38 69.6545 179.729 70.1417 180.281C70.6289 180.834 70.8906 181.549 70.8748 182.286V194.04L74.4694 195.932C74.4694 195.932 79.7762 198.914 74.4694 201.611H59.5708" stroke="black" stroke-width="3"/>
<path d="M76.56 164.446C76.9137 167.018 76.719 169.635 75.9885 172.126C75.2581 174.617 74.0085 176.925 72.3221 178.897L75.16 181.405H58.3221L59.9113 179.446C53.2897 171.307 54.8316 164.844 54.9262 164.503H76.4937C76.4937 164.503 76.56 164.427 76.56 164.446Z" fill="#DFDFDF" stroke="black" stroke-width="3"/>
<path d="M65.0856 176.503L63.8843 173.598" stroke="black"/>
<path d="M68.4531 176.503L68.718 173.598" stroke="black"/>
<path d="M57.9626 173.863L69.9099 165.79L56.0896 165.847C56.0131 167.264 56.1534 168.684 56.5059 170.058C56.8276 171.383 57.3171 172.662 57.9626 173.863Z" fill="#DBEDFF"/>
<path d="M4.22345 132.648C4.22345 132.648 16.6816 132.345 20.7302 141.884L20.5883 144.43C20.5336 145.785 20.0975 147.097 19.3302 148.216C18.593 149.302 17.5091 150.106 16.2559 150.496L15.5275 150.705C14.3604 151.05 13.1113 150.993 11.9802 150.544C9.81399 149.692 6.30453 148.14 5.05588 146.673C2.76669 143.947 -0.0616899 141.089 4.22345 132.648Z" fill="#F4C06D" stroke="black" stroke-width="2"/>
<path d="M5.78431 146.048C5.78431 146.048 8.80188 137.72 14.4397 136.272C11.4925 134.634 8.20623 133.701 4.83836 133.547C4.83836 133.547 2.32215 138.525 3.16404 141.865C3.65219 143.467 4.55637 144.911 5.78431 146.048Z" fill="#F4A36D"/>
<path d="M83.929 87.0885L65.5209 81.4102C49.6006 89.6721 35.2506 81.4102 35.2506 81.4102C31.3249 81.9685 23.5209 83.6626 18.7911 84.713C17.6166 84.9778 16.5421 85.5727 15.6941 86.4277C14.8461 87.2828 14.26 88.3625 14.0046 89.5396L2.94653 135.543C9.5114 134.531 20.7303 143.484 20.7303 143.484L25.356 109.877L21.0709 151.282L18.233 161.853C18.2133 161.943 18.2138 162.035 18.2345 162.125C18.2552 162.214 18.2956 162.297 18.3527 162.369C18.4098 162.441 18.4823 162.499 18.5647 162.539C18.647 162.579 18.7374 162.6 18.829 162.601L80.3155 163.632C80.4079 163.633 80.4993 163.613 80.5828 163.573C80.6664 163.534 80.74 163.476 80.7982 163.404C80.8564 163.332 80.8976 163.248 80.9188 163.158C80.9401 163.069 80.9408 162.975 80.9209 162.885L77.7519 148.31L76.806 139.414L73.4857 107.36L83.929 87.0885Z" fill="#333333" stroke="black" stroke-width="3"/>
<path d="M36.3856 103.65V115.878C34.8551 115.471 33.5158 114.54 32.6018 113.247V103.65C32.6018 103.65 32.6018 102.439 33.5478 103.139L36.3856 103.65Z" fill="#232361"/>
<path d="M25.3559 109.859C25.3559 109.859 27.1249 102.846 22.2627 94.0255" stroke="black"/>
<path d="M73.4952 108.818C73.4952 108.818 72.4452 100.896 76.4844 94.8962" stroke="black"/>
<path d="M48.7493 84.6657V164.143" stroke="black" stroke-width="2"/>
<path d="M51.6438 99.8079C52.1349 99.8079 52.533 99.6257 52.533 99.401C52.533 99.1762 52.1349 98.994 51.6438 98.994C51.1527 98.994 50.7546 99.1762 50.7546 99.401C50.7546 99.6257 51.1527 99.8079 51.6438 99.8079Z" stroke="black" stroke-width="2"/>
<path d="M51.6438 106.707C52.1349 106.707 52.533 106.563 52.533 106.385C52.533 106.208 52.1349 106.064 51.6438 106.064C51.1527 106.064 50.7546 106.208 50.7546 106.385C50.7546 106.563 51.1527 106.707 51.6438 106.707Z" stroke="black" stroke-width="2"/>
<path d="M51.6438 113.89C52.1349 113.89 52.533 113.746 52.533 113.568C52.533 113.391 52.1349 113.247 51.6438 113.247C51.1527 113.247 50.7546 113.391 50.7546 113.568C50.7546 113.746 51.1527 113.89 51.6438 113.89Z" stroke="black" stroke-width="2"/>
<path d="M51.6438 121.31C52.1349 121.31 52.533 121.119 52.533 120.884C52.533 120.649 52.1349 120.458 51.6438 120.458C51.1527 120.458 50.7546 120.649 50.7546 120.884C50.7546 121.119 51.1527 121.31 51.6438 121.31Z" stroke="black" stroke-width="2"/>
<path d="M51.6438 129.193C52.1976 129.193 52.6465 129.011 52.6465 128.786C52.6465 128.562 52.1976 128.379 51.6438 128.379C51.09 128.379 50.6411 128.562 50.6411 128.786C50.6411 129.011 51.09 129.193 51.6438 129.193Z" stroke="black" stroke-width="2"/>
<path d="M51.6437 137.493C52.2445 137.493 52.7316 137.239 52.7316 136.925C52.7316 136.612 52.2445 136.357 51.6437 136.357C51.0429 136.357 50.5559 136.612 50.5559 136.925C50.5559 137.239 51.0429 137.493 51.6437 137.493Z" stroke="black" stroke-width="2"/>
<path d="M51.9465 145.547C52.3801 145.547 52.7316 145.335 52.7316 145.074C52.7316 144.812 52.3801 144.6 51.9465 144.6C51.5129 144.6 51.1614 144.812 51.1614 145.074C51.1614 145.335 51.5129 145.547 51.9465 145.547Z" stroke="black" stroke-width="2"/>
<path d="M51.9465 153.364C52.3801 153.364 52.7316 153.203 52.7316 153.004C52.7316 152.806 52.3801 152.645 51.9465 152.645C51.5129 152.645 51.1614 152.806 51.1614 153.004C51.1614 153.203 51.5129 153.364 51.9465 153.364Z" stroke="black" stroke-width="2"/>
<path d="M51.6438 86.426C52.1349 86.426 52.533 86.2438 52.533 86.0191C52.533 85.7943 52.1349 85.6121 51.6438 85.6121C51.1527 85.6121 50.7546 85.7943 50.7546 86.0191C50.7546 86.2438 51.1527 86.426 51.6438 86.426Z" stroke="black" stroke-width="2"/>
<path d="M51.6438 93.3251C52.1349 93.3251 52.533 93.1811 52.533 93.0034C52.533 92.8256 52.1349 92.6816 51.6438 92.6816C51.1527 92.6816 50.7546 92.8256 50.7546 93.0034C50.7546 93.1811 51.1527 93.3251 51.6438 93.3251Z" stroke="black" stroke-width="2"/>
<path d="M51.9466 159.478C52.4376 159.478 52.8358 159.334 52.8358 159.156C52.8358 158.978 52.4376 158.834 51.9466 158.834C51.4555 158.834 51.0574 158.978 51.0574 159.156C51.0574 159.334 51.4555 159.478 51.9466 159.478Z" stroke="black" stroke-width="2"/>
<path d="M33.5668 102.004C35.8841 102.875 38.3916 103.113 40.8316 102.694C40.993 102.653 41.1616 102.649 41.3249 102.681C41.4882 102.714 41.6421 102.783 41.7755 102.883C41.9088 102.982 42.0181 103.111 42.0954 103.258C42.1727 103.406 42.216 103.569 42.2222 103.735V113.105C42.2222 113.105 37.7478 121.225 31.76 113.53V103.3C31.7608 103.083 31.813 102.869 31.9125 102.676C32.012 102.483 32.1558 102.316 32.3322 102.19C32.5086 102.063 32.7124 101.98 32.9271 101.948C33.1417 101.916 33.3609 101.935 33.5668 102.004Z" stroke="black" stroke-width="2"/>
<path d="M77.6763 101.767C77.6763 101.767 75.2546 96.9687 67.0438 97.6028C64.0073 97.8394 60.3465 98.9751 58.1898 102.789C54.0087 110.18 57.0641 119.966 66.079 120.77C75.0938 121.575 77.1938 120.543 81.8573 116.038C84.7744 113.158 87.317 109.921 89.4249 106.404C89.4249 106.404 92.6506 98.464 88.479 90.7226C84.3073 82.9811 76.2573 88.0254 76.2573 88.0254L67.2709 96.3252" fill="#333333"/>
<path d="M77.6763 101.767C77.6763 101.767 75.2546 96.9687 67.0438 97.6028C64.0073 97.8394 60.3465 98.9751 58.1898 102.789C54.0087 110.18 57.0641 119.966 66.079 120.77C75.0938 121.575 77.1938 120.543 81.8573 116.038C84.7744 113.158 87.317 109.921 89.4249 106.404C89.4249 106.404 92.6506 98.464 88.479 90.7226C84.3073 82.9811 76.2573 88.0254 76.2573 88.0254L67.2709 96.3252" stroke="black" stroke-width="3"/>
<path d="M12.0654 136.357C12.0654 136.357 15.7546 98.7006 20.7303 91.3283C20.5316 90.3556 20.0677 89.457 19.3898 88.732C18.7119 88.007 17.8466 87.484 16.8897 87.2209C16.2685 87.9228 15.7407 88.7022 15.3195 89.5396L4.83838 133.547L12.0654 136.357Z" fill="#232361"/>
<path d="M24.2019 95.4924C21.8654 88.5932 17.3059 86.814 17.3059 86.814C17.6275 85.2052 34.9289 82.9149 34.9289 82.9149L29.0262 105.628L27.1343 153.004L26.141 161.295L19.8883 161.162L22.4992 151.443L27.0113 107.01C27.0971 106.1 27.0104 105.181 26.7559 104.303L24.2019 95.4924Z" fill="#232361"/>
<path d="M74.6112 112.821L70.9125 119.644C70.9125 119.644 65.1517 119.36 64.6693 119.162C62.878 118.551 61.2435 117.553 59.8828 116.237L74.6112 112.821Z" fill="#232361"/>
<path d="M73.7695 112.253C73.7695 112.253 58.3222 119.483 48.3519 110.928L47.2263 107.966C46.6194 106.397 46.5039 104.681 46.8952 103.045C47.2856 101.357 48.2277 99.8485 49.5722 98.7574L50.3668 98.1139C51.6841 97.0642 53.2927 96.4463 54.9736 96.3441C58.1141 96.1075 63.3073 95.9182 65.6249 96.8836C69.8155 98.6533 74.8384 100.319 73.7695 112.253Z" fill="#F4C06D" stroke="black" stroke-width="2"/>
<path d="M56.1464 102.732C52.1167 103.385 49.2032 102.846 48.6924 102.041L48.0964 100.518" fill="#F4C06D"/>
<path d="M56.1464 102.732C52.1167 103.385 49.2032 102.846 48.6924 102.041L48.0964 100.518" stroke="black" stroke-width="0.5"/>
<path d="M47.2546 94.2715C47.2546 94.2715 44.4735 96.5145 47.2546 100.234C48.4702 100.744 49.7395 101.115 51.0384 101.341C52.3586 101.574 53.7009 101.657 55.0397 101.587C55.8922 101.284 56.5919 100.659 56.9884 99.8457C57.4235 98.8426 57.3668 97.3284 55.8154 95.1138C53.1828 93.7203 50.1081 93.4178 47.2546 94.2715Z" fill="#F4C06D" stroke="black"/>
<path d="M48.9667 94.7636C48.7586 94.7636 48.7302 94.9435 48.6451 95.1801L48.3613 96.2684C50.3478 94.6879 55.0397 96.1927 55.2005 96.5902L54.5289 95.6438C54.3208 95.3883 54.1884 95.1233 53.8762 95.076C52.2576 94.78 50.6098 94.6752 48.9667 94.7636Z" fill="#F4A36D" stroke="black" stroke-width="0.25" stroke-miterlimit="10"/>
<path d="M56.5059 95.6438C56.5059 95.6438 59.1923 94.0065 62.8626 96.0696L62.0491 105.628C62.0491 105.628 58.918 106.821 56.5059 105.401V95.6438Z" fill="#F4C06D" stroke="black"/>
<path d="M62.9572 96.0508C62.9572 96.0508 65.7951 95.0476 68.8789 97.7637L65.8613 106.641C64.9971 106.79 64.111 106.752 63.2626 106.53C62.4142 106.308 61.6231 105.907 60.9424 105.354L62.9572 96.0508Z" fill="#F4C06D" stroke="black"/>
<path d="M69.0301 98.7385C70.0712 98.7562 71.0928 99.0233 72.0095 99.5172C72.9262 100.011 73.7113 100.718 74.299 101.578L70.5152 108.912C70.5152 108.912 67.1193 108.486 65.5774 106.433L69.0301 98.7385Z" fill="#F4C06D" stroke="black"/>
<path d="M52.5234 103.262C52.5234 103.262 54.3491 107.351 56.7896 108.496C56.7896 108.496 56.3639 113.048 58.7383 114.079C58.7383 114.079 54.5572 113.871 53.2423 112.187C53.2423 112.187 47.7085 107.171 47.7748 103.366C47.7748 103.366 48.1153 102.297 48.3234 101.833C48.3518 101.843 48.5126 103.243 52.5234 103.262Z" fill="#F4A36D"/>
<path d="M47.5478 110.937C50.3856 108.77 55.0397 110.303 55.0397 110.303C58.3788 115.111 55.2951 115.887 55.2951 115.887C53.9234 115.556 42.8937 115.887 42.8937 115.887L40.2734 110.691L46.0532 104.246C46.668 103.565 47.2451 103.726 47.368 104.644C47.5391 105.415 47.77 106.171 48.0586 106.906C48.5485 107.98 49.2134 108.965 50.0261 109.821" fill="#F4C06D"/>
<path d="M47.5478 110.937C50.3856 108.77 55.0397 110.303 55.0397 110.303C58.3788 115.111 55.2951 115.887 55.2951 115.887C53.9234 115.556 42.8937 115.887 42.8937 115.887L40.2734 110.691L46.0532 104.246C46.668 103.565 47.2451 103.726 47.368 104.644C47.5391 105.415 47.77 106.171 48.0586 106.906C48.5485 107.98 49.2134 108.965 50.0261 109.821" stroke="black" stroke-width="2"/>
<path d="M44.4546 115.518C44.8515 115.391 45.2065 115.158 45.4814 114.845C45.7563 114.531 45.9409 114.149 46.0154 113.739" stroke="black" stroke-width="0.5"/>
<path d="M43.1492 115.092C43.5491 114.966 43.9069 114.732 44.1836 114.417C44.4604 114.101 44.6457 113.716 44.7194 113.303" stroke="black" stroke-width="0.5"/>
<path d="M55.541 100.773C53.7247 101.72 46.7058 95.8709 46.7058 95.8709C46.7058 95.8709 45.7599 97.3 47.4815 99.8836C47.4815 99.8836 52.8261 101.54 54.9356 101.199L55.541 100.773Z" fill="#F4A36D"/>
<path d="M59.495 95.5208C59.495 95.5208 57.868 103.328 58.7099 105.543C58.7099 105.543 57.4707 105.335 56.9883 105.183V95.9656C57.7744 95.6126 58.6356 95.4598 59.495 95.5208Z" fill="#F4A36D"/>
<path d="M65.5491 96.4198C65.5491 96.4198 63.0897 102.827 63.2316 106.063C62.5892 105.886 61.9881 105.584 61.4626 105.174L63.3545 96.4198C64.0828 96.3213 64.8209 96.3213 65.5491 96.4198Z" fill="#F4A36D"/>
<path d="M71.887 99.9972C71.887 99.9972 69.5884 101.199 68.1032 107.672C67.3164 107.428 66.6169 106.961 66.0884 106.328L69.3046 99.2401C70.2188 99.2489 71.1127 99.5109 71.887 99.9972Z" fill="#F4A36D"/>
<path d="M50.5274 101.559L48.6355 101.199L48.9571 102.013C48.9571 102.013 49.7801 102.884 53.1004 102.761C53.1004 102.761 52.3814 102.344 52.3814 101.985L50.5274 101.559Z" fill="#F4A36D"/>
<path d="M50.1775 110.824C50.1775 110.824 54.5099 112.385 55.1626 114.931C55.1626 114.931 56.5815 114.486 54.4342 111.146C53.0504 110.759 51.6037 110.649 50.1775 110.824Z" fill="#F4A36D"/>
<path d="M58.5208 96.1643C58.8997 96.004 59.3133 95.9434 59.7222 95.9881C60.1312 96.0328 60.5219 96.1815 60.8572 96.4198" fill="#F4C06D"/>
<path d="M58.5208 96.1643C58.8997 96.004 59.3133 95.9434 59.7222 95.9881C60.1312 96.0328 60.5219 96.1815 60.8572 96.4198" stroke="black" stroke-width="0.5"/>
<path d="M64.679 96.77C65.56 96.7873 66.4097 97.1006 67.0911 97.6596Z" fill="#F4C06D"/>
<path d="M64.679 96.77C65.56 96.7873 66.4097 97.1006 67.0911 97.6596" stroke="black" stroke-width="0.5"/>
<path d="M70.4775 99.8836C71.2589 100.17 71.9712 100.619 72.5681 101.199Z" fill="#F4C06D"/>
<path d="M70.4775 99.8836C71.2589 100.17 71.9712 100.619 72.5681 101.199" stroke="black" stroke-width="0.5"/>
<path d="M54.9734 108.874C54.9734 108.874 61.7937 108.098 67.1288 110.455Z" fill="#F4C06D"/>
<path d="M54.9734 108.874C54.9734 108.874 61.7937 108.098 67.1288 110.455" stroke="black" stroke-width="0.5"/>
<path d="M81.2991 47.1793C83.2667 53.5769 91.9504 80.9464 82.3112 85.8676C81.9689 86.0319 81.5775 86.0622 81.2139 85.9528L67.2707 82.0726C66.9077 81.9737 66.5916 81.7492 66.3785 81.439C66.1655 81.1288 66.0693 80.753 66.1072 80.3786V79.9527C66.1488 79.5686 66.3296 79.213 66.6154 78.9531C66.9013 78.6933 67.2724 78.5473 67.6585 78.5426C71.2058 78.4479 79.3031 75.7981 79.1518 55.8293C79.1518 55.64 79.0761 51.2961 79.1518 51.0974C79.3975 50.1849 79.3679 49.2201 79.0667 48.3244C79.0019 48.0997 78.9869 47.8636 79.0226 47.6325C79.0584 47.4013 79.1441 47.1808 79.2738 46.9862C79.4034 46.7916 79.574 46.6277 79.7734 46.5057C79.9729 46.3838 80.1966 46.3069 80.4288 46.2802C81.2518 46.1667 81.0626 46.4506 81.2991 47.1793Z" fill="black" stroke="black" stroke-width="3"/>
<path d="M18.9045 43.4506C16.9275 49.7913 7.79908 79.5931 17.4383 84.5237C17.7806 84.688 18.172 84.7184 18.5356 84.6089L32.4883 80.7287C32.852 80.6279 33.1683 80.4016 33.3813 80.0898C33.5942 79.778 33.6901 79.4009 33.6518 79.0252V78.6088C33.6008 78.2251 33.4109 77.8734 33.118 77.6204C32.825 77.3675 32.4495 77.2309 32.0626 77.2366C28.5153 77.1419 20.418 74.4826 20.5693 54.5233C20.5693 54.334 20.645 49.9901 20.5693 49.7913C20.3162 48.8562 20.3524 47.8663 20.6734 46.9522C20.7382 46.7275 20.7532 46.4913 20.7174 46.2602C20.6817 46.0291 20.596 45.8086 20.4663 45.614C20.3366 45.4194 20.1661 45.2554 19.9666 45.1335C19.7671 45.0116 19.5435 44.9346 19.3112 44.908H19.2639C18.4977 44.8228 19.1315 42.7124 18.9045 43.4506Z" fill="black" stroke="black" stroke-width="3"/>
<path d="M62.7114 20.5859C62.7114 20.5859 41.9668 28.9046 31.7033 21.1726C21.4398 13.4406 31.8263 8.48157 35.8087 8.48157C39.7911 8.48157 44.1708 11.3207 44.0384 16.4691C43.906 21.6174 36.4708 17.7846 36.4708 17.7846" stroke="#C8C8C8"/>
<path d="M35.2505 81.6183V76.8864L65.8518 78.3439L65.5208 81.6183C60.7341 83.6534 55.5865 84.7022 50.3856 84.7022C45.1847 84.7022 40.0371 83.6534 35.2505 81.6183Z" fill="#F4C06D" stroke="black" stroke-width="2"/>
<path d="M77.4776 62.2553L74.9047 72.9211C74.3939 80.3502 48.6641 79.4227 48.6641 79.4227C48.6641 79.4227 27.2195 76.9811 25.4885 71.4447C24.5425 68.4257 16.9749 52.8577 23.0668 46.0626C25.4885 43.3559 27.1155 35.8038 27.1155 35.8038L26.5101 30.4756C26.3945 29.4708 26.5857 28.4546 27.0587 27.5607L29.4331 22.9802H71.4993L74.5168 29.0182L72.0006 36.7218C72.7385 44.2929 75.7844 43.7913 77.5817 47.662C78.5302 49.776 78.8583 52.1163 78.5277 54.4097L77.4776 62.2553Z" fill="#F4C06D" stroke="black" stroke-width="2"/>
<path d="M28.0236 35.605L43.7642 25.3367H60.9236L70.9696 36.4946L73.5047 29.0844L70.856 23.9266H29.9912L27.3425 29.3683L28.0236 35.605Z" fill="#F4A36D"/>
<path d="M39.2046 71.4541C44.2102 70.6804 49.2782 70.3857 54.3397 70.574C57.416 70.6879 60.4829 70.9817 63.5249 71.4541L50.1397 63.4382L39.2046 71.4541Z" fill="#F4A36D"/>
<path d="M52.6843 36.7218C52.6843 36.7218 64.764 31.933 70.1086 28.0245C75.4532 24.1159 71.7451 33.3526 69.9005 35.3211C68.0559 37.2896 56.1843 39.8448 56.1843 39.8448C56.1843 39.8448 56.1843 41.5767 55.2384 41.3685C54.323 41.0339 53.5598 40.3788 53.0902 39.5244C52.6206 38.67 52.4764 37.6743 52.6843 36.7218Z" fill="black" stroke="black"/>
<path d="M51.0099 72.5046L48.8059 74.9368C48.7671 74.9796 48.7409 75.0322 48.7302 75.0889C48.7196 75.1457 48.7248 75.2042 48.7454 75.2581C48.766 75.3121 48.8011 75.3592 48.8468 75.3944C48.8926 75.4296 48.9471 75.4513 49.0045 75.4574L53.5545 75.817C53.6158 75.8219 53.6771 75.8086 53.7308 75.7788C53.7845 75.749 53.8283 75.704 53.8565 75.6494C53.8848 75.5949 53.8964 75.5332 53.8898 75.4721C53.8832 75.411 53.8587 75.3532 53.8194 75.3059L51.4829 72.4668C51.4502 72.4363 51.4116 72.413 51.3695 72.3984C51.3273 72.3837 51.2826 72.378 51.2381 72.3815C51.1936 72.3851 51.1503 72.3979 51.1111 72.4191C51.0718 72.4403 51.0373 72.4694 51.0099 72.5046Z" fill="black" stroke="black" stroke-width="3"/>
<path d="M47.822 36.7218C47.822 36.7218 35.7328 31.933 30.3788 28.0245C25.0247 24.1159 28.7423 33.3526 30.5964 35.3211C32.4504 37.2896 44.3126 39.8448 44.3126 39.8448C44.3126 39.8448 44.3126 41.5767 45.2585 41.3685C46.1745 41.034 46.9385 40.3793 47.4097 39.5252C47.8808 38.6712 48.0273 37.6754 47.822 36.7218Z" fill="black" stroke="black"/>
<path d="M58.0382 42.2676C57.9631 42.3188 57.9037 42.3899 57.8665 42.4729C57.8293 42.5559 57.8159 42.6476 57.8276 42.7378C57.8394 42.828 57.8759 42.9132 57.9331 42.9838C57.9903 43.0545 58.066 43.108 58.1518 43.1382C60.0436 43.8196 64.4612 44.9553 64.2247 40.7817C64.0923 38.4347 59.8072 41.0751 58.0382 42.2676Z" fill="#E6E6E6" stroke="black" stroke-width="0.75"/>
<path d="M60.9235 42.2392C61.6288 42.2392 62.2005 42.0315 62.2005 41.7754C62.2005 41.5193 61.6288 41.3117 60.9235 41.3117C60.2182 41.3117 59.6465 41.5193 59.6465 41.7754C59.6465 42.0315 60.2182 42.2392 60.9235 42.2392Z" fill="black" stroke="black" stroke-width="0.75"/>
<path d="M57.291 44.6714C58.9731 45.5485 60.8187 46.0673 62.7113 46.1951" stroke="#945F61"/>
<path d="M43.4424 44.9932C41.5688 45.7648 39.5413 46.0888 37.5208 45.9396" stroke="#945F61"/>
<path d="M48.1533 41.7754C48.3898 41.2076 50.1682 40.725 49.6763 38.4252Z" fill="#CC6633"/>
<path d="M48.1533 41.7754C48.3898 41.2076 50.1682 40.725 49.6763 38.4252" stroke="#CC6633" stroke-width="0.75"/>
<path d="M52.9019 41.9647C52.2751 41.5264 51.7445 40.9645 51.3427 40.3135C50.9409 39.6625 50.6764 38.9362 50.5654 38.1792" fill="#CC6633"/>
<path d="M52.9019 41.9647C52.2751 41.5264 51.7445 40.9645 51.3427 40.3135C50.9409 39.6625 50.6764 38.9362 50.5654 38.1792" stroke="#CC6633" stroke-width="0.75"/>
<path d="M51.3599 56.312C51.3599 56.312 39.6586 62.3499 34.9194 71.634C33.141 75.0977 36.3572 76.1104 35.5248 75.9211C34.6924 75.7318 38.9964 72.2396 38.9964 72.2396L50.1491 64.8673C50.1491 64.8673 65.6437 70.1292 67.5735 74.1892C68.7181 76.5836 69.5221 70.6119 69.5221 70.6119C69.5221 70.6119 66.9964 63.9871 51.3599 56.312Z" fill="black" stroke="black" stroke-width="3"/>
<path d="M43.4424 48.5327C43.6032 48.7787 43.4424 60.0691 50.2059 60.372C50.981 60.414 51.7578 60.414 52.5329 60.372C53.8232 59.9991 55.0059 59.3238 55.9831 58.4021C56.9603 57.4804 57.7038 56.3389 58.1518 55.0722C58.4661 53.9816 58.5519 52.8378 58.4037 51.7126C58.2556 50.5873 57.8768 49.5047 57.291 48.5327L51.4072 43.5452" fill="#F4C06D"/>
<path d="M43.4424 48.5327C43.6032 48.7787 43.4424 60.0691 50.2059 60.372C50.981 60.414 51.7578 60.414 52.5329 60.372C53.8232 59.9991 55.0059 59.3238 55.9831 58.4021C56.9603 57.4804 57.7038 56.3389 58.1518 55.0722C58.4661 53.9816 58.5519 52.8378 58.4037 51.7126C58.2556 50.5873 57.8768 49.5047 57.291 48.5327L51.4072 43.5452" stroke="black" stroke-width="0.75"/>
<path d="M26.8505 36.5419C26.8505 36.5419 22.8113 27.2673 18.8478 36.4568C16.9559 40.7344 20.1721 44.5484 20.1721 44.5484L21.9694 46.356L26.8505 36.5419Z" fill="#F4C06D" stroke="black" stroke-width="2"/>
<path d="M73.1167 37.034L77.2032 33.911C78.4329 32.9646 79.5397 33.9583 80.5707 35.1223C81.9518 36.6744 84.0613 41.094 81.9991 44.3023C79.937 47.5105 76.3234 45.0783 76.3234 45.0783C74.9782 44.2788 73.9362 43.0551 73.361 41.5993C72.7858 40.1434 72.7098 38.5377 73.1451 37.034H73.1167Z" fill="#F4C06D" stroke="black" stroke-width="2"/>
<path d="M77.8653 42.5231C77.8251 42.5957 77.7641 42.6547 77.6901 42.6923C77.6162 42.73 77.5326 42.7447 77.4503 42.7345C77.3679 42.7243 77.2905 42.6898 77.2279 42.6352C77.1653 42.5807 77.1205 42.5087 77.0991 42.4285L75.964 38.1129C75.6991 37.0908 77.468 35.8889 78.414 36.4852C79.3599 37.0814 79.9748 38.7849 77.8653 42.5231Z" fill="#F4A36D"/>
<path d="M22.7451 41.4726L22.8492 33.9015C22.8492 33.9015 18.0154 36.5419 22.7451 41.4726Z" fill="#F4A36D"/>
<path d="M75.9263 39.7312C75.9263 39.7312 75.9263 36.4567 78.6222 35.9457" stroke="black" stroke-width="0.75"/>
<path d="M23.0667 38.4347C23.2059 37.4341 23.2218 36.4202 23.114 35.4157C22.8492 34.3179 22.2627 34.0813 22.2627 34.0813" fill="#F4C06D"/>
<path d="M23.0667 38.4347C23.2059 37.4341 23.2218 36.4202 23.114 35.4157C22.8492 34.3179 22.2627 34.0813 22.2627 34.0813" stroke="black" stroke-width="0.75"/>
<path d="M21.26 37.0151L23.1141 35.3684" stroke="black" stroke-width="0.75"/>
<path d="M76.9668 36.8542L78.3006 38.1887" stroke="black" stroke-width="0.75"/>
<path d="M26.8506 22.9802C26.8506 22.9802 44.8235 36.3337 63.4303 22.9802H71.4992L74.5168 29.0182L72.0006 36.7217L78.6222 33.5324C78.6222 33.5324 81.3938 23.1222 78.9154 17.6047C76.4371 12.0873 59.6465 13.0148 59.6465 13.0148C59.6465 13.0148 35.2789 -5.98869 25.5925 5.92632C22.2533 10.0431 24.4762 18.9202 26.8506 22.9802Z" fill="black" stroke="black" stroke-width="3"/>
<path d="M26.8505 36.542L26.5194 29.3873L28.9789 23.9455L27.3424 20.6048L22.887 25.7531C22.4358 26.2805 22.1876 26.9517 22.187 27.6459V32.075C22.187 32.075 25.4694 31.1097 26.8505 36.542Z" fill="black" stroke="black" stroke-width="2"/>
<path d="M50.8775 59.6811C50.8775 58.8483 48.5127 54.6179 47.8505 53.0564C47.0359 50.7747 46.7891 48.3287 47.1316 45.9301C46.3217 45.9908 45.5614 46.3439 44.9923 46.9237C44.4233 47.5034 44.0842 48.2703 44.0383 49.0816C44.0383 54.8829 46.2518 60.0029 50.2437 60.0029C50.2437 60.0124 50.8775 59.7 50.8775 59.6811Z" fill="#F4A36D"/>
<path d="M42.6761 42.4095C42.7518 42.4594 42.8119 42.5295 42.8495 42.612C42.8872 42.6944 42.9009 42.7858 42.889 42.8757C42.8772 42.9656 42.8403 43.0503 42.7825 43.1202C42.7248 43.19 42.6486 43.2422 42.5626 43.2707C40.6707 43.9616 36.2531 45.0878 36.4896 40.9142C36.6126 38.5766 40.8883 41.2171 42.6761 42.4095Z" fill="#E6E6E6" stroke="black" stroke-width="0.75"/>
<path d="M39.7721 42.3811C40.4774 42.3811 41.0492 42.1735 41.0492 41.9174C41.0492 41.6613 40.4774 41.4537 39.7721 41.4537C39.0669 41.4537 38.4951 41.6613 38.4951 41.9174C38.4951 42.1735 39.0669 42.3811 39.7721 42.3811Z" fill="black" stroke="black" stroke-width="0.75"/>
</svg>
