<svg width="143" height="247" viewBox="0 0 143 247" fill="none" xmlns="http://www.w3.org/2000/svg">
<path d="M88.87 241.94C88.8674 242.57 88.6158 243.174 88.17 243.62C87.7243 244.066 87.1204 244.317 86.49 244.32H65.38C64.7488 244.32 64.1434 244.069 63.6971 243.623C63.2508 243.177 63 242.571 63 241.94V240.24C62.9987 239.927 63.0593 239.616 63.1783 239.326C63.2973 239.036 63.4724 238.773 63.6936 238.551C63.9147 238.329 64.1775 238.152 64.4669 238.032C64.7563 237.912 65.0666 237.85 65.38 237.85H77C77.6312 237.85 78.2366 237.599 78.6829 237.153C79.1293 236.707 79.38 236.101 79.38 235.47V229.68C79.3827 229.05 79.6342 228.446 80.08 228C80.5258 227.554 81.1296 227.303 81.76 227.3H86.53C87.1604 227.303 87.7643 227.554 88.21 228C88.6558 228.446 88.9074 229.05 88.91 229.68L88.87 241.94Z" fill="black" stroke="black" stroke-width="3"/>
<path d="M95.56 210.29C95.9399 213.031 95.7055 215.822 94.8736 218.462C94.0416 221.101 92.6331 223.522 90.75 225.55L94 228.25V228.3H74.84C74.84 228.3 74.84 228.3 74.84 228.25L76.68 226.11C69.14 217.51 70.91 210.68 71.02 210.31H95.52C95.52 210.31 95.56 210.27 95.56 210.29Z" fill="#DFDFDF" stroke="black" stroke-width="3"/>
<path d="M81.61 223.88L80.2 220.81" stroke="black"/>
<path d="M86.05 223.53L86.94 220.47" stroke="black"/>
<path d="M74.3701 220.13L86.9401 211.75L72.3301 211.81C72.2491 213.307 72.3975 214.808 72.7701 216.26C73.1234 217.617 73.6618 218.92 74.3701 220.13Z" fill="#DBEDFF"/>
<path d="M118.83 226.84C119.608 226.908 120.332 227.267 120.856 227.846C121.381 228.424 121.668 229.179 121.66 229.96C121.66 234.3 121.74 242.05 121.51 243.03C121.28 244.01 119.88 244.63 119.1 244.9C118.779 245.013 118.44 245.071 118.1 245.07H98.7799C97.9647 245.044 97.1927 244.698 96.6311 244.106C96.0695 243.514 95.7637 242.725 95.7799 241.91C95.7644 241.122 96.0494 240.358 96.5769 239.773C97.1044 239.188 97.8349 238.826 98.6199 238.76L108.62 238.11C109.406 238.042 110.136 237.677 110.664 237.091C111.191 236.504 111.476 235.739 111.46 234.95V229.71C111.451 229.288 111.529 228.869 111.689 228.478C111.849 228.087 112.087 227.734 112.388 227.438C112.69 227.143 113.049 226.913 113.443 226.762C113.837 226.611 114.258 226.542 114.68 226.56L118.83 226.84Z" fill="black" stroke="black" stroke-width="3"/>
<path d="M127.67 211.14C128.041 213.857 127.834 216.622 127.062 219.254C126.29 221.886 124.97 224.324 123.19 226.41L126.19 229.06H108.38L110.08 226.92C103.08 218.32 104.72 211.49 104.82 211.12H127.65C127.65 211.12 127.66 211.12 127.67 211.14Z" fill="#DFDFDF" stroke="black" stroke-width="3"/>
<path d="M115.54 223.88L114.26 220.81" stroke="black"/>
<path d="M119.1 223.88L119.38 220.81" stroke="black"/>
<path d="M108 221.09L120.64 212.55L106.02 212.61C105.949 214.107 106.1 215.607 106.47 217.06C106.801 218.465 107.316 219.819 108 221.09Z" fill="#DBEDFF"/>
<path d="M68 172.27C68 172.27 68.53 174.2 65.15 178.13C60.39 183.65 42.15 167.42 38.28 163.85C37.3281 162.982 36.6246 161.876 36.2415 160.645C35.8583 159.415 35.8095 158.105 36.1 156.85L38 148.97C38.0157 148.885 38.0487 148.804 38.0968 148.731C38.145 148.659 38.2073 148.597 38.28 148.55C47.6302 142.014 57.7838 136.71 68.49 132.77C68.5984 132.693 68.7261 132.648 68.8588 132.641C68.9914 132.633 69.1236 132.662 69.2402 132.726C69.3569 132.789 69.4534 132.884 69.5188 133C69.5842 133.116 69.6157 133.247 69.61 133.38L68 172.27Z" fill="#232361" stroke="black" stroke-width="3"/>
<path d="M69.78 119.93L68.25 209.48C68.25 209.595 68.295 209.705 68.3753 209.788C68.4557 209.87 68.565 209.917 68.68 209.92H131.77C131.868 209.921 131.964 209.9 132.053 209.858C132.141 209.816 132.219 209.755 132.28 209.679C132.342 209.603 132.385 209.515 132.408 209.419C132.43 209.324 132.431 209.225 132.41 209.13L129 193.75L124.46 150L137.46 133.82C137.46 133.82 129.69 121.63 125.52 122.94C85.09 135.7 70 121.3 70 121.3" fill="#333333"/>
<path d="M69.78 119.93L68.25 209.48C68.25 209.595 68.295 209.705 68.3753 209.788C68.4557 209.87 68.565 209.917 68.68 209.92H131.77C131.868 209.921 131.964 209.9 132.053 209.858C132.141 209.816 132.219 209.755 132.28 209.679C132.342 209.603 132.385 209.515 132.408 209.419C132.43 209.324 132.431 209.225 132.41 209.13L129 193.75L124.46 150L137.46 133.82C137.46 133.82 129.69 121.63 125.52 122.94C85.09 135.7 70 121.3 70 121.3" stroke="black" stroke-width="3"/>
<path d="M71.22 124.11C77.22 127.11 89.22 129.5 89.22 129.5L89.03 136.9C82.73 139.33 71 139.09 71 139.09L71.22 124.11Z" fill="#232361"/>
<path d="M107.13 128.87C101.789 129.625 96.3917 129.916 91 129.74V136.24L107.13 128.87Z" fill="#232361"/>
<path d="M73.7001 142.85C74.7001 143.12 79.5501 145.92 83.4901 144.63C83.5586 144.608 83.6316 144.602 83.7028 144.614C83.774 144.625 83.8414 144.654 83.8992 144.697C83.9571 144.74 84.0037 144.797 84.0352 144.861C84.0666 144.926 84.082 144.998 84.0801 145.07V155.87C84.0801 155.87 81.5601 160.24 78.8001 160C76.6501 159.81 76.2701 159.22 73.5201 156.71V143C73.5196 142.978 73.5242 142.955 73.5335 142.935C73.5429 142.914 73.5567 142.896 73.574 142.882C73.5913 142.867 73.6116 142.857 73.6334 142.852C73.6552 142.846 73.678 142.846 73.7001 142.85Z" fill="#333333" stroke="black" stroke-width="2"/>
<path d="M89.99 128.37V210.16" stroke="black" stroke-width="2"/>
<path d="M93.67 136.85C94.1891 136.85 94.61 136.658 94.61 136.42C94.61 136.183 94.1891 135.99 93.67 135.99C93.1508 135.99 92.73 136.183 92.73 136.42C92.73 136.658 93.1508 136.85 93.67 136.85Z" stroke="black" stroke-width="2"/>
<path d="M93.67 144.13C94.1891 144.13 94.61 143.938 94.61 143.7C94.61 143.463 94.1891 143.27 93.67 143.27C93.1508 143.27 92.73 143.463 92.73 143.7C92.73 143.938 93.1508 144.13 93.67 144.13Z" stroke="black" stroke-width="2"/>
<path d="M93.67 151.43C94.1891 151.43 94.61 151.278 94.61 151.09C94.61 150.902 94.1891 150.75 93.67 150.75C93.1508 150.75 92.73 150.902 92.73 151.09C92.73 151.278 93.1508 151.43 93.67 151.43Z" stroke="black" stroke-width="2"/>
<path d="M93.67 159.02C94.1891 159.02 94.61 158.868 94.61 158.68C94.61 158.492 94.1891 158.34 93.67 158.34C93.1508 158.34 92.73 158.492 92.73 158.68C92.73 158.868 93.1508 159.02 93.67 159.02Z" stroke="black" stroke-width="2"/>
<path d="M93.67 166.85C94.1891 166.85 94.61 166.649 94.61 166.4C94.61 166.152 94.1891 165.95 93.67 165.95C93.1508 165.95 92.73 166.152 92.73 166.4C92.73 166.649 93.1508 166.85 93.67 166.85Z" stroke="black" stroke-width="2"/>
<path d="M93.6701 175.19C94.2555 175.19 94.7301 174.998 94.7301 174.76C94.7301 174.523 94.2555 174.33 93.6701 174.33C93.0847 174.33 92.6101 174.523 92.6101 174.76C92.6101 174.998 93.0847 175.19 93.6701 175.19Z" stroke="black" stroke-width="2"/>
<path d="M93.67 183.95C94.3051 183.95 94.82 183.681 94.82 183.35C94.82 183.019 94.3051 182.75 93.67 182.75C93.0349 182.75 92.52 183.019 92.52 183.35C92.52 183.681 93.0349 183.95 93.67 183.95Z" stroke="black" stroke-width="2"/>
<path d="M93.9899 192.47C94.4483 192.47 94.8199 192.246 94.8199 191.97C94.8199 191.694 94.4483 191.47 93.9899 191.47C93.5315 191.47 93.1599 191.694 93.1599 191.97C93.1599 192.246 93.5315 192.47 93.9899 192.47Z" stroke="black" stroke-width="2"/>
<path d="M93.9899 200.72C94.4483 200.72 94.8199 200.55 94.8199 200.34C94.8199 200.13 94.4483 199.96 93.9899 199.96C93.5315 199.96 93.1599 200.13 93.1599 200.34C93.1599 200.55 93.5315 200.72 93.9899 200.72Z" stroke="black" stroke-width="2"/>
<path d="M135.6 183.65C136.41 176.71 140.16 149.81 141.06 143.42C141.201 142.413 141.109 141.386 140.79 140.42C139.79 137.31 136.64 130.56 128.91 127.66C120.37 124.46 117.18 137.16 116.37 141.39C116.215 142.203 116.215 143.037 116.37 143.85C117.13 147.95 119.23 162.36 113.59 172.34L134.33 184.34C134.456 184.412 134.598 184.45 134.743 184.452C134.887 184.453 135.03 184.418 135.157 184.349C135.284 184.28 135.392 184.179 135.469 184.057C135.547 183.935 135.592 183.795 135.6 183.65Z" fill="#333333" stroke="black" stroke-width="3"/>
<path d="M114.2 171.21C114.2 171.21 130.61 170.34 136.49 180.21L136.44 182.91C136.411 184.367 135.902 185.773 134.99 186.91C133.983 188.154 132.607 189.047 131.06 189.46L130.12 189.72C128.585 190.14 126.965 190.14 125.43 189.72C122.52 188.92 117.81 187.44 116.07 185.95C112.91 183.21 109 180.32 114.2 171.21Z" fill="#F4C06D" stroke="black" stroke-width="2"/>
<path d="M122.34 130.64C122.34 130.64 129.41 145.45 123.71 171.07L116.18 170.3C116.18 170.3 120.77 162.03 117.61 142.79C116.42 135.55 122.34 130.64 122.34 130.64Z" fill="#232361"/>
<path d="M116.35 184.85C109.11 180.31 123.35 173.07 123.35 173.07C122 177.504 119.599 181.545 116.35 184.85Z" fill="#F4A36D"/>
<path d="M123.33 173.07C121.58 172.35 114.9 172.07 114.8 172.22C114.7 172.37 108.89 180.05 116.35 184.85L123.33 173.07Z" fill="#F4A36D"/>
<path d="M73.3499 91.01L72.0599 89.55C72.2614 89.2297 72.3955 88.8717 72.4542 88.4978C72.5129 88.124 72.4949 87.7421 72.4014 87.3754C72.3079 87.0087 72.1407 86.6649 71.9101 86.3648C71.6795 86.0648 71.3902 85.8148 71.0599 85.6301L70.4199 80.16C70.2955 79.124 70.4983 78.075 70.9999 77.16L73.5399 72.55H110.54L133.54 93.3L124.27 112.85L124.59 123.06C118.86 129.7 93.7999 130.47 93.7999 130.47C93.7999 130.47 73.5499 126.84 69.9999 122.25C66.6999 117.92 70.4499 104.25 70.4499 104.25L65.7899 105.14C64.2889 104.071 63.0563 102.668 62.1887 101.043C61.3212 99.4169 60.8424 97.6121 60.7899 95.7701C60.7199 93.37 63.3599 89.57 65.7899 89.47L73.3499 91.01Z" fill="#F4C06D" stroke="black" stroke-width="2"/>
<path d="M121.84 95.91C121.84 95.91 122.48 93.07 126.43 93.83" stroke="black"/>
<path d="M125.22 100.98C127.01 99.3901 126.69 96.9801 124.39 93.7701Z" fill="#F4A36D"/>
<path d="M125.22 100.98C127.01 99.3901 126.69 96.9801 124.39 93.7701" stroke="black"/>
<path d="M85.6599 79.1701L81.3699 84.3601C79.4887 84.4281 77.6196 84.0333 75.9266 83.2104C74.2336 82.3874 72.7685 81.1614 71.6599 79.6401L71.7299 77.2001L85.6599 79.1701Z" fill="#F4A36D"/>
<path d="M76.1101 92.5501C73.1101 91.8901 70.2201 91.4601 66.4101 90.6701C65.9774 90.5951 65.533 90.628 65.1161 90.7658C64.6992 90.9036 64.3228 91.142 64.0201 91.4601C63.3601 92.1201 58.2401 95.6101 65.8801 104.03C67.3101 104.03 68.9701 103.38 71.0801 103.24C70.2601 103.24 66.6101 96.7701 68.1801 95.4001C70.0001 93.8101 75.7301 92.7801 76.1101 92.5501Z" fill="#F4A36D"/>
<path d="M76.4501 87.8701C76.4501 87.8701 75.8501 88.3401 76.2201 88.7301L74.0601 88.9201C74.1271 88.6249 74.1573 88.3226 74.1501 88.0201C74.1385 87.7218 74.1085 87.4246 74.0601 87.1301C74.8601 87.3101 75.6501 87.6901 76.4501 87.8701Z" fill="#F4A36D"/>
<path d="M79.4199 109.79L84.6899 127.09C80.2499 126.79 82.6899 126.77 78.6899 125.43C75.8443 124.775 73.2434 123.326 71.1899 121.25C70.9185 120.143 70.7115 119.021 70.5699 117.89C69.7599 111.89 78.1899 113.55 79.4199 109.79Z" fill="#F4A36D"/>
<path d="M75.8401 115.1H82.6501Z" fill="black"/>
<path d="M75.8401 115.1H82.6501" stroke="black" stroke-width="3"/>
<path d="M104.82 75.4201L112.7 83.9501C112.7 83.9501 111.41 72.8301 111.33 72.5501C111.25 72.2701 104.82 75.4201 104.82 75.4201Z" fill="#F4A36D"/>
<path d="M91.1201 92.29C91.2101 94.59 94.5501 95.62 94.5501 95.62" stroke="#945F61"/>
<path d="M78 92.22C78 92.22 79.36 92.78 81.91 90.65" stroke="#945F61"/>
<path d="M73.53 89.5501L73.24 87.5501C76.4411 87.1023 79.6889 87.1023 82.89 87.5501L82.51 89.5501C79.5304 89.1447 76.5096 89.1447 73.53 89.5501Z" fill="black"/>
<path d="M105.14 93.06L101.14 90.36C98.2192 89.9771 95.2609 89.9771 92.3401 90.36L92.0601 88.36C95.261 87.9102 98.5091 87.9102 101.71 88.36H101.91L106.29 91.28L105.14 93.06Z" fill="black"/>
<path d="M129.05 104.05C129.05 104.05 133.2 95.8001 126.87 92.0501C122.99 89.7501 120.36 93.7401 118.59 95.8801C115.47 99.6301 112.97 95.8801 112.97 95.8801C113.18 73.3301 110.25 73.3801 109.26 74.0201C108.798 74.3025 108.291 74.5022 107.76 74.6101C103.14 75.7401 82.82 82.8101 70.98 77.0001C55.16 69.2401 63.15 42.4601 80.98 55.2001C84.87 57.9801 107.37 65.0901 124.73 72.2001C142.09 79.3101 141.58 121.55 141.58 121.55C138.17 129.04 126.37 121.55 126.37 121.55L124.52 113.73C122.85 115.25 121.91 107.07 121.91 107.07C123.266 107.264 124.65 107.081 125.909 106.541C127.168 106.001 128.255 105.126 129.05 104.01" fill="black"/>
<path d="M129.05 104.05C129.05 104.05 133.2 95.8001 126.87 92.0501C122.99 89.7501 120.36 93.7401 118.59 95.8801C115.47 99.6301 112.97 95.8801 112.97 95.8801C113.18 73.3301 110.25 73.3801 109.26 74.0201C108.798 74.3025 108.291 74.5022 107.76 74.6101C103.14 75.7401 82.82 82.8101 70.98 77.0001C55.16 69.2401 63.15 42.4601 80.98 55.2001C84.87 57.9801 107.37 65.0901 124.73 72.2001C142.09 79.3101 141.58 121.55 141.58 121.55C138.17 129.04 126.37 121.55 126.37 121.55L124.52 113.73C122.85 115.25 121.91 107.07 121.91 107.07C123.266 107.264 124.65 107.081 125.909 106.541C127.168 106.001 128.255 105.126 129.05 104.01" stroke="black"/>
<path d="M85.84 85.2001C85.84 85.2001 97.71 81.8301 103.07 78.7701C108.43 75.7101 104.22 83.5901 102.31 85.2001C100.4 86.8101 88.9 88.2001 88.9 88.2001C88.9 88.2001 88.77 89.7301 87.9 89.4701C87.0835 89.1466 86.4185 88.528 86.0369 87.737C85.6553 86.946 85.585 86.0405 85.84 85.2001Z" fill="black" stroke="black"/>
<path d="M82.64 89.29C83.1092 88.6346 83.3906 87.8636 83.4541 87.0601C83.5175 86.2566 83.3605 85.451 83 84.73C83 84.73 72.85 82.83 71 78.55C70.44 77.29 70 83.8 70 83.8C70 83.8 71.17 86.43 76.59 87.37C78.4879 87.5657 80.3015 88.2553 81.85 89.37C81.9035 89.4242 81.9685 89.4657 82.0402 89.4915C82.1118 89.5172 82.1884 89.5266 82.2641 89.519C82.3399 89.5113 82.413 89.4867 82.478 89.4471C82.5431 89.4075 82.5984 89.3538 82.64 89.29Z" fill="black" stroke="black"/>
<path d="M79.25 100.1C79.25 100.1 64.45 107.72 58.45 119.47C56.21 123.85 60.27 125.13 59.21 124.89C58.15 124.65 63.61 120.23 63.61 120.23L77.72 110.91C77.72 110.91 97.32 117.57 99.72 122.7C101.16 125.7 102.18 118.14 102.18 118.14C102.18 118.14 99 109.83 79.25 100.1Z" fill="black" stroke="black" stroke-width="3"/>
<path d="M77.9 119.9L75.57 122.46C75.529 122.505 75.5014 122.561 75.4901 122.621C75.4788 122.681 75.4843 122.743 75.5061 122.8C75.5278 122.857 75.5649 122.906 75.6133 122.944C75.6617 122.981 75.7194 123.004 75.78 123.01L80.59 123.39C80.6548 123.395 80.7196 123.381 80.7764 123.35C80.8332 123.318 80.8794 123.271 80.9093 123.213C80.9392 123.155 80.9514 123.09 80.9444 123.026C80.9374 122.961 80.9116 122.9 80.87 122.85L78.4 119.91C78.3698 119.873 78.332 119.844 78.2892 119.823C78.2465 119.803 78.1998 119.791 78.1523 119.79C78.1049 119.789 78.0577 119.799 78.0142 119.818C77.9707 119.837 77.9317 119.865 77.9 119.9Z" fill="black" stroke="black" stroke-width="3"/>
<path d="M83.2401 75.4101C83.2401 75.4101 77.2401 79.4101 69.5601 65.7401C61.8801 52.0701 79.4301 54.1701 78.8001 60.9801C78.1701 67.7901 74.4201 63.2201 74.4201 63.2201" stroke="#C8C8C8"/>
<path d="M52.74 153.55C62.89 154.29 68.25 158.43 68.25 158.43C69.3179 164.623 68.6249 170.992 66.25 176.81" fill="#232361"/>
<path d="M52.74 153.55C62.89 154.29 68.25 158.43 68.25 158.43C69.3179 164.623 68.6249 170.992 66.25 176.81" stroke="black" stroke-width="3"/>
<path d="M18.3999 56.3501C18.3999 56.4301 18.3999 57.8201 18.6699 60.4901C19.8399 73.1601 26.9999 114.63 74.9999 180.36C75.4456 181.305 76.2434 182.038 77.2226 182.403C78.2019 182.767 79.2848 182.734 80.2399 182.31C80.7425 182.017 81.1822 181.627 81.5334 181.163C81.8847 180.699 82.1407 180.17 82.2866 179.607C82.4326 179.044 82.4656 178.457 82.3838 177.881C82.302 177.305 82.1069 176.75 81.8099 176.25C76.8099 159.34 70.1299 141.31 62.8699 121.97C52.2899 93.6801 39.3699 63.1001 30.1999 53.9201C29.3171 53.2343 28.3003 52.7412 27.2152 52.4725C26.1301 52.2038 25.0007 52.1655 23.8999 52.3601C22.7558 52.6054 21.6756 53.087 20.7285 53.7741C19.7813 54.4612 18.9882 55.3386 18.3999 56.3501Z" fill="#6A3500" stroke="black" stroke-width="2"/>
<path d="M10.17 48.3201C7.02431 46.1863 4.4879 43.2708 2.80995 39.8601C0.229953 34.0701 1.07995 22.4501 1.35995 21.5501C2.11995 12.7201 3.61995 9.83008 4.35995 1.00008C4.36995 0.960082 17.28 15.5501 22 19.6501C26.72 23.7501 28.26 34.1701 25.26 40.3701C24.5 41.9301 21.26 44.2001 18.89 45.7601C16.3049 47.4666 13.2673 48.3584 10.17 48.3201Z" fill="#5F2D00" stroke="black" stroke-width="2"/>
<path d="M25.28 62.7301C31.085 82.2148 37.9792 101.358 45.93 120.07C54.4748 140.377 64.2496 160.143 75.2 179.26C75.2 179.26 26.1 114.26 19.71 63.9401C20.7193 63.8403 21.7213 63.6767 22.71 63.4501C23.5792 63.2574 24.4371 63.017 25.28 62.7301Z" fill="#B46A00"/>
<path d="M44 79.0401C43.65 78.9501 42.76 83.2501 33.47 85.3701" stroke="#552B00"/>
<path d="M45.31 81.9601C44.3324 83.4576 43.0685 84.7471 41.5909 85.7545C40.1133 86.7619 38.4511 87.4672 36.7 87.8301" stroke="#5F2D00"/>
<path d="M46.2799 85.3701C44.9618 87.304 42.9615 88.6685 40.6799 89.1901" stroke="#B56737"/>
<path d="M16.7999 47.4501C16.7999 47.4501 9.67986 43.8001 6.85986 30.4501" stroke="white"/>
<path d="M20.7798 45.4801C20.7798 45.4801 24.1198 44.0301 19.0798 31.3601" stroke="white"/>
<path d="M19.1198 46.4001C19.1198 46.4001 17.8098 45.0401 15.5798 37.4001" stroke="white"/>
<path d="M25.35 41.8801L32.35 56.4001C30.48 62.1101 19 63.2201 19 63.2201C16.14 57.5801 14.32 53.9701 11.46 48.3201C14.1249 48.1937 16.7384 47.5411 19.15 46.4001C21.4741 45.2826 23.5751 43.751 25.35 41.8801Z" fill="#808080" stroke="black" stroke-width="2"/>
<path d="M27.28 47.9501C27.28 47.9501 26.37 50.1501 22.22 51.2501" stroke="#4D4D4D"/>
<path d="M28.16 50.1501C27.4363 51.2957 26.3084 52.1274 25 52.4801" stroke="#666666"/>
<path d="M17.1399 48.0501C17.9215 50.2371 18.9058 52.3463 20.0799 54.3501C21.4021 56.7754 22.9668 59.0604 24.7499 61.1701C23.0204 61.7887 21.2193 62.1852 19.3899 62.3501L12.6499 49.0901C13.4402 48.9921 14.2246 48.8519 14.9999 48.6701C15.7236 48.5012 16.438 48.2942 17.1399 48.0501Z" fill="#4D4D4D"/>
<path d="M17.9199 16.9501C17.9199 16.9501 16.4599 17.7301 19.4199 20.7501C20.2899 21.6301 19.9199 22.2701 19.3699 22.6801C19.2209 22.7855 19.0513 22.858 18.8722 22.893C18.6931 22.928 18.5086 22.9246 18.3309 22.883C18.1532 22.8414 17.9864 22.7626 17.8414 22.6518C17.6964 22.541 17.5766 22.4006 17.4899 22.2401C16.8499 21.0401 15.9299 19.2401 14.4899 19.2401C13.0499 19.2401 11.8999 21.9901 13.0599 24.1601C13.5012 24.9483 13.6995 25.8494 13.6299 26.7501C13.602 27.0795 13.4765 27.3932 13.2692 27.6508C13.0619 27.9084 12.7825 28.0983 12.4666 28.1961C12.1508 28.2938 11.8129 28.295 11.4964 28.1995C11.1798 28.104 10.899 27.9162 10.6899 27.6601C10.3198 27.1263 10.1274 26.4895 10.1399 25.8401C10.0299 22.5401 9.13989 17.3501 5.82989 18.3201L5.47989 18.4501C5.02645 18.6762 4.65581 19.0394 4.42064 19.4882C4.18546 19.937 4.09773 20.4486 4.16989 20.9501C4.43989 23.3101 4.16989 28.2901 1.38989 25.7501C1.83989 20.9201 2.43989 15.6401 3.29989 10.8901C3.90989 7.66007 4.51989 5.07007 4.99989 2.20007C7.33989 4.90674 9.76323 7.64674 12.2699 10.4201C14.2699 12.6401 16.2699 14.8001 18.2699 16.9001L17.9199 16.9501Z" fill="black" stroke="black" stroke-width="0.75"/>
</svg>
