<svg width="206" height="138" viewBox="0 0 206 138" fill="none" xmlns="http://www.w3.org/2000/svg">
<path d="M129.873 66.915L40.453 72.455C40.338 72.4628 40.2307 72.5153 40.154 72.6013C40.0774 72.6873 40.0375 72.8 40.043 72.915L45.043 135.815C45.0506 135.912 45.08 136.006 45.129 136.091C45.178 136.175 45.2453 136.247 45.326 136.302C45.4067 136.357 45.4986 136.393 45.595 136.407C45.6914 136.421 45.7899 136.414 45.883 136.385L60.943 131.785L104.193 123.785L116.703 129.785C116.703 129.785 132.903 126.845 131.263 122.785C115.343 83.425 128.513 67.275 128.513 67.275" fill="#333333"/>
<path d="M129.873 66.915L40.453 72.455C40.338 72.4628 40.2307 72.5153 40.154 72.6013C40.0774 72.6873 40.0375 72.8 40.043 72.915L45.043 135.815C45.0506 135.912 45.08 136.006 45.129 136.091C45.178 136.175 45.2453 136.247 45.326 136.302C45.4067 136.357 45.4986 136.393 45.595 136.407C45.6914 136.421 45.7899 136.414 45.883 136.385L60.943 131.785L104.193 123.785L116.703 129.785C116.703 129.785 132.903 126.845 131.263 122.785C115.343 83.425 128.513 67.275 128.513 67.275" stroke="black" stroke-width="3"/>
<path d="M125.823 68.735C122.093 75.575 121.963 90.495 121.963 90.495L114.423 91.375C110.863 84.495 109.143 69.6451 109.143 69.6451L125.823 68.735Z" fill="#232361"/>
<path d="M124.933 108.585C123.486 103.267 122.502 97.8331 121.993 92.345L114.713 92.045L124.933 108.585Z" fill="#232361"/>
<path d="M124.783 91.285L43.2429 97.735" stroke="black" stroke-width="2"/>
<path d="M108.039 97.2394C108.276 97.2207 108.435 96.7859 108.394 96.2684C108.353 95.7509 108.128 95.3465 107.891 95.3652C107.655 95.3839 107.496 95.8186 107.537 96.3362C107.578 96.8537 107.803 97.2581 108.039 97.2394Z" stroke="black" stroke-width="2"/>
<path d="M100.787 97.8097C101.024 97.791 101.183 97.3563 101.142 96.8388C101.101 96.3212 100.876 95.9169 100.639 95.9356C100.402 95.9543 100.243 96.389 100.284 96.9066C100.325 97.4241 100.55 97.8285 100.787 97.8097Z" stroke="black" stroke-width="2"/>
<path d="M93.4263 98.3979C93.6135 98.3831 93.7321 97.9516 93.6912 97.434C93.6503 96.9165 93.4653 96.5089 93.2782 96.5237C93.091 96.5385 92.9724 96.9701 93.0133 97.4876C93.0542 98.0051 93.2391 98.4127 93.4263 98.3979Z" stroke="black" stroke-width="2"/>
<path d="M85.8662 98.9819C86.0534 98.9671 86.172 98.5355 86.1311 98.018C86.0902 97.5005 85.9053 97.0929 85.7181 97.1077C85.5309 97.1225 85.4123 97.5541 85.4532 98.0716C85.4941 98.5891 85.6791 98.9967 85.8662 98.9819Z" stroke="black" stroke-width="2"/>
<path d="M78.1583 99.5967C78.406 99.5772 78.5737 99.1417 78.5328 98.6242C78.4919 98.1067 78.2579 97.703 78.0101 97.7226C77.7624 97.7422 77.5947 98.1776 77.6356 98.6951C77.6765 99.2127 77.9105 99.6163 78.1583 99.5967Z" stroke="black" stroke-width="2"/>
<path d="M69.8457 100.371C70.0825 100.352 70.237 99.8638 70.1909 99.2802C70.1447 98.6966 69.9154 98.2387 69.6787 98.2574C69.4419 98.2761 69.2874 98.7644 69.3335 99.348C69.3797 99.9316 69.609 100.389 69.8457 100.371Z" stroke="black" stroke-width="2"/>
<path d="M61.2831 101.144C61.6134 101.118 61.8406 100.583 61.7906 99.95C61.7405 99.3169 61.4321 98.8248 61.1018 98.8509C60.7715 98.877 60.5442 99.4115 60.5943 100.045C60.6443 100.678 60.9527 101.17 61.2831 101.144Z" stroke="black" stroke-width="2"/>
<path d="M52.6932 101.826C52.9685 101.804 53.1624 101.416 53.1263 100.959C53.0901 100.502 52.8377 100.15 52.5624 100.171C52.2871 100.193 52.0932 100.581 52.1294 101.038C52.1655 101.495 52.4179 101.848 52.6932 101.826Z" stroke="black" stroke-width="2"/>
<path d="M45.203 102.155C44.993 102.155 45.783 101.945 45.753 101.485C45.723 101.025 44.863 100.485 45.073 100.485C45.283 100.485 45.483 100.825 45.523 101.285C45.563 101.745 45.453 102.135 45.203 102.155Z" stroke="black" stroke-width="2"/>
<path d="M99.803 70.225L96.583 82.395L42.043 79.425L41.593 73.855L99.803 70.225Z" fill="#232361"/>
<path d="M99.9929 76.895C99.8029 77.895 97.3929 82.975 98.9929 86.795C99.0221 86.8618 99.0347 86.9347 99.0296 87.0074C99.0244 87.0801 99.0017 87.1505 98.9633 87.2124C98.9249 87.2744 98.8721 87.3261 98.8093 87.3632C98.7465 87.4002 98.6757 87.4214 98.6029 87.425L87.8429 88.275C87.8429 88.275 83.2729 86.095 83.3029 83.335C83.3029 81.175 83.8729 80.755 86.1629 77.815L99.8329 76.735C99.8547 76.7316 99.877 76.7334 99.8979 76.7402C99.9189 76.7471 99.938 76.7587 99.9536 76.7743C99.9692 76.7899 99.9809 76.809 99.9877 76.83C99.9945 76.8509 99.9963 76.8732 99.9929 76.895Z" stroke="black" stroke-width="2"/>
<path d="M166.823 66.635L168.403 65.535C168.695 65.7728 169.032 65.9488 169.394 66.0527C169.757 66.1565 170.136 66.186 170.51 66.1393C170.883 66.0925 171.244 65.9706 171.569 65.7808C171.895 65.5911 172.178 65.3374 172.403 65.035L177.903 65.115C178.95 65.1363 179.965 65.4861 180.803 66.115L185.123 69.245L180.343 105.985L156.823 126.025L138.633 114.305L128.463 113.305C122.623 106.765 125.093 81.815 125.093 81.815C125.093 81.815 131.263 62.175 136.273 59.295C140.993 56.575 154.013 62.045 154.013 62.045L153.733 57.315C154.992 55.9707 156.543 54.9341 158.267 54.2855C159.99 53.637 161.84 53.3939 163.673 53.575C166.063 53.815 169.483 56.935 169.273 59.315L166.823 66.635Z" fill="#F4C06D" stroke="black" stroke-width="2"/>
<path d="M155.713 114.085C155.713 114.085 158.443 115.085 157.173 118.905" stroke="black"/>
<path d="M150.243 116.785C151.593 118.785 154.043 118.785 157.503 116.895Z" fill="#F4A36D"/>
<path d="M150.243 116.785C151.593 118.785 154.043 118.785 157.503 116.895" stroke="black"/>
<path d="M176.983 80.375L172.383 75.445C172.587 73.3628 173.347 71.3736 174.583 69.6851C175.577 68.3392 176.854 67.2266 178.323 66.425L180.723 66.815L176.983 80.375Z" fill="#F4A36D"/>
<path d="M164.933 69.165C165.933 66.325 166.773 63.465 168.043 59.795C168.174 59.3764 168.199 58.9321 168.117 58.5013C168.035 58.0705 167.848 57.6665 167.573 57.325C167.003 56.585 164.203 51.055 154.863 57.535C154.643 58.955 155.113 60.685 154.983 62.805C155.033 61.975 161.983 59.205 163.133 60.935C164.453 62.955 164.763 68.765 164.933 69.165Z" fill="#F4A36D"/>
<path d="M169.543 70.105C169.543 70.105 169.143 69.455 168.713 69.775L168.803 67.605C169.085 67.7146 169.381 67.7853 169.683 67.815C169.983 67.8338 170.283 67.8338 170.583 67.815C170.303 68.605 169.823 69.345 169.543 70.105Z" fill="#F4A36D"/>
<path d="M147.453 70.2251L129.623 73.2251C130.493 68.8551 130.193 71.3051 132.043 67.4551C133.066 64.7191 134.841 62.3274 137.163 60.5551C138.296 60.4368 139.434 60.3767 140.573 60.3751C146.583 60.3751 143.873 68.5251 147.453 70.2251Z" fill="#F4A36D"/>
<path d="M141.953 75.515C141.953 75.515 143.293 59.515 142.343 66.575C141.463 64.575 139.743 63.225 138.343 63.385C136.543 63.585 134.653 66.295 135.583 69.705C135.105 70.1042 134.718 70.6011 134.448 71.1622C134.179 71.7233 134.032 72.3357 134.019 72.9582C134.006 73.5807 134.126 74.1988 134.372 74.7709C134.617 75.343 134.982 75.8559 135.443 76.275C136.409 77.031 137.635 77.3752 138.854 77.2329C140.073 77.0906 141.186 76.4733 141.953 75.515Z" fill="#A35E4B" stroke="black" stroke-width="3"/>
<path d="M178.223 99.8551L168.743 106.565C168.743 106.565 179.933 106.725 180.263 106.685C180.593 106.645 178.223 99.8551 178.223 99.8551Z" fill="#F4A36D"/>
<path d="M136.983 66.765L140.403 73.765V74.975C139.769 75.5101 138.972 75.8135 138.143 75.835C135.143 75.365 134.223 72.385 136.313 70.915C136.598 70.6506 136.804 70.313 136.91 69.9391C137.016 69.5652 137.017 69.1694 136.913 68.795C136.815 68.4699 136.758 68.1341 136.743 67.795C136.757 67.4395 136.838 67.0899 136.983 66.765Z" fill="#A03218"/>
<path d="M138.803 71.085C138.877 71.642 138.826 72.2086 138.653 72.7432C138.48 73.2779 138.189 73.7671 137.803 74.175" stroke="#541E13" stroke-width="0.5" stroke-miterlimit="10"/>
<path d="M147.273 120.175C147.273 120.175 154.913 125.355 159.453 119.565C162.233 116.005 158.623 112.895 156.723 110.855C153.403 107.275 157.443 105.285 157.443 105.285C179.783 108.405 180.113 105.485 179.603 104.425C179.388 103.93 179.256 103.403 179.213 102.865C178.683 98.125 174.293 77.075 181.583 66.085C191.333 51.395 215.393 64.355 200.453 80.355C197.193 83.855 188.713 103.665 179.383 119.955C170.053 136.245 128.263 130.335 128.263 130.335C121.263 125.985 130.263 115.255 130.263 115.255L138.263 114.435C136.983 112.575 145.203 112.695 145.203 112.695C144.837 114.016 144.841 115.413 145.215 116.732C145.589 118.051 146.318 119.242 147.323 120.175" fill="black"/>
<path d="M147.273 120.175C147.273 120.175 154.913 125.355 159.453 119.565C162.233 116.005 158.623 112.895 156.723 110.855C153.403 107.275 157.443 105.285 157.443 105.285C179.783 108.405 180.113 105.485 179.603 104.425C179.388 103.93 179.256 103.403 179.213 102.865C178.683 98.125 174.293 77.075 181.583 66.085C191.333 51.395 215.393 64.355 200.453 80.355C197.193 83.855 188.713 103.665 179.383 119.955C170.053 136.245 128.263 130.335 128.263 130.335C121.263 125.985 130.263 115.255 130.263 115.255L138.263 114.435C136.983 112.575 145.203 112.695 145.203 112.695C144.837 114.016 144.841 115.413 145.215 116.732C145.589 118.051 146.318 119.242 147.323 120.175" stroke="black"/>
<path d="M178.053 85.455C178.053 85.455 172.933 96.685 171.793 102.755C170.653 108.825 167.373 100.505 167.393 98.005C167.413 95.505 173.773 85.835 173.773 85.835C173.773 85.835 172.693 84.745 173.463 84.235C174.241 83.824 175.146 83.7212 175.997 83.9473C176.847 84.1734 177.581 84.7118 178.053 85.455Z" fill="black" stroke="black"/>
<path d="M176.293 78.735C177.1 78.745 177.895 78.5341 178.591 78.1252C179.287 77.7163 179.859 77.125 180.243 76.415C180.243 76.415 175.923 67.025 178.333 63.025C179.033 61.845 173.493 65.275 173.493 65.275C173.493 65.275 172.023 67.755 174.383 72.715C175.308 74.3886 175.783 76.2731 175.763 78.185C175.76 78.2563 175.772 78.3274 175.798 78.394C175.823 78.4606 175.862 78.5214 175.911 78.5728C175.961 78.6241 176.02 78.665 176.086 78.6929C176.151 78.7207 176.222 78.7351 176.293 78.735Z" fill="black" stroke="black"/>
<path d="M157.053 71.315C157.053 71.315 151.453 55.645 140.533 48.185C136.473 45.395 134.683 49.265 135.053 48.245C135.423 47.225 139.103 53.245 139.103 53.245L146.523 68.445C146.523 68.445 137.453 87.025 131.993 88.745C128.803 89.745 136.193 91.745 136.193 91.745C136.193 91.745 144.843 89.685 157.053 71.315Z" fill="black" stroke="black" stroke-width="3"/>
<path d="M136.203 67.965L133.963 65.315C133.925 65.2654 133.874 65.2279 133.815 65.2072C133.756 65.1864 133.693 65.1833 133.632 65.1981C133.572 65.213 133.517 65.2452 133.474 65.2909C133.432 65.3365 133.404 65.3936 133.393 65.455L132.393 70.175C132.378 70.2377 132.382 70.3035 132.405 70.3637C132.428 70.4239 132.469 70.4758 132.522 70.5125C132.575 70.5493 132.638 70.5692 132.702 70.5696C132.767 70.5701 132.83 70.551 132.883 70.515L136.123 68.445C136.164 68.4224 136.199 68.3909 136.227 68.3526C136.254 68.3144 136.272 68.2706 136.279 68.2244C136.287 68.1782 136.284 68.1309 136.271 68.0859C136.258 68.041 136.235 67.9997 136.203 67.965Z" fill="black" stroke="black" stroke-width="3"/>
<path d="M184.963 81.595C184.963 81.595 177.853 72.405 191.703 65.085C205.553 57.765 202.973 75.295 196.183 74.465C189.393 73.635 194.073 70.025 194.073 70.025" stroke="#C8C8C8"/>
<path d="M163.263 84.0951C160.973 83.8851 159.513 87.0951 159.513 87.0951" stroke="#945F61"/>
<path d="M165.013 71.1351C165.013 71.1351 164.293 72.4051 166.073 75.2051" stroke="#945F61"/>
<path d="M168.343 87.4551L161.563 93.8551" stroke="black" stroke-width="2"/>
<path d="M166.473 94.5151L163.313 86.2851" stroke="black" stroke-width="2"/>
<path d="M171.173 70.0751L166.913 75.1951" stroke="black" stroke-width="2"/>
<path d="M167.973 69.3251L170.733 75.1151" stroke="black" stroke-width="2"/>
<path d="M116.953 89.405L100.013 81.775C99.613 82.125 93.473 98.095 91.733 104.005C90.633 107.745 100.733 130.005 107.323 131.245C108.378 131.445 109.458 131.476 110.523 131.335C113.943 130.875 130.133 129.145 125.613 124.085C122.453 120.595 112.973 113.665 111.453 109.725L116.953 89.405Z" fill="#333333" stroke="black" stroke-width="3"/>
<path d="M117.103 90.075C117.103 90.075 103.223 88.715 100.543 81.075L101.183 79.195C101.576 78.1146 102.314 77.1938 103.283 76.575C104.429 75.8157 105.752 75.3645 107.123 75.265L107.963 75.195C109.29 75.0834 110.626 75.2819 111.863 75.775C114.113 76.685 117.713 78.285 118.863 79.535C120.853 81.835 123.453 84.325 117.103 90.075Z" fill="#F4C06D" stroke="black" stroke-width="2"/>
<path d="M109.873 109.665C106.161 104.614 100.929 100.885 94.9431 99.0251L100.573 83.6251C100.573 83.6251 104.413 88.8051 115.033 90.5351L109.873 109.665Z" fill="#232361"/>
<path d="M119.453 82.025C119.453 82.025 111.173 86.615 105.893 85.845C105.893 85.845 109.463 88.305 116.593 89.265C116.593 89.265 119.533 86.775 119.873 84.595C120.001 84.1626 120.029 83.707 119.956 83.2621C119.884 82.8171 119.712 82.3943 119.453 82.025Z" fill="#F4A36D"/>
<path d="M110.563 20.305L97.7229 8.85504C97.3529 9.34504 85.0229 34.345 83.3929 42.615C82.3929 47.845 102.243 72.765 108.473 74.475C109.449 74.7543 110.478 74.7954 111.473 74.595C114.703 73.955 129.903 71.595 125.663 64.465C122.733 59.585 109.893 51.645 102.223 45.225L110.563 20.305Z" fill="#232361" stroke="black" stroke-width="3"/>
<path d="M110.223 23.335C110.223 23.335 97.9629 18.515 97.9229 7.57504L99.1129 5.14504C99.7251 3.87191 100.677 2.79232 101.863 2.02504C103.024 1.2518 104.414 0.898925 105.803 1.02504L106.593 1.11504C107.87 1.26119 109.062 1.82752 109.983 2.72504C111.743 4.45504 114.523 7.39504 115.143 9.34504C116.273 12.925 117.863 16.875 110.223 23.335Z" fill="#F4C06D" stroke="black" stroke-width="2"/>
<path d="M114.163 9.62506C114.163 9.62506 107.803 16.5051 101.723 15.6251C103.941 18.4513 106.791 20.7185 110.043 22.2451C110.043 22.2451 114.533 18.4351 115.043 14.8351C115.216 13.0511 114.912 11.2532 114.163 9.62506Z" fill="#F4A36D"/>
<path d="M11.203 68.595C11.2971 67.9782 11.6296 67.423 12.1289 67.0489C12.6283 66.6749 13.2546 66.5119 13.873 66.595L15.553 66.815C15.8638 66.8545 16.1638 66.955 16.4357 67.1106C16.7076 67.2663 16.9461 67.4742 17.1375 67.7222C17.3289 67.9703 17.4694 68.2537 17.551 68.5562C17.6326 68.8587 17.6537 69.1744 17.613 69.485L16.123 80.915C16.123 82.585 17.663 81.915 18.923 81.915L23.823 80.275C26.303 79.725 31.493 76.745 31.323 78.055L28.193 88.225C28.023 89.535 22.063 89.465 20.763 89.295L10.833 89.845C10.5231 89.8044 10.2242 89.703 9.95341 89.5468C9.68265 89.3906 9.4453 89.1826 9.25494 88.9347C9.06457 88.6867 8.92491 88.4037 8.84394 88.1018C8.76296 87.7999 8.74225 87.485 8.783 87.175L11.203 68.595Z" fill="black" stroke="black" stroke-width="3"/>
<path d="M43.1929 99.025C40.4598 98.5774 37.8607 97.5266 35.5844 95.9491C33.3081 94.3716 31.4117 92.3069 30.0329 89.905L26.4529 92.215L32.1129 73.915C32.1129 73.915 32.1129 73.915 32.1629 73.915L33.6729 76.305C44.1529 71.595 50.1529 75.315 50.4529 75.525L43.2129 98.925C43.2129 98.925 43.2129 99.025 43.1929 99.025Z" fill="#DFDFDF" stroke="black" stroke-width="3"/>
<path d="M34.063 77.795L43.793 90.025L41.983 75.505C41.983 75.505 35.453 76.435 34.063 77.795Z" fill="#DBEDFF"/>
<path d="M34.343 81.645L37.683 81.215" stroke="black"/>
<path d="M33.3931 85.9951L36.0531 87.7551" stroke="black"/>
<path d="M22.993 129.235C22.783 130.885 23.883 131.625 21.993 131.805C17.673 132.205 4.53298 135.265 3.59298 134.905C2.65298 134.545 2.22298 133.085 2.04298 132.275C1.98567 131.944 1.98567 131.606 2.04298 131.275L4.45298 112.105C4.57865 111.294 5.02084 110.566 5.68258 110.08C6.34431 109.595 7.17158 109.392 7.98298 109.515C8.76603 109.601 9.48712 109.981 9.99976 110.579C10.5124 111.177 10.7781 111.948 10.743 112.735L10.093 122.735C9.99298 124.335 11.543 124.645 13.203 124.865L21.363 122.575C23.173 122.815 23.443 125.645 23.103 127.365L22.993 129.235Z" fill="black" stroke="black" stroke-width="3"/>
<path d="M45.453 135.585C39.0712 136.766 32.478 135.574 26.913 132.235L24.133 135.465H24.063L22.063 117.675H22.123L24.853 119.225C34.213 111.585 42.463 112.745 42.853 112.805L45.443 135.565L45.453 135.585Z" fill="#DFDFDF" stroke="black" stroke-width="3"/>
<path d="M28.053 124.175L31.773 123.145" stroke="black"/>
<path d="M28.4929 127.985L32.1029 128.505" stroke="black"/>
<path d="M32.843 116.025L43.323 129.455L41.653 114.155C40.1561 114.08 38.6562 114.228 37.203 114.595C35.7004 114.906 34.2378 115.386 32.843 116.025Z" fill="#DBEDFF"/>
</svg>
