<svg width="109" height="196" viewBox="0 0 109 196" fill="none" xmlns="http://www.w3.org/2000/svg">
<path d="M34.0941 121.503C34.0941 121.503 34.6241 123.433 31.2341 127.363C26.4941 132.903 8.2741 116.673 4.3741 113.103C3.42135 112.235 2.71646 111.129 2.33164 109.899C1.94681 108.669 1.8959 107.359 2.1841 106.103L4.0141 98.2528C4.05369 98.0836 4.15314 97.9344 4.2941 97.8328C13.6396 91.2869 23.7899 85.9731 34.4941 82.0228C34.6025 81.9459 34.7303 81.901 34.8629 81.8932C34.9955 81.8854 35.1277 81.9149 35.2444 81.9784C35.361 82.042 35.4575 82.137 35.5229 82.2527C35.5883 82.3684 35.6199 82.5 35.6141 82.6328L34.0941 121.503Z" fill="#232361" stroke="black" stroke-width="3"/>
<path d="M18.8142 102.763C28.9642 103.503 34.3142 107.643 34.3142 107.643C34.8735 110.846 34.9611 114.114 34.5742 117.343C34.2121 120.324 33.452 123.243 32.3142 126.023" fill="#232361"/>
<path d="M18.8142 102.763C28.9642 103.503 34.3142 107.643 34.3142 107.643C34.8735 110.846 34.9611 114.114 34.5742 117.343C34.2121 120.324 33.452 123.243 32.3142 126.023" stroke="black" stroke-width="3"/>
<path d="M35.8442 69.1828L34.3142 158.733C34.3142 158.848 34.3592 158.958 34.4395 159.04C34.5199 159.123 34.6293 159.17 34.7442 159.173H97.8442C97.9411 159.172 98.0365 159.15 98.1236 159.107C98.2107 159.065 98.2873 159.004 98.3477 158.928C98.408 158.852 98.4507 158.764 98.4726 158.67C98.4945 158.575 98.4951 158.477 98.4742 158.383L95.0842 143.003L90.5442 99.2528L103.544 83.0728C103.544 83.0728 95.8142 70.8828 91.6542 72.1928C51.1642 84.9628 36.1042 70.5528 36.1042 70.5528" fill="#333333"/>
<path d="M35.8442 69.1828L34.3142 158.733C34.3142 158.848 34.3592 158.958 34.4395 159.04C34.5199 159.123 34.6293 159.17 34.7442 159.173H97.8442C97.9411 159.172 98.0365 159.15 98.1236 159.107C98.2107 159.065 98.2873 159.004 98.3477 158.928C98.408 158.852 98.4507 158.764 98.4726 158.67C98.4945 158.575 98.4951 158.477 98.4742 158.383L95.0842 143.003L90.5442 99.2528L103.544 83.0728C103.544 83.0728 95.8142 70.8828 91.6542 72.1928C51.1642 84.9628 36.1042 70.5528 36.1042 70.5528" stroke="black" stroke-width="3"/>
<path d="M37.2842 73.3628C43.2842 76.3628 55.2842 78.7528 55.2842 78.7528L55.0842 86.1528C48.7642 88.5828 37.0842 88.3428 37.0842 88.3428L37.2842 73.3628Z" fill="#232361"/>
<path d="M73.2042 78.1228C67.8593 78.8775 62.4592 79.1686 57.0642 78.9928V85.5028L73.2042 78.1228Z" fill="#232361"/>
<path d="M39.7641 92.1028C40.7641 92.3728 45.6141 95.1728 49.5641 93.8828C49.6327 93.8603 49.7057 93.8547 49.7769 93.8663C49.8481 93.878 49.9155 93.9066 49.9733 93.9497C50.0312 93.9928 50.0778 94.0493 50.1093 94.1142C50.1407 94.1791 50.1561 94.2507 50.1541 94.3228V105.123C50.1541 105.123 47.6242 109.493 44.8742 109.253C42.7242 109.063 42.3441 108.473 39.5941 105.963V92.2528C39.592 92.2308 39.5952 92.2086 39.6033 92.188C39.6114 92.1674 39.6243 92.1491 39.6409 92.1345C39.6575 92.1198 39.6773 92.1093 39.6987 92.1038C39.7201 92.0983 39.7426 92.098 39.7641 92.1028Z" fill="#333333" stroke="black" stroke-width="2"/>
<path d="M56.0642 77.6228V159.413" stroke="black" stroke-width="2"/>
<path d="M59.7342 86.1028C60.2533 86.1028 60.6742 85.9103 60.6742 85.6728C60.6742 85.4353 60.2533 85.2428 59.7342 85.2428C59.215 85.2428 58.7942 85.4353 58.7942 85.6728C58.7942 85.9103 59.215 86.1028 59.7342 86.1028Z" stroke="black" stroke-width="2"/>
<path d="M59.7342 93.3928C60.2533 93.3928 60.6742 93.2003 60.6742 92.9628C60.6742 92.7253 60.2533 92.5328 59.7342 92.5328C59.215 92.5328 58.7942 92.7253 58.7942 92.9628C58.7942 93.2003 59.215 93.3928 59.7342 93.3928Z" stroke="black" stroke-width="2"/>
<path d="M59.7342 100.683C60.2533 100.683 60.6742 100.531 60.6742 100.343C60.6742 100.155 60.2533 100.003 59.7342 100.003C59.215 100.003 58.7942 100.155 58.7942 100.343C58.7942 100.531 59.215 100.683 59.7342 100.683Z" stroke="black" stroke-width="2"/>
<path d="M59.7342 108.273C60.2533 108.273 60.6742 108.121 60.6742 107.933C60.6742 107.745 60.2533 107.593 59.7342 107.593C59.215 107.593 58.7942 107.745 58.7942 107.933C58.7942 108.121 59.215 108.273 59.7342 108.273Z" stroke="black" stroke-width="2"/>
<path d="M59.7342 116.103C60.2533 116.103 60.6742 115.901 60.6742 115.653C60.6742 115.404 60.2533 115.203 59.7342 115.203C59.215 115.203 58.7942 115.404 58.7942 115.653C58.7942 115.901 59.215 116.103 59.7342 116.103Z" stroke="black" stroke-width="2"/>
<path d="M59.7343 124.443C60.3197 124.443 60.7943 124.25 60.7943 124.013C60.7943 123.775 60.3197 123.583 59.7343 123.583C59.1489 123.583 58.6743 123.775 58.6743 124.013C58.6743 124.25 59.1489 124.443 59.7343 124.443Z" stroke="black" stroke-width="2"/>
<path d="M59.7342 133.203C60.3694 133.203 60.8842 132.934 60.8842 132.603C60.8842 132.271 60.3694 132.003 59.7342 132.003C59.0991 132.003 58.5842 132.271 58.5842 132.603C58.5842 132.934 59.0991 133.203 59.7342 133.203Z" stroke="black" stroke-width="2"/>
<path d="M60.0541 141.723C60.5125 141.723 60.8841 141.499 60.8841 141.223C60.8841 140.947 60.5125 140.723 60.0541 140.723C59.5957 140.723 59.2241 140.947 59.2241 141.223C59.2241 141.499 59.5957 141.723 60.0541 141.723Z" stroke="black" stroke-width="2"/>
<path d="M60.0541 149.973C60.5125 149.973 60.8841 149.803 60.8841 149.593C60.8841 149.383 60.5125 149.213 60.0541 149.213C59.5957 149.213 59.2241 149.383 59.2241 149.593C59.2241 149.803 59.5957 149.973 60.0541 149.973Z" stroke="black" stroke-width="2"/>
<path d="M38.8141 39.0728L37.4941 37.6428C37.6955 37.3224 37.8296 36.9644 37.8883 36.5905C37.9471 36.2167 37.9291 35.8348 37.8355 35.4681C37.742 35.1014 37.5748 34.7576 37.3442 34.4575C37.1136 34.1575 36.8244 33.9075 36.4941 33.7228L35.8641 28.2628C35.7366 27.2278 35.9359 26.1788 36.4341 25.2628L38.9941 20.5728H75.9941L98.9941 41.3228L89.7541 60.8728L90.0741 71.0828C84.3441 77.7228 59.2841 78.5028 59.2841 78.5028C59.2841 78.5028 39.0141 74.9028 35.4941 70.3128C32.1941 65.9828 35.9341 52.3128 35.9341 52.3128L31.2841 53.2028C29.7829 52.1316 28.5502 50.7272 27.6827 49.0998C26.8152 47.4724 26.3365 45.6662 26.2841 43.8228C26.2141 41.4328 28.8541 37.6228 31.2841 37.5328L38.8141 39.0728Z" fill="#F4C06D" stroke="black" stroke-width="2"/>
<path d="M87.304 43.9727C87.304 43.9727 87.944 41.1227 91.894 41.8927" stroke="black"/>
<path d="M90.684 49.0428C92.474 47.4428 92.154 45.0428 89.854 41.8228Z" fill="#F4A36D"/>
<path d="M90.684 49.0428C92.474 47.4428 92.154 45.0428 89.854 41.8228" stroke="black"/>
<path d="M51.124 27.2228L46.834 32.4228C44.7404 32.4838 42.6687 31.9831 40.834 30.9728C39.3704 30.1666 38.1035 29.0465 37.124 27.6928L37.194 25.2628L51.124 27.2228Z" fill="#F4A36D"/>
<path d="M41.574 40.6228C38.574 39.9628 35.674 39.5328 31.874 38.7428C31.4453 38.6631 31.0037 38.6908 30.5884 38.8234C30.1731 38.956 29.7971 39.1894 29.494 39.5028C28.834 40.1628 23.714 43.6528 31.344 52.0728C32.784 52.0728 34.434 51.4228 36.554 51.2728C35.724 51.3328 32.084 44.8028 33.654 43.4328C35.494 41.8728 41.194 40.8428 41.574 40.6228Z" fill="#F4A36D"/>
<path d="M41.9041 35.9227C41.9041 35.9227 41.3141 36.4028 41.6841 36.7928L39.4941 36.9728C39.5612 36.681 39.5915 36.382 39.5841 36.0828C39.5736 35.7844 39.5436 35.4871 39.4941 35.1927C40.3241 35.3627 41.1141 35.7527 41.9041 35.9227Z" fill="#F4A36D"/>
<path d="M44.8841 57.8528L50.1541 75.1528C45.7041 74.8528 48.1541 74.8328 44.1541 73.4928C41.3104 72.8335 38.7106 71.3846 36.6541 69.3128C36.3842 68.2015 36.1739 67.0765 36.0241 65.9428C35.2241 59.9528 43.6541 61.5828 44.8841 57.8528Z" fill="#F4A36D"/>
<path d="M41.3042 63.1628C35.7742 63.1628 48.1142 63.1628 48.1142 63.1628Z" fill="black"/>
<path d="M41.3042 63.1628C35.7742 63.1628 48.1142 63.1628 48.1142 63.1628" stroke="black" stroke-width="3"/>
<path d="M70.2842 23.5028L78.1642 32.0328C78.1642 32.0328 76.8742 20.8928 76.7942 20.5728C76.7142 20.2528 70.2842 23.5028 70.2842 23.5028Z" fill="#F4A36D"/>
<path d="M56.584 40.3428C56.674 42.6528 60.014 43.6828 60.014 43.6828" stroke="#945F61"/>
<path d="M43.4941 40.2828C43.4941 40.2828 44.8541 40.8328 47.4041 38.7128" stroke="#945F61"/>
<path d="M38.9941 37.6028L38.7041 35.6028C41.905 35.1529 45.1532 35.1529 48.3541 35.6028L47.9741 37.6028C44.9949 37.1918 41.9733 37.1918 38.9941 37.6028Z" fill="black"/>
<path d="M70.6041 41.1128L66.6041 38.4228C63.6835 38.0367 60.7248 38.0367 57.8041 38.4228L57.4941 36.5028C60.6952 36.0549 63.9431 36.0549 67.1441 36.5028H67.3441L71.7141 39.5028L70.6041 41.1128Z" fill="black"/>
<path d="M94.4939 52.1128C94.4939 52.1128 98.644 43.8628 92.314 40.1128C88.434 37.8028 85.804 41.7928 84.034 43.9428C80.914 47.6928 78.414 43.9428 78.414 43.9428C78.624 21.3828 75.684 21.4328 74.704 22.0828C74.2415 22.362 73.7339 22.5582 73.204 22.6628C68.594 23.8028 48.284 30.8728 36.494 25.0628C20.624 17.2928 31.174 -8.23721 48.964 4.50279C52.854 7.29279 72.794 13.1528 90.154 20.2928C107.514 27.4328 107.044 69.6528 107.044 69.6528C103.634 77.1428 91.834 69.6528 91.834 69.6528L89.984 61.8328C88.314 63.3428 87.364 55.1728 87.364 55.1728C88.7186 55.3635 90.0996 55.1791 91.3567 54.6395C92.6139 54.1 93.6989 53.2261 94.4939 52.1128Z" fill="black" stroke="black"/>
<path d="M51.3041 33.2628C51.3041 33.2628 63.1741 29.8928 68.4941 26.8328C73.8141 23.7728 69.6441 31.6528 67.7341 33.2628C65.8241 34.8728 54.3241 36.2628 54.3241 36.2628C54.3241 36.2628 54.1941 37.7928 53.3241 37.5428C52.5142 37.2099 51.8579 36.5863 51.4842 35.7944C51.1105 35.0026 51.0462 34.0996 51.3041 33.2628Z" fill="black" stroke="black"/>
<path d="M48.1041 37.3528C48.577 36.6997 48.8632 35.9303 48.9319 35.1269C49.0006 34.3235 48.8492 33.5166 48.4941 32.7928C48.4941 32.7928 38.3141 30.8928 36.4341 26.6028C35.8741 25.3528 35.4341 31.8528 35.4341 31.8528C35.4341 31.8528 36.6041 34.4828 42.0241 35.4228C43.9212 35.6221 45.7338 36.3113 47.2841 37.4228C47.3388 37.4795 47.4055 37.5234 47.4793 37.5511C47.5531 37.5788 47.6322 37.5897 47.7108 37.583C47.7893 37.5763 47.8654 37.5522 47.9334 37.5124C48.0015 37.4725 48.0598 37.418 48.1041 37.3528Z" fill="black" stroke="black"/>
<path d="M44.714 48.1528C44.714 48.1528 29.904 55.7828 23.904 67.5028C21.664 71.8928 25.734 73.1628 24.674 72.9328C23.614 72.7028 29.074 68.2728 29.074 68.2728L43.184 58.9528C43.184 58.9528 62.784 65.6028 65.184 70.7328C66.624 73.7328 67.644 66.1828 67.644 66.1828C67.644 66.1828 64.494 57.8928 44.714 48.1528Z" fill="black" stroke="black" stroke-width="3"/>
<path d="M43.3641 67.9628L41.0341 70.5028C40.9931 70.5479 40.9655 70.6036 40.9542 70.6635C40.9429 70.7234 40.9484 70.7853 40.9702 70.8423C40.9919 70.8993 41.0291 70.9491 41.0774 70.9862C41.1258 71.0234 41.1835 71.0464 41.2441 71.0528L46.0541 71.4328C46.1189 71.438 46.1837 71.4239 46.2405 71.3924C46.2973 71.3609 46.3435 71.3134 46.3734 71.2557C46.4033 71.1981 46.4155 71.1329 46.4085 71.0683C46.4015 71.0038 46.3757 70.9427 46.3341 70.8928L43.8641 67.9528C43.8324 67.9174 43.7935 67.8893 43.75 67.8704C43.7064 67.8515 43.6593 67.8422 43.6118 67.8431C43.5644 67.8441 43.5177 67.8553 43.4749 67.8759C43.4322 67.8966 43.3944 67.9262 43.3641 67.9628Z" fill="black" stroke="black" stroke-width="3"/>
<path d="M101.664 132.903C102.474 125.963 106.234 99.0628 107.124 92.6728C107.27 91.6654 107.178 90.6378 106.854 89.6728C105.854 86.5628 102.704 79.8128 94.9743 76.9128C86.4343 73.7128 83.2543 86.4128 82.4443 90.6428C82.2894 91.4554 82.2894 92.2901 82.4443 93.1028C83.2043 97.2028 85.3143 111.613 79.6643 121.603L100.394 133.503C100.514 133.573 100.648 133.613 100.787 133.619C100.925 133.625 101.063 133.597 101.188 133.538C101.313 133.479 101.422 133.39 101.505 133.28C101.588 133.169 101.643 133.039 101.664 132.903Z" fill="#333333" stroke="black" stroke-width="3"/>
<path d="M80.2642 120.503C80.2642 120.503 96.6842 119.633 102.554 129.503V132.203C102.536 133.661 102.025 135.071 101.104 136.203C100.099 137.449 98.722 138.342 97.1742 138.753L96.2342 139.013C94.7025 139.433 93.0859 139.433 91.5542 139.013C88.6442 138.213 83.9242 136.733 82.1942 135.243C78.9842 132.503 75.0842 129.573 80.2642 120.503Z" fill="#F4C06D" stroke="black" stroke-width="2"/>
<path d="M88.4041 79.8928C88.4041 79.8928 95.4941 94.7028 89.7741 120.323L82.2441 119.553C82.2441 119.553 86.8441 111.293 83.6841 92.0428C82.4941 84.7928 88.4041 79.8928 88.4041 79.8928Z" fill="#232361"/>
<path d="M82.4143 134.103C75.1843 129.563 89.4143 122.323 89.4143 122.323C88.0616 126.755 85.6605 130.796 82.4143 134.103Z" fill="#F4A36D"/>
<path d="M89.4043 122.323C87.6543 121.603 80.9743 121.373 80.8743 121.473C80.7743 121.573 74.9543 129.303 82.4143 134.103L89.4043 122.323Z" fill="#F4A36D"/>
<path d="M84.8941 176.093C85.673 176.161 86.3977 176.519 86.924 177.098C87.4503 177.676 87.7395 178.431 87.7341 179.213C87.7341 183.553 87.8141 191.303 87.5741 192.283C87.3341 193.263 85.9441 193.883 85.1641 194.153C84.8446 194.273 84.5052 194.33 84.1641 194.323H64.8441C64.028 194.299 63.2544 193.954 62.6923 193.362C62.1302 192.77 61.8253 191.979 61.8441 191.163C61.8284 190.377 62.112 189.614 62.6374 189.029C63.1629 188.445 63.8909 188.081 64.6741 188.013L74.6741 187.363C75.4555 187.287 76.1797 186.92 76.7024 186.335C77.2251 185.749 77.5078 184.988 77.4941 184.203V178.963C77.4841 178.541 77.5608 178.122 77.7194 177.732C77.878 177.341 78.1151 176.987 78.416 176.692C78.7169 176.396 79.0753 176.166 79.4688 176.015C79.8624 175.864 80.2828 175.795 80.7041 175.813L84.8941 176.093Z" fill="black" stroke="black" stroke-width="3"/>
<path d="M93.7341 160.393C94.1081 163.11 93.9022 165.876 93.13 168.508C92.3579 171.14 91.0369 173.578 89.2541 175.663L92.2541 178.313V178.363H74.4941C74.4941 178.363 74.4941 178.363 74.4941 178.313L76.2041 176.173C69.2041 167.573 70.8441 160.743 70.9341 160.383H93.7041L93.7341 160.393Z" fill="#DFDFDF" stroke="black" stroke-width="3"/>
<path d="M81.604 173.133L80.334 170.063" stroke="black"/>
<path d="M85.1741 173.133L85.4541 170.063" stroke="black"/>
<path d="M74.0741 170.343L86.7141 161.813L72.0941 161.873C72.0178 163.37 72.1696 164.871 72.5441 166.323C72.877 167.724 73.3913 169.075 74.0741 170.343Z" fill="#DBEDFF"/>
<path d="M54.934 191.193C54.9353 191.506 54.8747 191.816 54.7556 192.105C54.6364 192.395 54.4612 192.657 54.2399 192.879C54.0186 193.1 53.7557 193.275 53.4664 193.394C53.177 193.513 52.8669 193.574 52.554 193.573H31.494C31.1806 193.574 30.8701 193.514 30.5802 193.395C30.2903 193.275 30.0267 193.1 29.8046 192.879C29.5826 192.658 29.4064 192.395 29.2861 192.106C29.1659 191.816 29.104 191.506 29.104 191.193V189.503C29.1027 189.188 29.1636 188.876 29.2831 188.585C29.4026 188.294 29.5784 188.029 29.8005 187.806C30.0226 187.583 30.2865 187.406 30.5771 187.286C30.8677 187.165 31.1793 187.103 31.494 187.103H43.024C43.3369 187.104 43.647 187.043 43.9364 186.924C44.2257 186.805 44.4886 186.63 44.7099 186.409C44.9312 186.187 45.1064 185.924 45.2256 185.635C45.3447 185.346 45.4053 185.036 45.404 184.723V178.933C45.4067 178.301 45.6596 177.695 46.1076 177.249C46.5555 176.803 47.1619 176.553 47.794 176.553H52.554C52.8666 176.553 53.1761 176.614 53.4648 176.734C53.7536 176.854 54.0159 177.029 54.2369 177.25C54.4579 177.471 54.6333 177.733 54.7529 178.022C54.8725 178.311 54.934 178.62 54.934 178.933V191.193Z" fill="black" stroke="black" stroke-width="3"/>
<path d="M61.6241 159.503C62.0085 162.246 61.7762 165.04 60.9441 167.681C60.112 170.323 58.7011 172.745 56.8141 174.773L60.0941 177.503V177.553H40.9141C40.9141 177.553 40.8641 177.553 40.9141 177.503L42.7441 175.363C35.2041 166.763 36.9841 159.933 37.0841 159.563H61.5941L61.6241 159.503Z" fill="#DFDFDF" stroke="black" stroke-width="3"/>
<path d="M47.6739 173.133L46.2739 170.063" stroke="black"/>
<path d="M52.114 172.793L53.014 169.723" stroke="black"/>
<path d="M40.434 169.383L53.014 161.003L38.394 161.063C38.3223 162.56 38.4739 164.06 38.844 165.513C39.1882 166.872 39.7235 168.175 40.434 169.383Z" fill="#DBEDFF"/>
</svg>
