<svg width="149" height="196" viewBox="0 0 149 196" fill="none" xmlns="http://www.w3.org/2000/svg">
<path d="M80.1908 193.143C79.5587 193.14 78.9533 192.887 78.5073 192.439C78.0612 191.991 77.8108 191.385 77.8108 190.753V189.053C77.8134 188.422 78.065 187.819 78.5108 187.373C78.9566 186.927 79.5604 186.675 80.1908 186.673H91.7708C93.4308 186.483 92.5108 185.013 92.4008 183.753L90.1408 179.113C89.2808 176.733 85.6508 171.963 86.9708 171.963L97.4608 173.753C98.7808 173.753 99.4608 179.673 99.4608 180.983L101.291 190.753C101.291 191.385 101.04 191.991 100.594 192.439C100.148 192.887 99.5429 193.14 98.9108 193.143H80.1908Z" fill="black" stroke="black" stroke-width="3"/>
<path d="M106.201 157.503C106.113 160.271 105.409 162.986 104.139 165.448C102.87 167.909 101.066 170.057 98.8608 171.733L101.631 174.903L82.7608 171.653C82.7608 171.653 82.7608 171.653 82.7608 171.603L84.9408 169.793C78.9408 160.033 81.9408 153.603 82.0508 153.263L106.171 157.503H106.201Z" fill="#DFDFDF" stroke="black" stroke-width="3"/>
<path d="M86.3608 169.283L97.2208 158.053L83.0708 161.723C83.0708 161.723 84.8308 168.093 86.3608 169.283Z" fill="#DBEDFF"/>
<path d="M90.1408 168.513L89.2808 165.253" stroke="black"/>
<path d="M94.5808 168.893L95.9808 166.023" stroke="black"/>
<path d="M138.801 173.623C140.461 173.623 141.061 172.433 141.481 174.303C142.481 178.543 147.171 191.173 146.931 192.153C146.691 193.133 145.301 193.753 144.521 194.023C144.201 194.143 143.862 194.2 143.521 194.193H124.201C123.384 194.169 122.611 193.824 122.049 193.232C121.487 192.639 121.182 191.849 121.201 191.033C121.185 190.247 121.468 189.484 121.994 188.899C122.519 188.314 123.247 187.951 124.031 187.883L134.031 187.233C135.621 187.123 135.731 185.543 135.731 183.883L132.421 176.083C132.421 174.253 135.191 173.623 136.931 173.743L138.801 173.623Z" fill="black" stroke="black" stroke-width="3"/>
<path d="M142.201 150.503C144.186 156.678 143.855 163.364 141.271 169.313C141.271 169.313 141.271 169.313 141.271 169.363L144.831 171.703V171.773L127.451 176.083C127.451 176.083 127.451 176.083 127.451 176.033L128.631 173.123C119.861 164.833 119.931 156.493 119.941 156.053L142.161 150.503C142.167 150.5 142.174 150.499 142.181 150.499C142.187 150.499 142.194 150.5 142.201 150.503Z" fill="#DFDFDF" stroke="black" stroke-width="3"/>
<path d="M133.131 169.253L131.621 165.703" stroke="black"/>
<path d="M136.851 168.323L136.891 164.673" stroke="black"/>
<path d="M124.441 165.563L136.441 153.433L121.441 157.063C121.552 158.555 121.89 160.022 122.441 161.413C122.949 162.867 123.62 164.259 124.441 165.563Z" fill="#DBEDFF"/>
<path d="M19.4808 100.843L9.78076 115.053C10.3108 115.353 36.7008 124.353 45.1008 124.903C50.4308 125.263 72.5708 102.313 73.4708 95.9028C73.6118 94.8953 73.5194 93.8689 73.2008 92.9028C72.2008 89.7928 67.7908 75.0228 61.3208 80.1528C56.8608 83.6828 50.6508 97.4428 45.3208 105.873L19.4808 100.843Z" fill="#232361" stroke="black" stroke-width="3"/>
<path d="M22.5307 100.783C22.5307 100.783 19.3307 113.573 8.53068 115.013L5.98068 114.153C4.6374 113.71 3.44318 112.903 2.53068 111.823C1.60215 110.776 1.06195 109.441 1.00068 108.043V107.253C0.980934 105.967 1.38898 104.711 2.16068 103.683C3.64068 101.683 6.21069 98.5728 8.06069 97.6828C11.4207 96.1328 15.1307 94.0428 22.5307 100.783Z" fill="#F4C06D" stroke="black" stroke-width="2"/>
<path d="M8.43066 98.6528C8.43066 98.6528 16.0607 104.063 15.9607 110.213C18.4784 107.651 20.3589 104.534 21.4507 101.113C21.4507 101.113 17.0907 97.1128 13.4507 97.1128C11.6712 97.1769 9.93995 97.708 8.43066 98.6528Z" fill="#F4A36D"/>
<path d="M63.2007 75.6728L80.2007 163.603C80.2114 163.659 80.2332 163.712 80.2648 163.76C80.2963 163.807 80.337 163.848 80.3845 163.88C80.4319 163.911 80.4852 163.933 80.5412 163.944C80.5972 163.955 80.6548 163.954 80.7107 163.943L142.441 150.893C142.536 150.875 142.627 150.835 142.705 150.776C142.783 150.718 142.847 150.642 142.891 150.555C142.935 150.468 142.959 150.373 142.961 150.275C142.963 150.178 142.942 150.081 142.901 149.993L136.401 135.643L122.941 93.7828L127.231 80.6128C127.231 80.6128 122.231 64.9328 118.431 67.0728C81.4307 87.9428 63.7407 76.9628 63.7407 76.9628" fill="#333333"/>
<path d="M63.2007 75.6728L80.2007 163.603C80.2114 163.659 80.2332 163.712 80.2648 163.76C80.2963 163.807 80.337 163.848 80.3845 163.88C80.4319 163.911 80.4852 163.933 80.5412 163.944C80.5972 163.955 80.6548 163.954 80.7107 163.943L142.441 150.893C142.536 150.875 142.627 150.835 142.705 150.776C142.783 150.718 142.847 150.642 142.891 150.555C142.935 150.468 142.959 150.373 142.961 150.275C142.963 150.178 142.942 150.081 142.901 149.993L136.401 135.643L122.941 93.7828L127.231 80.6128C127.231 80.6128 122.231 64.9328 118.431 67.0728C81.4307 87.9428 63.7407 76.9628 63.7407 76.9628" stroke="black" stroke-width="3"/>
<path d="M65.5308 79.5027C72.8008 82.3127 87.6108 80.5027 87.6108 80.5027L89.4508 87.8727C83.1008 92.2827 68.5908 95.8727 68.5908 95.8727L65.5308 79.5027Z" fill="#232361"/>
<path d="M105.171 75.2028C100.081 77.3189 94.8181 78.9917 89.4407 80.2028L90.0807 87.5028L105.171 75.2028Z" fill="#232361"/>
<path d="M88.0308 77.5828L104.941 157.603" stroke="black" stroke-width="2"/>
<path d="M95.2597 94.01C95.7676 93.9025 96.1395 93.6271 96.0904 93.3948C96.0413 93.1624 95.5897 93.0612 95.0818 93.1686C94.5739 93.276 94.2019 93.5514 94.2511 93.7837C94.3002 94.0161 94.7518 94.1174 95.2597 94.01Z" stroke="black" stroke-width="2"/>
<path d="M96.7624 101.135C97.2703 101.028 97.6422 100.753 97.5931 100.52C97.5439 100.288 97.0924 100.187 96.5845 100.294C96.0765 100.401 95.7046 100.677 95.7538 100.909C95.8029 101.142 96.2545 101.243 96.7624 101.135Z" stroke="black" stroke-width="2"/>
<path d="M98.2745 108.275C98.7824 108.167 99.1626 107.931 99.1238 107.747C99.0849 107.564 98.6417 107.502 98.1338 107.609C97.6259 107.717 97.2456 107.953 97.2845 108.136C97.3233 108.32 97.7665 108.382 98.2745 108.275Z" stroke="black" stroke-width="2"/>
<path d="M99.8477 115.699C100.356 115.592 100.736 115.356 100.697 115.172C100.658 114.988 100.215 114.926 99.707 115.034C99.1991 115.141 98.8188 115.377 98.8577 115.561C98.8965 115.745 99.3398 115.806 99.8477 115.699Z" stroke="black" stroke-width="2"/>
<path d="M101.468 123.352C101.976 123.245 102.346 122.961 102.294 122.718C102.243 122.474 101.789 122.364 101.281 122.472C100.774 122.579 100.403 122.863 100.455 123.107C100.506 123.35 100.96 123.46 101.468 123.352Z" stroke="black" stroke-width="2"/>
<path d="M103.199 131.518C103.771 131.397 104.196 131.11 104.147 130.878C104.098 130.646 103.593 130.555 103.021 130.676C102.448 130.798 102.023 131.084 102.073 131.316C102.122 131.549 102.626 131.639 103.199 131.518Z" stroke="black" stroke-width="2"/>
<path d="M104.995 140.096C105.617 139.965 106.065 139.595 105.996 139.271C105.928 138.947 105.368 138.791 104.747 138.922C104.126 139.053 103.677 139.423 103.746 139.747C103.815 140.071 104.374 140.227 104.995 140.096Z" stroke="black" stroke-width="2"/>
<path d="M107.079 148.353C107.527 148.258 107.844 147.962 107.787 147.692C107.73 147.422 107.32 147.28 106.872 147.374C106.423 147.469 106.106 147.765 106.163 148.035C106.22 148.305 106.63 148.448 107.079 148.353Z" stroke="black" stroke-width="2"/>
<path d="M109.081 155.083C109.081 155.293 108.791 154.543 108.341 154.633C107.891 154.723 107.501 155.633 107.451 155.433C107.401 155.233 107.741 154.983 108.191 154.883C108.641 154.783 109.001 154.883 109.081 155.083Z" stroke="black" stroke-width="2"/>
<path d="M70.3806 105.073L82.8506 106.683L86.9406 161.163L81.4806 162.323L70.3806 105.073Z" fill="#232361"/>
<path d="M77.0006 104.023C78.0006 104.023 83.3606 105.813 87.0006 103.733C87.0632 103.696 87.1337 103.675 87.2061 103.672C87.2785 103.668 87.3507 103.683 87.4165 103.713C87.4823 103.743 87.5397 103.789 87.584 103.847C87.6282 103.904 87.6579 103.971 87.6706 104.043L89.9006 114.603C89.9006 114.603 88.3306 119.403 85.5906 119.733C83.4506 119.993 82.9506 119.503 79.7406 117.613L76.9106 104.193C76.9011 104.158 76.905 104.122 76.9218 104.09C76.9385 104.058 76.9667 104.034 77.0006 104.023Z" stroke="black" stroke-width="2"/>
<path d="M70.2407 85.1928L61.7307 102.353C62.2707 102.663 85.1407 105.503 93.5507 106.063C98.8707 106.413 128.551 93.0628 129.441 86.6228C129.582 85.6153 129.489 84.5889 129.171 83.6228C128.171 80.5128 123.761 65.7428 117.291 70.8628C112.821 74.4028 104.371 84.5028 99.0907 86.6728L70.2407 85.1928Z" fill="#333333" stroke="black" stroke-width="3"/>
<path d="M71.1606 84.9328C71.1606 84.9328 71.0006 98.1128 60.7206 101.993L58.0006 101.733C56.591 101.606 55.2442 101.09 54.1106 100.243C52.9874 99.4244 52.1791 98.2454 51.8206 96.9028L51.6306 96.1328C51.3347 94.8797 51.4649 93.5636 52.0006 92.3928C53.0006 90.1328 54.7706 86.4928 56.3806 85.2328C59.2906 82.9328 62.4206 80.0528 71.1606 84.9328Z" fill="#F4C06D" stroke="black" stroke-width="2"/>
<path d="M99.2005 88.1428C99.2005 88.1428 89.3505 94.1428 86.2905 103.963L64.2905 101.493C64.2905 101.493 71.0005 96.9828 72.0805 86.7728L99.2005 88.1428Z" fill="#232361"/>
<path d="M59.7007 84.1728C59.7007 84.1728 67.0707 91.0528 66.6407 96.1128C66.6407 96.1128 69.6407 92.3428 70.0907 85.5328C70.0907 85.5328 66.2807 83.2328 63.2007 83.3228C61.9738 83.2331 60.7497 83.5303 59.7007 84.1728Z" fill="#F4A36D"/>
<path d="M58.1608 39.0728L56.8708 37.6428C57.0722 37.3224 57.2063 36.9644 57.265 36.5906C57.3237 36.2167 57.3058 35.8348 57.2122 35.4682C57.1187 35.1015 56.9515 34.7576 56.7209 34.4576C56.4903 34.1575 56.201 33.9076 55.8708 33.7228L55.2308 28.2628C55.1142 27.2271 55.3166 26.1805 55.8108 25.2628L58.3708 20.5728H95.3708L118.371 41.3228L109.101 60.8728L109.421 71.0828C103.691 77.7228 78.6308 78.5028 78.6308 78.5028C78.6308 78.5028 58.3608 74.9028 54.8508 70.3128C51.5508 65.9828 55.2908 52.3128 55.2908 52.3128L50.6408 53.2028C49.1379 52.1333 47.904 50.7293 47.0363 49.1015C46.1686 47.4738 45.6909 45.6667 45.6408 43.8228C45.5708 41.4328 48.2108 37.6228 50.6408 37.5328L58.1608 39.0728Z" fill="#F4C06D" stroke="black" stroke-width="2"/>
<path d="M106.651 43.9728C106.651 43.9728 107.291 41.1228 111.241 41.8928" stroke="black"/>
<path d="M110.001 49.0428C111.791 47.4428 111.471 45.0428 109.171 41.8228Z" fill="#F4A36D"/>
<path d="M110.001 49.0428C111.791 47.4428 111.471 45.0428 109.171 41.8228" stroke="black"/>
<path d="M70.4707 27.2228L66.1807 32.4228C64.0871 32.4838 62.0154 31.9832 60.1807 30.9728C58.7171 30.1667 57.4501 29.0466 56.4707 27.6928L56.5407 25.2628L70.4707 27.2228Z" fill="#F4A36D"/>
<path d="M60.9207 40.6228C57.9207 39.9628 55.0207 39.5328 51.2107 38.7428C50.7796 38.6659 50.3361 38.6979 49.9205 38.8359C49.5049 38.9738 49.1303 39.2134 48.8307 39.5328C48.1707 40.1928 43.0407 43.6828 50.6807 52.1028C52.1207 52.1028 53.7707 51.4528 55.8907 51.3028C55.0607 51.3628 51.4207 44.8328 52.9907 43.4628C54.8207 41.8728 60.5407 40.8428 60.9207 40.6228Z" fill="#F4A36D"/>
<path d="M61.2506 35.9228C61.2506 35.9228 60.6606 36.4028 61.0306 36.7928L58.8706 36.9728C58.9377 36.6811 58.9679 36.3821 58.9606 36.0828C58.9501 35.7845 58.92 35.4872 58.8706 35.1928C59.6606 35.3628 60.4606 35.7528 61.2506 35.9228Z" fill="#F4A36D"/>
<path d="M64.2308 57.8528L69.5008 75.1528C65.0508 74.8528 67.5008 74.8328 63.5008 73.4928C60.6571 72.8335 58.0573 71.3846 56.0008 69.3128C55.7309 68.2015 55.5206 67.0765 55.3708 65.9428C54.5708 59.9528 63.0008 61.5828 64.2308 57.8528Z" fill="#F4A36D"/>
<path d="M60.6506 63.1628C55.1206 63.1628 67.4606 63.1628 67.4606 63.1628Z" fill="black"/>
<path d="M60.6506 63.1628C55.1206 63.1628 67.4606 63.1628 67.4606 63.1628" stroke="black" stroke-width="3"/>
<path d="M89.6306 23.5028L97.5106 32.0328C97.5106 32.0328 96.2206 20.9128 96.1406 20.5928C96.0606 20.2728 89.6306 23.5028 89.6306 23.5028Z" fill="#F4A36D"/>
<path d="M75.9307 40.3428C76.0207 42.6528 79.3607 43.6828 79.3607 43.6828" stroke="#945F61"/>
<path d="M62.8508 40.2828C62.8508 40.2828 64.2008 40.8328 66.7608 38.7128" stroke="#945F61"/>
<path d="M58.3308 37.6028L58.0508 35.6028C61.2517 35.1529 64.4998 35.1529 67.7008 35.6028L67.3208 37.6028C64.3381 37.1927 61.3134 37.1927 58.3308 37.6028Z" fill="black"/>
<path d="M90.0009 41.1128L86.0009 38.4228C83.0803 38.0366 80.1215 38.0366 77.2009 38.4228L76.9209 36.4228C80.122 35.9749 83.3698 35.9749 86.5709 36.4228H86.7709L91.0609 39.5028L90.0009 41.1128Z" fill="black"/>
<path d="M113.861 52.1128C113.861 52.1128 118.011 43.8628 111.681 40.1128C107.801 37.8028 105.171 41.7928 103.391 43.9428C100.281 47.6928 97.7806 43.9428 97.7806 43.9428C97.9906 21.3828 95.0506 21.4328 94.0706 22.0828C93.6082 22.362 93.1006 22.5582 92.5706 22.6628C87.9406 23.8028 67.6306 30.8728 55.7906 25.0628C40.0006 17.2928 49.7206 -8.23721 67.5106 4.50279C71.4006 7.29279 92.1406 13.1528 109.511 20.2928C126.881 27.4328 126.401 69.6528 126.401 69.6528C122.991 77.1428 111.191 69.6528 111.191 69.6528L109.341 61.8328C107.671 63.3428 106.721 55.1728 106.721 55.1728C108.078 55.3673 109.464 55.1848 110.725 54.6451C111.986 54.1054 113.074 53.2294 113.871 52.1128" fill="black"/>
<path d="M113.861 52.1128C113.861 52.1128 118.011 43.8628 111.681 40.1128C107.801 37.8028 105.171 41.7928 103.391 43.9428C100.281 47.6928 97.7806 43.9428 97.7806 43.9428C97.9906 21.3828 95.0506 21.4328 94.0706 22.0828C93.6082 22.362 93.1006 22.5582 92.5706 22.6628C87.9406 23.8028 67.6306 30.8728 55.7906 25.0628C40.0006 17.2928 49.7206 -8.23721 67.5106 4.50279C71.4006 7.29279 92.1406 13.1528 109.511 20.2928C126.881 27.4328 126.401 69.6528 126.401 69.6528C122.991 77.1428 111.191 69.6528 111.191 69.6528L109.341 61.8328C107.671 63.3428 106.721 55.1728 106.721 55.1728C108.078 55.3673 109.464 55.1848 110.725 54.6451C111.986 54.1054 113.074 53.2294 113.871 52.1128" stroke="black"/>
<path d="M70.6507 33.2628C70.6507 33.2628 82.5207 29.8928 87.8807 26.8328C93.2407 23.7728 89.0307 31.6528 87.1107 33.2628C85.1907 34.8728 73.7107 36.2628 73.7107 36.2628C73.7107 36.2628 73.5807 37.7928 72.7107 37.5428C71.8935 37.2173 71.2283 36.5968 70.8468 35.8042C70.4653 35.0115 70.3953 34.1045 70.6507 33.2628Z" fill="black" stroke="black"/>
<path d="M67.4507 37.3528C67.9237 36.6997 68.2098 35.9303 68.2786 35.1269C68.3473 34.3235 68.1959 33.5166 67.8407 32.7928C67.8407 32.7928 57.6608 30.8928 55.7708 26.6028C55.2208 25.3528 54.7708 31.8528 54.7708 31.8528C54.7708 31.8528 56.0008 34.5028 61.4108 35.4228C63.3078 35.6221 65.1205 36.3113 66.6707 37.4228C66.7251 37.4726 66.7892 37.5105 66.859 37.5341C66.9288 37.5577 67.0028 37.5665 67.0762 37.5599C67.1496 37.5533 67.2208 37.5315 67.2853 37.4958C67.3498 37.4602 67.4061 37.4114 67.4507 37.3528Z" fill="black" stroke="black"/>
<path d="M64.0607 48.1528C64.0607 48.1528 49.2507 55.7828 43.2507 67.5028C41.0107 71.8928 45.0807 73.1628 44.0207 72.9328C42.9607 72.7028 48.4207 68.2728 48.4207 68.2728L62.5307 58.9528C62.5307 58.9528 82.1307 65.6028 84.5307 70.7328C86.0007 73.7828 87.0007 66.2028 87.0007 66.2028C87.0007 66.2028 83.8507 57.8928 64.0607 48.1528Z" fill="black" stroke="black" stroke-width="3"/>
<path d="M62.7108 67.9628L60.3808 70.5028C60.3398 70.5479 60.3122 70.6036 60.3009 70.6635C60.2896 70.7234 60.2951 70.7853 60.3169 70.8423C60.3386 70.8993 60.3757 70.9491 60.4241 70.9863C60.4725 71.0234 60.5302 71.0464 60.5908 71.0528L65.4008 71.5028C65.4655 71.508 65.5304 71.4939 65.5872 71.4624C65.644 71.4309 65.6902 71.3834 65.7201 71.3257C65.75 71.2681 65.7622 71.2029 65.7552 71.1383C65.7482 71.0738 65.7223 71.0127 65.6808 70.9628L63.2108 68.0228C63.1844 67.9828 63.1496 67.949 63.1088 67.9238C63.0681 67.8986 63.0223 67.8826 62.9747 67.8769C62.9271 67.8712 62.8789 67.8759 62.8333 67.8908C62.7877 67.9056 62.7459 67.9302 62.7108 67.9628Z" fill="black" stroke="black" stroke-width="3"/>
<path d="M71.1607 22.3528C71.1607 22.3528 62.1606 29.7428 54.4606 16.1228C46.7606 2.50276 64.3307 4.50276 63.7007 11.3528C63.0707 18.2028 59.3207 13.6028 59.3207 13.6028" stroke="#C8C8C8"/>
</svg>
